<svg xmlns="http://www.w3.org/2000/svg" xmlns:xlink="http://www.w3.org/1999/xlink" width="80" zoomAndPan="magnify" viewBox="0 0 60 60" height="80" preserveAspectRatio="xMidYMid meet" version="1.0"><defs><g/><clipPath id="82639f9425"><path d="M 17.019531 25 L 22 25 L 22 40 L 17.019531 40 Z M 17.019531 25 " clip-rule="nonzero"/></clipPath><clipPath id="bd825140b2"><path d="M 17.019531 24 L 22 24 L 22 41 L 17.019531 41 Z M 17.019531 24 " clip-rule="nonzero"/></clipPath><clipPath id="38089429c1"><path d="M 38 24 L 43.253906 24 L 43.253906 41 L 38 41 Z M 38 24 " clip-rule="nonzero"/></clipPath></defs><path fill="#f44e21" d="M 23.253906 37.539062 L 37.210938 37.539062 L 37.210938 42.398438 L 23.253906 42.398438 Z M 23.253906 37.539062 " fill-opacity="1" fill-rule="nonzero"/><path fill="#2f1b39" d="M 37.210938 42.640625 L 23.265625 42.640625 C 23.105469 42.640625 23.023438 42.5625 23.023438 42.398438 L 23.023438 37.539062 C 23.023438 37.378906 23.105469 37.296875 23.265625 37.296875 L 37.210938 37.296875 C 37.375 37.296875 37.457031 37.378906 37.457031 37.539062 L 37.457031 42.398438 C 37.457031 42.5625 37.375 42.640625 37.210938 42.640625 Z M 23.511719 42.15625 L 36.964844 42.15625 L 36.964844 37.78125 L 23.511719 37.78125 Z M 23.511719 42.15625 " fill-opacity="1" fill-rule="nonzero"/><g clip-path="url(#82639f9425)"><path fill="#f44e21" d="M 21.113281 25.035156 L 19.832031 26.378906 C 19 27.253906 18.359375 28.246094 17.914062 29.363281 C 17.464844 30.476562 17.242188 31.636719 17.242188 32.835938 L 17.242188 39.972656 L 21.726562 35.078125 Z M 21.113281 25.035156 " fill-opacity="1" fill-rule="nonzero"/></g><g clip-path="url(#bd825140b2)"><path fill="#2f1b39" d="M 17.242188 40.214844 C 17.210938 40.214844 17.179688 40.207031 17.152344 40.195312 C 17.050781 40.15625 16.996094 40.082031 16.996094 39.972656 L 16.996094 32.835938 C 16.996094 31.605469 17.222656 30.417969 17.683594 29.273438 C 18.140625 28.128906 18.800781 27.109375 19.652344 26.214844 L 20.933594 24.867188 C 21.007812 24.789062 21.097656 24.769531 21.199219 24.804688 C 21.300781 24.839844 21.351562 24.914062 21.359375 25.019531 L 21.972656 35.066406 C 21.976562 35.132812 21.957031 35.191406 21.910156 35.242188 L 17.421875 40.132812 C 17.375 40.1875 17.3125 40.210938 17.242188 40.214844 Z M 20.910156 25.609375 L 20.019531 26.542969 C 19.207031 27.394531 18.582031 28.363281 18.144531 29.453125 C 17.707031 30.539062 17.492188 31.667969 17.492188 32.839844 L 17.492188 39.347656 L 21.484375 34.992188 Z M 20.910156 25.609375 " fill-opacity="1" fill-rule="nonzero"/></g><path fill="#f44e21" d="M 39.113281 25.035156 L 40.398438 26.378906 C 41.230469 27.253906 41.867188 28.246094 42.316406 29.363281 C 42.761719 30.476562 42.988281 31.636719 42.988281 32.835938 L 42.988281 39.972656 L 38.507812 35.078125 Z M 39.113281 25.035156 " fill-opacity="1" fill-rule="nonzero"/><g clip-path="url(#38089429c1)"><path fill="#2f1b39" d="M 42.988281 40.214844 C 42.914062 40.210938 42.855469 40.1875 42.804688 40.132812 L 38.320312 35.242188 C 38.273438 35.191406 38.253906 35.132812 38.257812 35.066406 L 38.871094 25.019531 C 38.875 24.914062 38.929688 24.84375 39.03125 24.804688 C 39.132812 24.769531 39.21875 24.789062 39.292969 24.867188 L 40.574219 26.214844 C 41.429688 27.109375 42.085938 28.128906 42.546875 29.273438 C 43.003906 30.417969 43.234375 31.605469 43.230469 32.835938 L 43.230469 39.972656 C 43.230469 40.082031 43.179688 40.15625 43.074219 40.195312 C 43.046875 40.207031 43.019531 40.214844 42.988281 40.214844 Z M 38.753906 34.992188 L 42.742188 39.351562 L 42.742188 32.835938 C 42.746094 31.664062 42.527344 30.535156 42.09375 29.449219 C 41.65625 28.359375 41.03125 27.390625 40.21875 26.539062 L 39.324219 25.601562 Z M 38.753906 34.992188 " fill-opacity="1" fill-rule="nonzero"/></g><path fill="#efd5ea" d="M 30.234375 6.578125 C 27.625 6.578125 25.738281 6.578125 23.398438 9.84375 C 22.257812 12.144531 21.378906 14.539062 20.761719 17.03125 C 20.140625 19.519531 19.796875 22.042969 19.730469 24.605469 C 19.664062 27.167969 19.871094 29.707031 20.355469 32.222656 C 20.839844 34.742188 21.589844 37.179688 22.605469 39.535156 L 37.839844 39.535156 C 38.855469 37.179688 39.609375 34.742188 40.09375 32.222656 C 40.582031 29.707031 40.789062 27.167969 40.722656 24.605469 C 40.65625 22.042969 40.3125 19.519531 39.695312 17.03125 C 39.078125 14.542969 38.199219 12.144531 37.058594 9.84375 C 34.238281 6.578125 32.84375 6.578125 30.234375 6.578125 Z M 30.234375 6.578125 " fill-opacity="1" fill-rule="nonzero"/><path fill="#2f1b39" d="M 37.851562 39.777344 L 22.605469 39.777344 C 22.5 39.777344 22.421875 39.726562 22.382812 39.628906 C 21.355469 37.257812 20.59375 34.804688 20.105469 32.269531 C 19.613281 29.734375 19.402344 27.175781 19.472656 24.597656 C 19.542969 22.019531 19.886719 19.476562 20.511719 16.96875 C 21.136719 14.464844 22.027344 12.054688 23.179688 9.738281 C 23.183594 9.726562 23.191406 9.714844 23.199219 9.703125 C 25.617188 6.335938 27.652344 6.335938 30.234375 6.335938 C 32.886719 6.335938 34.351562 6.335938 37.253906 9.6875 C 37.269531 9.703125 37.28125 9.71875 37.289062 9.738281 C 38.441406 12.054688 39.328125 14.464844 39.953125 16.972656 C 40.574219 19.476562 40.921875 22.019531 40.988281 24.597656 C 41.054688 27.179688 40.84375 29.734375 40.351562 32.269531 C 39.863281 34.804688 39.101562 37.257812 38.074219 39.628906 C 38.03125 39.726562 37.957031 39.777344 37.851562 39.777344 Z M 22.777344 39.292969 L 37.699219 39.292969 C 38.699219 36.964844 39.433594 34.554688 39.90625 32.070312 C 40.378906 29.582031 40.582031 27.074219 40.511719 24.546875 C 40.4375 22.019531 40.097656 19.523438 39.484375 17.070312 C 38.871094 14.613281 38.003906 12.25 36.875 9.976562 C 34.132812 6.832031 32.832031 6.832031 30.246094 6.832031 C 27.621094 6.832031 25.882812 6.832031 23.621094 9.976562 C 22.492188 12.25 21.621094 14.613281 21.007812 17.066406 C 20.394531 19.523438 20.050781 22.015625 19.976562 24.542969 C 19.902344 27.074219 20.105469 29.582031 20.574219 32.066406 C 21.046875 34.554688 21.78125 36.960938 22.777344 39.292969 Z M 22.777344 39.292969 " fill-opacity="1" fill-rule="nonzero"/><path fill="#f44e21" d="M 37.070312 9.84375 C 35.320312 6.324219 33.039062 3.175781 30.234375 0.402344 C 27.425781 3.175781 25.148438 6.324219 23.398438 9.84375 C 23.871094 10.246094 24.375 10.597656 24.910156 10.910156 C 25.445312 11.222656 26.007812 11.484375 26.589844 11.695312 C 27.171875 11.910156 27.769531 12.070312 28.382812 12.175781 C 28.996094 12.285156 29.613281 12.339844 30.234375 12.339844 C 30.855469 12.339844 31.472656 12.285156 32.082031 12.175781 C 32.695312 12.070312 33.292969 11.910156 33.875 11.695312 C 34.460938 11.484375 35.019531 11.222656 35.554688 10.910156 C 36.09375 10.597656 36.597656 10.246094 37.070312 9.84375 Z M 37.070312 9.84375 " fill-opacity="1" fill-rule="nonzero"/><path fill="#2f1b39" d="M 30.234375 12.578125 C 28.953125 12.578125 27.710938 12.359375 26.507812 11.921875 C 25.304688 11.480469 24.214844 10.851562 23.238281 10.027344 C 23.140625 9.945312 23.121094 9.847656 23.179688 9.734375 C 24.941406 6.191406 27.234375 3.023438 30.0625 0.230469 C 30.175781 0.117188 30.289062 0.117188 30.40625 0.230469 C 33.230469 3.023438 35.523438 6.191406 37.285156 9.738281 C 37.339844 9.851562 37.320312 9.949219 37.222656 10.027344 C 36.25 10.851562 35.160156 11.480469 33.957031 11.921875 C 32.757812 12.359375 31.515625 12.578125 30.234375 12.578125 Z M 23.703125 9.78125 C 24.160156 10.152344 24.644531 10.484375 25.160156 10.773438 C 25.671875 11.0625 26.207031 11.304688 26.765625 11.5 C 27.320312 11.699219 27.890625 11.847656 28.472656 11.945312 C 29.054688 12.046875 29.640625 12.097656 30.234375 12.097656 C 30.824219 12.097656 31.410156 12.046875 31.992188 11.945312 C 32.574219 11.847656 33.144531 11.699219 33.703125 11.5 C 34.257812 11.304688 34.792969 11.0625 35.308594 10.773438 C 35.820312 10.484375 36.308594 10.152344 36.765625 9.78125 C 35.074219 6.421875 32.898438 3.410156 30.234375 0.742188 C 27.570312 3.410156 25.390625 6.421875 23.703125 9.78125 Z M 23.703125 9.78125 " fill-opacity="1" fill-rule="nonzero"/><path fill="#8356b2" d="M 35.332031 21.261719 C 35.332031 21.59375 35.296875 21.921875 35.230469 22.246094 C 35.167969 22.570312 35.070312 22.886719 34.941406 23.191406 C 34.8125 23.496094 34.65625 23.789062 34.472656 24.0625 C 34.285156 24.339844 34.074219 24.59375 33.835938 24.828125 C 33.601562 25.0625 33.34375 25.269531 33.066406 25.457031 C 32.789062 25.640625 32.492188 25.792969 32.183594 25.921875 C 31.875 26.046875 31.554688 26.144531 31.226562 26.207031 C 30.898438 26.273438 30.570312 26.304688 30.234375 26.304688 C 29.898438 26.304688 29.566406 26.273438 29.238281 26.207031 C 28.910156 26.144531 28.59375 26.046875 28.285156 25.921875 C 27.976562 25.792969 27.679688 25.640625 27.402344 25.457031 C 27.125 25.269531 26.867188 25.0625 26.632812 24.828125 C 26.394531 24.59375 26.183594 24.339844 25.996094 24.0625 C 25.8125 23.789062 25.65625 23.496094 25.527344 23.191406 C 25.398438 22.886719 25.300781 22.570312 25.234375 22.246094 C 25.171875 21.921875 25.136719 21.59375 25.136719 21.261719 C 25.136719 20.929688 25.171875 20.601562 25.234375 20.277344 C 25.300781 19.953125 25.398438 19.636719 25.527344 19.332031 C 25.65625 19.027344 25.8125 18.734375 25.996094 18.460938 C 26.183594 18.183594 26.394531 17.929688 26.632812 17.695312 C 26.867188 17.460938 27.125 17.253906 27.402344 17.066406 C 27.679688 16.882812 27.976562 16.730469 28.285156 16.601562 C 28.59375 16.476562 28.910156 16.378906 29.238281 16.316406 C 29.566406 16.25 29.898438 16.21875 30.234375 16.21875 C 30.570312 16.21875 30.898438 16.25 31.226562 16.316406 C 31.554688 16.378906 31.875 16.476562 32.183594 16.601562 C 32.492188 16.730469 32.789062 16.882812 33.066406 17.066406 C 33.34375 17.253906 33.601562 17.460938 33.835938 17.695312 C 34.074219 17.929688 34.285156 18.183594 34.472656 18.460938 C 34.65625 18.734375 34.8125 19.027344 34.941406 19.332031 C 35.070312 19.636719 35.167969 19.953125 35.230469 20.277344 C 35.296875 20.601562 35.332031 20.929688 35.332031 21.261719 Z M 35.332031 21.261719 " fill-opacity="1" fill-rule="nonzero"/><path fill="#2f1b39" d="M 30.234375 26.546875 C 29.882812 26.546875 29.535156 26.515625 29.191406 26.445312 C 28.847656 26.378906 28.511719 26.277344 28.1875 26.144531 C 27.863281 26.011719 27.554688 25.851562 27.265625 25.660156 C 26.972656 25.464844 26.703125 25.246094 26.453125 25 C 26.207031 24.753906 25.984375 24.488281 25.789062 24.199219 C 25.59375 23.910156 25.429688 23.605469 25.292969 23.285156 C 25.160156 22.964844 25.058594 22.632812 24.988281 22.292969 C 24.921875 21.953125 24.886719 21.609375 24.886719 21.261719 C 24.886719 20.914062 24.921875 20.570312 24.988281 20.230469 C 25.058594 19.890625 25.160156 19.558594 25.292969 19.238281 C 25.425781 18.917969 25.589844 18.613281 25.785156 18.324219 C 25.980469 18.035156 26.203125 17.765625 26.449219 17.519531 C 26.699219 17.273438 26.96875 17.054688 27.261719 16.863281 C 27.550781 16.667969 27.859375 16.507812 28.183594 16.375 C 28.507812 16.242188 28.84375 16.140625 29.1875 16.074219 C 29.53125 16.003906 29.878906 15.972656 30.230469 15.972656 C 30.582031 15.972656 30.929688 16.003906 31.273438 16.074219 C 31.617188 16.140625 31.949219 16.242188 32.273438 16.375 C 32.597656 16.507812 32.90625 16.667969 33.199219 16.863281 C 33.492188 17.054688 33.761719 17.273438 34.007812 17.519531 C 34.257812 17.765625 34.476562 18.035156 34.671875 18.324219 C 34.867188 18.609375 35.03125 18.917969 35.167969 19.238281 C 35.300781 19.558594 35.402344 19.890625 35.46875 20.230469 C 35.539062 20.570312 35.574219 20.914062 35.574219 21.261719 C 35.570312 21.609375 35.539062 21.953125 35.46875 22.292969 C 35.398438 22.632812 35.296875 22.960938 35.164062 23.28125 C 35.03125 23.601562 34.867188 23.90625 34.671875 24.195312 C 34.476562 24.484375 34.253906 24.75 34.007812 24.996094 C 33.757812 25.242188 33.488281 25.460938 33.199219 25.652344 C 32.90625 25.847656 32.601562 26.007812 32.277344 26.140625 C 31.953125 26.273438 31.617188 26.375 31.273438 26.445312 C 30.933594 26.511719 30.585938 26.546875 30.234375 26.546875 Z M 30.234375 16.457031 C 29.914062 16.457031 29.601562 16.488281 29.285156 16.550781 C 28.972656 16.609375 28.671875 16.703125 28.375 16.820312 C 28.082031 16.941406 27.800781 17.089844 27.535156 17.265625 C 27.269531 17.441406 27.027344 17.640625 26.800781 17.863281 C 26.574219 18.085938 26.375 18.328125 26.195312 18.589844 C 26.019531 18.851562 25.867188 19.128906 25.746094 19.417969 C 25.625 19.710938 25.53125 20.011719 25.46875 20.320312 C 25.40625 20.628906 25.375 20.941406 25.375 21.257812 C 25.375 21.574219 25.40625 21.886719 25.46875 22.195312 C 25.53125 22.503906 25.621094 22.804688 25.742188 23.097656 C 25.867188 23.390625 26.015625 23.664062 26.191406 23.929688 C 26.371094 24.191406 26.570312 24.433594 26.796875 24.65625 C 27.019531 24.878906 27.265625 25.078125 27.53125 25.253906 C 27.796875 25.429688 28.074219 25.578125 28.371094 25.699219 C 28.664062 25.820312 28.96875 25.910156 29.28125 25.972656 C 29.59375 26.035156 29.910156 26.066406 30.226562 26.066406 C 30.546875 26.066406 30.863281 26.035156 31.175781 25.972656 C 31.488281 25.910156 31.792969 25.820312 32.085938 25.699219 C 32.378906 25.578125 32.660156 25.429688 32.925781 25.257812 C 33.191406 25.082031 33.433594 24.882812 33.660156 24.660156 C 33.886719 24.4375 34.085938 24.191406 34.265625 23.929688 C 34.441406 23.667969 34.589844 23.390625 34.714844 23.101562 C 34.835938 22.808594 34.925781 22.507812 34.988281 22.199219 C 35.050781 21.890625 35.082031 21.578125 35.082031 21.261719 C 35.082031 20.945312 35.050781 20.632812 34.988281 20.324219 C 34.929688 20.015625 34.835938 19.714844 34.714844 19.421875 C 34.59375 19.132812 34.441406 18.855469 34.265625 18.59375 C 34.089844 18.332031 33.886719 18.089844 33.664062 17.863281 C 33.4375 17.640625 33.195312 17.441406 32.929688 17.265625 C 32.664062 17.089844 32.382812 16.941406 32.089844 16.820312 C 31.796875 16.699219 31.492188 16.609375 31.179688 16.546875 C 30.867188 16.484375 30.554688 16.453125 30.234375 16.453125 Z M 30.234375 16.457031 " fill-opacity="1" fill-rule="nonzero"/><path fill="#f4f3c1" d="M 33.15625 21.261719 C 33.15625 21.648438 33.082031 22.019531 32.929688 22.375 C 32.78125 22.730469 32.570312 23.046875 32.292969 23.320312 C 32.019531 23.59375 31.699219 23.800781 31.339844 23.949219 C 30.980469 24.097656 30.605469 24.171875 30.214844 24.171875 C 29.824219 24.171875 29.449219 24.097656 29.089844 23.949219 C 28.730469 23.800781 28.410156 23.59375 28.136719 23.320312 C 27.859375 23.046875 27.648438 22.730469 27.496094 22.375 C 27.347656 22.019531 27.273438 21.648438 27.273438 21.261719 C 27.273438 20.875 27.347656 20.503906 27.496094 20.148438 C 27.648438 19.792969 27.859375 19.476562 28.136719 19.203125 C 28.410156 18.929688 28.730469 18.71875 29.089844 18.574219 C 29.449219 18.425781 29.824219 18.351562 30.214844 18.351562 C 30.605469 18.351562 30.980469 18.425781 31.339844 18.574219 C 31.699219 18.71875 32.019531 18.929688 32.292969 19.203125 C 32.570312 19.476562 32.78125 19.792969 32.929688 20.148438 C 33.082031 20.503906 33.15625 20.875 33.15625 21.261719 Z M 33.15625 21.261719 " fill-opacity="1" fill-rule="nonzero"/><path fill="#2f1b39" d="M 30.214844 24.414062 C 29.792969 24.414062 29.386719 24.335938 28.996094 24.175781 C 28.609375 24.015625 28.265625 23.789062 27.964844 23.492188 C 27.667969 23.195312 27.4375 22.855469 27.277344 22.472656 C 27.113281 22.085938 27.035156 21.683594 27.035156 21.265625 C 27.035156 20.847656 27.113281 20.449219 27.277344 20.0625 C 27.4375 19.675781 27.667969 19.335938 27.964844 19.039062 C 28.265625 18.746094 28.609375 18.519531 28.996094 18.359375 C 29.386719 18.199219 29.792969 18.117188 30.214844 18.117188 C 30.636719 18.117188 31.042969 18.199219 31.433594 18.359375 C 31.820312 18.519531 32.164062 18.746094 32.464844 19.039062 C 32.761719 19.335938 32.992188 19.675781 33.152344 20.0625 C 33.3125 20.449219 33.394531 20.847656 33.394531 21.265625 C 33.394531 21.683594 33.3125 22.085938 33.152344 22.472656 C 32.992188 22.855469 32.761719 23.195312 32.464844 23.492188 C 32.164062 23.789062 31.820312 24.015625 31.433594 24.175781 C 31.042969 24.335938 30.636719 24.414062 30.214844 24.414062 Z M 30.214844 18.601562 C 29.859375 18.601562 29.515625 18.671875 29.183594 18.804688 C 28.855469 18.941406 28.5625 19.132812 28.3125 19.382812 C 28.058594 19.632812 27.863281 19.921875 27.726562 20.246094 C 27.59375 20.574219 27.523438 20.914062 27.523438 21.265625 C 27.523438 21.621094 27.59375 21.960938 27.726562 22.285156 C 27.863281 22.613281 28.058594 22.898438 28.3125 23.148438 C 28.5625 23.398438 28.855469 23.59375 29.183594 23.726562 C 29.515625 23.863281 29.859375 23.929688 30.214844 23.929688 C 30.570312 23.929688 30.914062 23.863281 31.246094 23.726562 C 31.574219 23.59375 31.863281 23.398438 32.117188 23.148438 C 32.371094 22.898438 32.5625 22.613281 32.699219 22.285156 C 32.835938 21.960938 32.90625 21.621094 32.90625 21.265625 C 32.90625 20.914062 32.839844 20.570312 32.703125 20.246094 C 32.566406 19.917969 32.375 19.628906 32.121094 19.375 C 31.867188 19.125 31.578125 18.933594 31.246094 18.796875 C 30.917969 18.660156 30.574219 18.59375 30.214844 18.59375 Z M 30.214844 18.601562 " fill-opacity="1" fill-rule="nonzero"/><path fill="#8356b2" d="M 39.132812 53.230469 C 39.308594 52.941406 39.433594 52.632812 39.507812 52.300781 C 39.585938 51.972656 39.605469 51.640625 39.574219 51.304688 C 39.542969 50.96875 39.460938 50.644531 39.328125 50.335938 C 39.191406 50.027344 39.011719 49.746094 38.785156 49.492188 C 38.5625 49.238281 38.300781 49.027344 38.007812 48.855469 C 37.714844 48.683594 37.402344 48.5625 37.066406 48.488281 C 36.734375 48.417969 36.398438 48.398438 36.058594 48.429688 C 35.71875 48.464844 35.394531 48.550781 35.082031 48.683594 L 35.082031 44.644531 L 25.964844 44.644531 L 25.964844 49.625 C 25.769531 49.851562 25.605469 50.101562 25.476562 50.371094 C 25.234375 50.199219 24.976562 50.058594 24.703125 49.949219 C 24.429688 49.835938 24.144531 49.757812 23.851562 49.710938 C 23.558594 49.667969 23.261719 49.65625 22.96875 49.679688 C 22.671875 49.703125 22.382812 49.761719 22.101562 49.851562 C 21.816406 49.945312 21.550781 50.066406 21.296875 50.21875 C 21.042969 50.375 20.8125 50.554688 20.601562 50.761719 C 20.394531 50.972656 20.210938 51.199219 20.054688 51.449219 C 19.902344 51.703125 19.777344 51.964844 19.6875 52.246094 C 19.59375 52.527344 19.535156 52.8125 19.511719 53.105469 C 19.488281 53.398438 19.5 53.6875 19.546875 53.980469 C 19.59375 54.269531 19.671875 54.550781 19.785156 54.824219 C 19.898438 55.09375 20.042969 55.347656 20.21875 55.585938 C 20.390625 55.824219 20.589844 56.039062 20.816406 56.230469 C 21.042969 56.421875 21.285156 56.585938 21.550781 56.71875 C 21.8125 56.851562 22.089844 56.957031 22.378906 57.023438 C 22.667969 57.09375 22.960938 57.128906 23.257812 57.128906 C 23.453125 57.128906 23.652344 57.113281 23.847656 57.078125 C 23.964844 57.453125 24.140625 57.796875 24.367188 58.117188 C 24.597656 58.433594 24.875 58.707031 25.191406 58.9375 C 25.511719 59.167969 25.859375 59.339844 26.234375 59.460938 C 26.613281 59.578125 26.996094 59.636719 27.390625 59.632812 C 27.785156 59.632812 28.171875 59.566406 28.546875 59.441406 C 28.917969 59.316406 29.261719 59.132812 29.578125 58.898438 C 29.894531 58.664062 30.164062 58.386719 30.386719 58.0625 C 30.613281 57.742188 30.78125 57.394531 30.890625 57.019531 C 31.398438 57.386719 31.960938 57.597656 32.585938 57.65625 C 33.210938 57.714844 33.804688 57.613281 34.371094 57.351562 C 34.476562 57.582031 34.609375 57.796875 34.769531 57.996094 C 34.925781 58.195312 35.105469 58.375 35.304688 58.535156 C 35.503906 58.691406 35.722656 58.824219 35.953125 58.933594 C 36.183594 59.042969 36.425781 59.125 36.675781 59.175781 C 36.925781 59.230469 37.179688 59.253906 37.433594 59.25 C 37.691406 59.242188 37.945312 59.207031 38.191406 59.144531 C 38.441406 59.082031 38.675781 58.988281 38.902344 58.871094 C 39.128906 58.753906 39.339844 58.609375 39.53125 58.445312 C 39.726562 58.277344 39.898438 58.089844 40.046875 57.882812 C 40.195312 57.679688 40.316406 57.457031 40.414062 57.222656 C 40.511719 56.988281 40.582031 56.746094 40.621094 56.496094 C 40.660156 56.246094 40.671875 55.992188 40.652344 55.738281 C 40.632812 55.488281 40.582031 55.238281 40.503906 55 C 40.425781 54.757812 40.324219 54.527344 40.191406 54.308594 C 40.058594 54.09375 39.902344 53.894531 39.722656 53.710938 C 39.546875 53.53125 39.347656 53.371094 39.132812 53.234375 Z M 39.132812 53.230469 " fill-opacity="1" fill-rule="nonzero"/><path fill="#2f1b39" d="M 27.363281 59.867188 C 26.960938 59.867188 26.570312 59.808594 26.191406 59.691406 C 25.808594 59.574219 25.453125 59.402344 25.125 59.175781 C 24.796875 58.949219 24.511719 58.679688 24.269531 58.367188 C 24.023438 58.054688 23.832031 57.710938 23.691406 57.339844 C 23.550781 57.355469 23.410156 57.367188 23.269531 57.367188 C 23 57.371094 22.734375 57.351562 22.472656 57.304688 C 22.207031 57.261719 21.953125 57.1875 21.703125 57.089844 C 21.453125 56.996094 21.214844 56.875 20.988281 56.730469 C 20.765625 56.585938 20.558594 56.421875 20.363281 56.238281 C 20.171875 56.050781 20 55.847656 19.851562 55.628906 C 19.699219 55.410156 19.574219 55.179688 19.46875 54.933594 C 19.363281 54.691406 19.285156 54.4375 19.234375 54.179688 C 19.179688 53.917969 19.152344 53.65625 19.152344 53.390625 C 19.152344 53.125 19.179688 52.863281 19.234375 52.601562 C 19.285156 52.34375 19.363281 52.089844 19.46875 51.847656 C 19.574219 51.601562 19.699219 51.371094 19.851562 51.152344 C 20 50.933594 20.171875 50.730469 20.363281 50.546875 C 20.558594 50.359375 20.765625 50.195312 20.988281 50.050781 C 21.214844 49.90625 21.453125 49.789062 21.703125 49.691406 C 21.953125 49.59375 22.207031 49.523438 22.472656 49.476562 C 22.734375 49.429688 23 49.410156 23.269531 49.417969 C 24.039062 49.414062 24.75 49.621094 25.402344 50.027344 C 25.5 49.859375 25.609375 49.695312 25.734375 49.542969 L 25.734375 44.644531 C 25.734375 44.484375 25.8125 44.402344 25.976562 44.402344 L 35.082031 44.402344 C 35.246094 44.402344 35.328125 44.484375 35.328125 44.644531 L 35.328125 48.335938 C 35.667969 48.226562 36.019531 48.171875 36.378906 48.171875 C 36.671875 48.171875 36.964844 48.207031 37.253906 48.28125 C 37.539062 48.355469 37.8125 48.464844 38.070312 48.605469 C 38.328125 48.75 38.566406 48.921875 38.78125 49.125 C 38.992188 49.328125 39.175781 49.554688 39.332031 49.804688 C 39.488281 50.058594 39.605469 50.324219 39.691406 50.601562 C 39.777344 50.882812 39.828125 51.171875 39.839844 51.464844 C 39.847656 51.757812 39.824219 52.046875 39.757812 52.332031 C 39.695312 52.621094 39.59375 52.894531 39.460938 53.15625 C 39.675781 53.308594 39.867188 53.484375 40.042969 53.683594 C 40.21875 53.882812 40.367188 54.097656 40.492188 54.328125 C 40.617188 54.5625 40.714844 54.804688 40.785156 55.054688 C 40.855469 55.308594 40.898438 55.566406 40.910156 55.832031 C 40.921875 56.09375 40.902344 56.351562 40.855469 56.613281 C 40.808594 56.871094 40.730469 57.121094 40.628906 57.363281 C 40.523438 57.601562 40.390625 57.832031 40.238281 58.042969 C 40.082031 58.253906 39.902344 58.449219 39.703125 58.621094 C 39.503906 58.792969 39.285156 58.941406 39.054688 59.066406 C 38.820312 59.191406 38.574219 59.289062 38.320312 59.359375 C 38.0625 59.429688 37.800781 59.472656 37.539062 59.484375 C 37.273438 59.496094 37.007812 59.480469 36.746094 59.433594 C 36.484375 59.386719 36.234375 59.3125 35.988281 59.210938 C 35.746094 59.105469 35.515625 58.980469 35.300781 58.824219 C 35.085938 58.671875 34.890625 58.496094 34.714844 58.296875 C 34.539062 58.101562 34.386719 57.886719 34.261719 57.65625 C 33.730469 57.859375 33.179688 57.9375 32.613281 57.890625 C 32.042969 57.84375 31.515625 57.675781 31.027344 57.386719 C 30.882812 57.753906 30.6875 58.085938 30.441406 58.394531 C 30.195312 58.699219 29.90625 58.964844 29.582031 59.1875 C 29.253906 59.40625 28.902344 59.578125 28.523438 59.691406 C 28.144531 59.808594 27.757812 59.867188 27.363281 59.867188 Z M 23.847656 56.832031 C 23.972656 56.824219 24.054688 56.882812 24.089844 57.003906 C 24.199219 57.351562 24.359375 57.679688 24.574219 57.976562 C 24.785156 58.277344 25.042969 58.535156 25.339844 58.753906 C 25.640625 58.972656 25.964844 59.136719 26.316406 59.25 C 26.671875 59.363281 27.03125 59.417969 27.402344 59.414062 C 27.773438 59.410156 28.132812 59.347656 28.484375 59.230469 C 28.835938 59.109375 29.15625 58.9375 29.449219 58.714844 C 29.746094 58.492188 29.996094 58.230469 30.203125 57.925781 C 30.414062 57.625 30.566406 57.292969 30.667969 56.941406 C 30.691406 56.863281 30.742188 56.808594 30.824219 56.78125 C 30.902344 56.753906 30.976562 56.765625 31.046875 56.816406 C 31.515625 57.15625 32.035156 57.351562 32.613281 57.410156 C 33.191406 57.464844 33.742188 57.371094 34.269531 57.128906 C 34.417969 57.0625 34.527344 57.101562 34.59375 57.25 C 34.691406 57.464844 34.816406 57.664062 34.960938 57.847656 C 35.105469 58.035156 35.269531 58.199219 35.457031 58.347656 C 35.640625 58.496094 35.839844 58.621094 36.054688 58.722656 C 36.269531 58.824219 36.492188 58.898438 36.726562 58.949219 C 36.957031 58.996094 37.191406 59.019531 37.429688 59.015625 C 37.667969 59.011719 37.902344 58.980469 38.132812 58.921875 C 38.363281 58.859375 38.582031 58.777344 38.792969 58.667969 C 39.003906 58.558594 39.195312 58.425781 39.375 58.269531 C 39.554688 58.117188 39.714844 57.941406 39.851562 57.75 C 39.988281 57.558594 40.105469 57.355469 40.195312 57.136719 C 40.285156 56.921875 40.347656 56.695312 40.382812 56.464844 C 40.421875 56.230469 40.429688 55.996094 40.410156 55.761719 C 40.394531 55.527344 40.347656 55.300781 40.273438 55.074219 C 40.203125 54.851562 40.105469 54.636719 39.980469 54.4375 C 39.859375 54.234375 39.714844 54.050781 39.546875 53.882812 C 39.382812 53.714844 39.199219 53.570312 38.996094 53.441406 C 38.863281 53.359375 38.835938 53.25 38.917969 53.113281 C 39.082031 52.847656 39.203125 52.558594 39.273438 52.253906 C 39.347656 51.949219 39.367188 51.640625 39.339844 51.328125 C 39.3125 51.015625 39.238281 50.71875 39.113281 50.429688 C 38.988281 50.140625 38.824219 49.878906 38.613281 49.644531 C 38.40625 49.410156 38.164062 49.210938 37.890625 49.050781 C 37.617188 48.894531 37.328125 48.78125 37.019531 48.710938 C 36.710938 48.644531 36.398438 48.628906 36.082031 48.660156 C 35.765625 48.691406 35.464844 48.769531 35.175781 48.898438 C 35.09375 48.933594 35.015625 48.925781 34.945312 48.878906 C 34.871094 48.832031 34.832031 48.765625 34.832031 48.679688 L 34.832031 44.886719 L 26.210938 44.886719 L 26.210938 49.625 C 26.210938 49.683594 26.191406 49.738281 26.152344 49.78125 C 25.972656 49.996094 25.820312 50.226562 25.699219 50.476562 C 25.667969 50.546875 25.613281 50.589844 25.539062 50.609375 C 25.464844 50.625 25.394531 50.613281 25.335938 50.566406 C 25.109375 50.402344 24.867188 50.265625 24.613281 50.160156 C 24.355469 50.050781 24.089844 49.976562 23.8125 49.929688 C 23.539062 49.886719 23.261719 49.871094 22.980469 49.894531 C 22.703125 49.914062 22.433594 49.964844 22.164062 50.050781 C 21.898438 50.132812 21.648438 50.246094 21.410156 50.390625 C 21.171875 50.535156 20.953125 50.703125 20.753906 50.898438 C 20.554688 51.09375 20.382812 51.308594 20.238281 51.542969 C 20.089844 51.777344 19.976562 52.027344 19.886719 52.289062 C 19.800781 52.550781 19.746094 52.820312 19.726562 53.097656 C 19.703125 53.371094 19.714844 53.644531 19.757812 53.917969 C 19.800781 54.191406 19.875 54.457031 19.984375 54.710938 C 20.089844 54.964844 20.226562 55.207031 20.390625 55.429688 C 20.554688 55.652344 20.742188 55.851562 20.957031 56.03125 C 21.167969 56.210938 21.402344 56.363281 21.648438 56.488281 C 21.898438 56.613281 22.160156 56.707031 22.429688 56.769531 C 22.703125 56.832031 22.976562 56.863281 23.257812 56.863281 C 23.441406 56.859375 23.625 56.84375 23.808594 56.816406 Z M 23.847656 56.832031 " fill-opacity="1" fill-rule="nonzero"/><g fill="#b99df3" fill-opacity="1"><g transform="translate(19.066385, 26.611626)"><g><path d="M -0.015625 -0.125 L -3.609375 -0.640625 L -3.671875 -1.6875 C -3.691406 -2.019531 -3.648438 -2.289062 -3.546875 -2.5 C -3.441406 -2.71875 -3.25 -2.835938 -2.96875 -2.859375 C -2.726562 -2.878906 -2.523438 -2.828125 -2.359375 -2.703125 C -2.191406 -2.578125 -2.078125 -2.390625 -2.015625 -2.140625 L -1.984375 -2.140625 C -1.953125 -2.304688 -1.878906 -2.441406 -1.765625 -2.546875 C -1.660156 -2.648438 -1.519531 -2.707031 -1.34375 -2.71875 C -1.070312 -2.738281 -0.847656 -2.691406 -0.671875 -2.578125 C -0.492188 -2.472656 -0.359375 -2.316406 -0.265625 -2.109375 C -0.171875 -1.898438 -0.113281 -1.664062 -0.09375 -1.40625 Z M -2.234375 -1.1875 L -2.25 -1.546875 C -2.257812 -1.722656 -2.304688 -1.863281 -2.390625 -1.96875 C -2.472656 -2.070312 -2.597656 -2.117188 -2.765625 -2.109375 C -2.984375 -2.085938 -3.082031 -1.9375 -3.0625 -1.65625 L -3.03125 -1.296875 Z M -0.6875 -0.953125 L -0.71875 -1.390625 C -0.726562 -1.578125 -0.78125 -1.722656 -0.875 -1.828125 C -0.976562 -1.929688 -1.117188 -1.976562 -1.296875 -1.96875 C -1.421875 -1.957031 -1.515625 -1.910156 -1.578125 -1.828125 C -1.640625 -1.753906 -1.664062 -1.644531 -1.65625 -1.5 L -1.625 -1.09375 Z M -0.6875 -0.953125 "/></g></g></g><g fill="#b99df3" fill-opacity="1"><g transform="translate(18.863152, 22.543251)"><g><path d="M 0.015625 -0.125 L -3.484375 -1.140625 L -3.40625 -2.1875 C -3.375 -2.519531 -3.285156 -2.78125 -3.140625 -2.96875 C -3.003906 -3.164062 -2.800781 -3.253906 -2.53125 -3.234375 C -2.289062 -3.210938 -2.097656 -3.128906 -1.953125 -2.984375 C -1.804688 -2.847656 -1.71875 -2.65625 -1.6875 -2.40625 L -1.65625 -2.40625 C -1.601562 -2.5625 -1.515625 -2.679688 -1.390625 -2.765625 C -1.273438 -2.859375 -1.128906 -2.898438 -0.953125 -2.890625 C -0.679688 -2.867188 -0.460938 -2.789062 -0.296875 -2.65625 C -0.140625 -2.519531 -0.03125 -2.34375 0.03125 -2.125 C 0.101562 -1.90625 0.128906 -1.664062 0.109375 -1.40625 Z M -2.046875 -1.484375 L -2.015625 -1.84375 C -2.003906 -2.019531 -2.03125 -2.164062 -2.09375 -2.28125 C -2.15625 -2.394531 -2.269531 -2.457031 -2.4375 -2.46875 C -2.644531 -2.488281 -2.757812 -2.359375 -2.78125 -2.078125 L -2.8125 -1.71875 Z M -0.546875 -1.046875 L -0.515625 -1.484375 C -0.503906 -1.671875 -0.535156 -1.820312 -0.609375 -1.9375 C -0.691406 -2.050781 -0.820312 -2.117188 -1 -2.140625 C -1.125 -2.140625 -1.222656 -2.101562 -1.296875 -2.03125 C -1.367188 -1.96875 -1.410156 -1.863281 -1.421875 -1.71875 L -1.453125 -1.3125 Z M -0.546875 -1.046875 "/></g></g></g><g fill="#b99df3" fill-opacity="1"><g transform="translate(19.24739, 18.478973)"><g><path d="M 0.03125 -0.125 L -3.296875 -1.609375 L -2.890625 -3.5625 L -2.3125 -3.28125 L -2.5625 -2.078125 L -1.828125 -1.75 L -1.59375 -2.890625 L -1.03125 -2.640625 L -1.265625 -1.5 L -0.40625 -1.109375 L -0.140625 -2.328125 L 0.4375 -2.078125 Z M 0.03125 -0.125 "/></g></g></g><g fill="#b99df3" fill-opacity="1"><g transform="translate(20.071321, 14.876153)"><g><path d="M 0.046875 -0.125 L -3.0625 -2.03125 L -2.71875 -2.96875 C -2.625 -3.238281 -2.503906 -3.4375 -2.359375 -3.5625 C -2.222656 -3.695312 -2.066406 -3.773438 -1.890625 -3.796875 C -1.710938 -3.816406 -1.53125 -3.789062 -1.34375 -3.71875 C -1.070312 -3.625 -0.875 -3.484375 -0.75 -3.296875 C -0.625 -3.109375 -0.554688 -2.890625 -0.546875 -2.640625 C -0.535156 -2.390625 -0.578125 -2.125 -0.671875 -1.84375 L -0.796875 -1.5 L 0.296875 -0.828125 Z M -1.359375 -1.828125 L -1.25 -2.125 C -1.175781 -2.332031 -1.164062 -2.515625 -1.21875 -2.671875 C -1.28125 -2.835938 -1.398438 -2.953125 -1.578125 -3.015625 C -1.847656 -3.109375 -2.035156 -3.007812 -2.140625 -2.71875 L -2.265625 -2.390625 Z M -1.359375 -1.828125 "/></g></g></g><g fill="#b99df3" fill-opacity="1"><g transform="translate(21.495239, 11.10986)"><g><path d="M -0.125 0.25 L -1.125 -1.84375 L -2.90625 -2.125 L -2.546875 -2.8125 L -1.25 -2.5625 L -1.953125 -3.9375 L -1.578125 -4.671875 L -0.625 -2.6875 L 1.265625 -2.421875 L 0.890625 -1.703125 L -0.46875 -1.96875 L 0.25 -0.484375 Z M -0.125 0.25 "/></g></g></g><path stroke-linecap="butt" transform="matrix(-0.0277819, -0.414758, 0.414758, -0.0277819, 14.242827, 27.087417)" fill="none" stroke-linejoin="miter" d="M 0.312104 11.000907 L 2.120049 2.429072 L 4.616011 2.426733 C 5.434869 2.434492 6.093661 2.58222 6.59176 2.879292 C 7.080482 3.175736 7.330362 3.66338 7.332023 4.341597 C 7.330589 4.925425 7.166666 5.404188 6.840255 5.777885 C 6.513215 6.160959 6.053699 6.412723 5.461706 6.533178 L 5.457938 6.589434 C 5.846708 6.69082 6.163566 6.881571 6.399134 7.161058 C 6.625955 7.430541 6.743986 7.777499 6.743853 8.201307 C 6.747398 8.851395 6.599087 9.378294 6.298292 9.79138 C 6.006872 10.205094 5.600472 10.507507 5.08784 10.708622 C 4.575835 10.900362 4.003851 11.003321 3.373142 10.998746 Z M 3.192248 5.825492 L 4.06799 5.827643 C 4.491797 5.827777 4.836244 5.74725 5.093211 5.566681 C 5.358925 5.396117 5.481531 5.112368 5.488529 4.726693 C 5.486823 4.189745 5.156237 3.92273 4.488024 3.915643 L 3.602278 3.92224 Z M 2.409109 9.502616 L 3.464252 9.497948 C 3.906812 9.499337 4.262519 9.39131 4.531373 9.173865 C 4.800856 8.947045 4.934722 8.635795 4.934228 8.221364 C 4.926825 7.91007 4.838761 7.678136 4.670664 7.516186 C 4.493192 7.353608 4.225682 7.269762 3.868136 7.264649 L 2.888629 7.264965 Z M 2.409109 9.502616 " stroke="#7843e6" stroke-width="0.45" stroke-opacity="1" stroke-miterlimit="4"/><path stroke-linecap="butt" transform="matrix(0.0310327, -0.414528, 0.414528, 0.0310327, 14.042132, 22.372083)" fill="none" stroke-linejoin="miter" d="M 0.307917 11.004314 L 2.125841 2.4343 L 4.622446 2.426441 C 5.433251 2.431706 6.094572 2.580088 6.587668 2.872992 C 7.081466 3.175266 7.334878 3.665157 7.329163 4.344068 C 7.335174 4.927867 7.172761 5.401771 6.843327 5.784521 C 6.513191 6.157901 6.051412 6.409209 5.457992 6.538444 L 5.461499 6.585298 C 5.855526 6.687728 6.162157 6.88151 6.399434 7.155871 C 6.627341 7.430934 6.747707 7.780011 6.741793 8.204506 C 6.743344 8.854602 6.594511 9.38403 6.295294 9.792788 C 6.005447 10.200845 5.604805 10.51354 5.091261 10.702759 C 4.57842 10.901349 4.001636 11.001069 3.370281 11.001217 Z M 3.190599 5.831814 L 4.066999 5.832168 C 4.490792 5.828712 4.833304 5.74653 5.093133 5.566881 C 5.353663 5.396603 5.483253 5.113624 5.482603 4.727314 C 5.480099 4.190369 5.149113 3.923023 4.488944 3.915905 L 3.603173 3.916253 Z M 2.409749 9.499422 L 3.464897 9.495818 C 3.908133 9.50033 4.257911 9.389334 4.533676 9.170798 C 4.800069 8.952965 4.926853 8.632502 4.933469 8.217378 C 4.929761 7.916108 4.845926 7.677376 4.663921 7.511958 C 4.491288 7.345837 4.221889 7.271772 3.863692 7.270317 L 2.892881 7.267608 Z M 2.409749 9.499422 " stroke="#7843e6" stroke-width="0.45" stroke-opacity="1" stroke-miterlimit="4"/><path stroke-linecap="butt" transform="matrix(0.0866201, -0.406563, 0.406563, 0.0866201, 14.513984, 17.696343)" fill="none" stroke-linejoin="miter" d="M 0.308619 10.997075 L 2.125552 2.433573 L 6.91013 2.432642 L 6.602534 3.920159 L 3.60381 3.915316 L 3.209105 5.805711 L 6.005031 5.805721 L 5.677095 7.287964 L 2.881169 7.287954 L 2.411262 9.501826 L 5.408027 9.497478 L 5.104347 11.003377 Z M 0.308619 10.997075 " stroke="#7843e6" stroke-width="0.45" stroke-opacity="1" stroke-miterlimit="4"/><path stroke-linecap="butt" transform="matrix(0.140305, -0.391294, 0.391294, 0.140305, 15.505874, 13.502988)" fill="none" stroke-linejoin="miter" d="M 0.309843 11.004831 L 2.125831 2.427249 L 4.512705 2.429925 C 5.211192 2.429043 5.769489 2.538327 6.184423 2.74893 C 6.605031 2.947515 6.911985 3.246751 7.09577 3.6201 C 7.288401 3.990276 7.375554 4.428223 7.383766 4.924424 C 7.378304 5.60522 7.212775 6.173701 6.884007 6.621023 C 6.555239 7.068344 6.113804 7.396337 5.545182 7.620192 C 4.985406 7.840875 4.35786 7.956081 3.647355 7.951288 L 2.737735 7.948012 L 2.105047 11.000036 Z M 3.055084 6.466563 L 3.792126 6.46184 C 4.333224 6.467478 4.764158 6.332925 5.088098 6.067028 C 5.412038 5.80113 5.582254 5.440609 5.583557 4.970945 C 5.582675 4.272457 5.197274 3.921487 4.439369 3.923708 L 3.598012 3.915921 Z M 3.055084 6.466563 " stroke="#7843e6" stroke-width="0.45" stroke-opacity="1" stroke-miterlimit="4"/><path stroke-linecap="butt" transform="matrix(0.1934, -0.367958, 0.367958, 0.1934, 17.186491, 9.152654)" fill="none" stroke-linejoin="miter" d="M -0.68317 10.999078 L 2.685416 6.521453 L 1.299425 2.430257 L 3.170005 2.434365 L 4.063775 5.467886 L 6.192089 2.427737 L 8.209727 2.428863 L 5.017211 6.675938 L 6.588643 10.998762 L 4.64672 11.000304 L 3.632238 7.817909 L 1.321777 10.996259 Z M -0.68317 10.999078 " stroke="#7843e6" stroke-width="0.45" stroke-opacity="1" stroke-miterlimit="4"/></svg>