<svg xmlns="http://www.w3.org/2000/svg" xmlns:xlink="http://www.w3.org/1999/xlink" width="500" zoomAndPan="magnify" viewBox="0 0 375 374.999991" height="500" preserveAspectRatio="xMidYMid meet" version="1.0"><defs><clipPath id="a6bd965b4a"><path d="M 0 0 L 328.5 0 L 328.5 123 L 0 123 Z M 0 0 " clip-rule="nonzero"/></clipPath><clipPath id="5a7d3a1ab2"><path d="M 46 128 L 328.5 128 L 328.5 375 L 46 375 Z M 46 128 " clip-rule="nonzero"/></clipPath><clipPath id="a5d2dbf5e4"><path d="M 316 105 L 328.5 105 L 328.5 118 L 316 118 Z M 316 105 " clip-rule="nonzero"/></clipPath></defs><path fill="#59caff" d="M 252.242188 5.578125 L 322.632812 76.03125 L 252.242188 76.03125 Z M 252.242188 5.578125 " fill-opacity="1" fill-rule="nonzero"/><path fill="#0096dc" d="M 322.632812 76.03125 L 322.632812 369.585938 L 52.796875 369.585938 L 52.796875 5.578125 L 252.242188 5.578125 L 252.242188 76.03125 Z M 322.632812 76.03125 " fill-opacity="1" fill-rule="nonzero"/><path fill="#006bc0" d="M 64.527344 52.546875 L 64.527344 334.359375 C 64.527344 335.128906 64.566406 335.898438 64.640625 336.660156 C 64.714844 337.425781 64.828125 338.1875 64.976562 338.941406 C 65.128906 339.695312 65.316406 340.441406 65.539062 341.175781 C 65.761719 341.914062 66.019531 342.636719 66.3125 343.347656 C 66.605469 344.058594 66.9375 344.753906 67.296875 345.429688 C 67.660156 346.109375 68.054688 346.769531 68.480469 347.40625 C 68.910156 348.046875 69.367188 348.664062 69.851562 349.257812 C 70.339844 349.851562 70.855469 350.421875 71.398438 350.964844 C 71.941406 351.511719 72.511719 352.027344 73.105469 352.515625 C 73.699219 353 74.316406 353.460938 74.957031 353.886719 C 75.59375 354.3125 76.253906 354.707031 76.929688 355.070312 C 77.609375 355.433594 78.300781 355.761719 79.011719 356.058594 C 79.722656 356.351562 80.445312 356.609375 81.179688 356.832031 C 81.914062 357.054688 82.660156 357.242188 83.414062 357.394531 C 84.167969 357.542969 84.925781 357.65625 85.691406 357.730469 C 86.457031 357.808594 87.222656 357.84375 87.992188 357.84375 L 287.4375 357.84375 C 288.207031 357.84375 288.972656 357.808594 289.738281 357.730469 C 290.5 357.65625 291.261719 357.542969 292.015625 357.394531 C 292.769531 357.242188 293.511719 357.054688 294.25 356.832031 C 294.984375 356.609375 295.707031 356.351562 296.417969 356.058594 C 297.125 355.761719 297.820312 355.433594 298.496094 355.070312 C 299.175781 354.707031 299.832031 354.3125 300.472656 353.886719 C 301.113281 353.460938 301.726562 353 302.324219 352.515625 C 302.917969 352.027344 303.484375 351.511719 304.027344 350.964844 C 304.570312 350.421875 305.085938 349.851562 305.574219 349.257812 C 306.0625 348.664062 306.519531 348.046875 306.945312 347.40625 C 307.375 346.769531 307.769531 346.109375 308.128906 345.429688 C 308.492188 344.753906 308.820312 344.058594 309.113281 343.347656 C 309.410156 342.636719 309.667969 341.914062 309.890625 341.175781 C 310.113281 340.441406 310.300781 339.695312 310.449219 338.941406 C 310.601562 338.1875 310.710938 337.425781 310.789062 336.660156 C 310.863281 335.898438 310.902344 335.128906 310.902344 334.359375 L 310.902344 321.894531 C 64.527344 306.703125 64.527344 52.546875 64.527344 52.546875 Z M 64.527344 52.546875 " fill-opacity="1" fill-rule="nonzero"/><path fill="#005599" d="M 258.105469 76.03125 L 322.632812 76.03125 L 322.632812 87.773438 L 258.105469 87.773438 Z M 258.105469 76.03125 " fill-opacity="1" fill-rule="nonzero"/><path fill="#f2f2f2" d="M 5.867188 23.191406 L 217.042969 23.191406 L 217.042969 117.128906 L 5.867188 117.128906 Z M 5.867188 23.191406 " fill-opacity="1" fill-rule="nonzero"/><path fill="#005599" d="M 52.796875 117.128906 L 205.3125 117.128906 L 205.3125 134.742188 L 52.796875 134.742188 Z M 52.796875 117.128906 " fill-opacity="1" fill-rule="nonzero"/><path fill="#005599" d="M 252.242188 299.132812 C 250.875 300.953125 249.316406 302.59375 247.566406 304.054688 C 245.820312 305.511719 243.925781 306.75 241.890625 307.769531 C 239.855469 308.789062 237.730469 309.5625 235.511719 310.085938 C 233.296875 310.609375 231.054688 310.875 228.777344 310.875 L 222.910156 310.875 L 222.910156 299.132812 L 228.777344 299.132812 L 228.777344 305.003906 L 234.640625 305.003906 C 237.816406 305.015625 240.910156 304.519531 243.921875 303.515625 C 246.9375 302.511719 249.707031 301.050781 252.242188 299.132812 Z M 252.242188 299.132812 " fill-opacity="1" fill-rule="nonzero"/><path fill="#005599" d="M 253.472656 252.398438 C 252.609375 254.179688 252.199219 256.058594 252.242188 258.035156 L 252.242188 275.648438 C 252.234375 277.160156 252.042969 278.644531 251.65625 280.101562 C 251.273438 281.5625 250.710938 282.949219 249.972656 284.265625 C 249.230469 285.578125 248.339844 286.78125 247.292969 287.867188 C 246.246094 288.953125 245.078125 289.890625 243.792969 290.679688 C 245.515625 287.871094 246.375 284.816406 246.375 281.519531 L 246.375 263.90625 C 246.363281 262.710938 246.519531 261.535156 246.839844 260.382812 C 247.160156 259.230469 247.632812 258.144531 248.261719 257.125 C 248.890625 256.109375 249.648438 255.199219 250.53125 254.394531 C 251.417969 253.589844 252.398438 252.925781 253.472656 252.398438 Z M 253.472656 252.398438 " fill-opacity="1" fill-rule="nonzero"/><path fill="#005599" d="M 269.488281 254.101562 C 269.230469 254.960938 268.78125 255.707031 268.136719 256.332031 C 266.851562 257.613281 265.464844 258.769531 263.972656 259.796875 L 263.972656 257.625 C 264.714844 257.007812 265.515625 256.480469 266.378906 256.039062 C 267.457031 255.460938 268.492188 254.816406 269.488281 254.101562 Z M 269.488281 254.101562 " fill-opacity="1" fill-rule="nonzero"/><path fill="#005599" d="M 259.75 246.292969 C 257.167969 247.628906 255.132812 249.546875 253.648438 252.046875 C 252.554688 251.523438 251.558594 250.855469 250.652344 250.042969 C 249.75 249.234375 248.976562 248.316406 248.332031 247.289062 C 247.6875 246.257812 247.199219 245.160156 246.867188 243.992188 C 246.535156 242.828125 246.371094 241.636719 246.375 240.421875 L 246.375 222.808594 C 246.371094 222.234375 246.34375 221.65625 246.285156 221.085938 C 246.226562 220.511719 246.140625 219.941406 246.027344 219.375 C 245.914062 218.8125 245.773438 218.253906 245.605469 217.703125 C 245.4375 217.152344 245.242188 216.609375 245.019531 216.078125 C 244.800781 215.546875 244.554688 215.023438 244.28125 214.515625 C 244.007812 214.007812 243.714844 213.515625 243.394531 213.035156 C 243.074219 212.558594 242.730469 212.09375 242.363281 211.648438 C 242 211.203125 241.613281 210.777344 241.203125 210.371094 C 240.796875 209.960938 240.371094 209.574219 239.925781 209.210938 C 239.480469 208.84375 239.019531 208.5 238.542969 208.179688 C 238.0625 207.859375 237.570312 207.5625 237.0625 207.292969 C 236.554688 207.019531 236.035156 206.773438 235.503906 206.550781 C 234.972656 206.328125 234.429688 206.132812 233.878906 205.964844 C 233.328125 205.796875 232.769531 205.65625 232.207031 205.542969 C 231.640625 205.429688 231.074219 205.34375 230.5 205.285156 C 229.925781 205.226562 229.351562 205.199219 228.777344 205.195312 L 222.910156 205.195312 L 222.910156 193.453125 L 228.777344 193.453125 L 228.777344 199.324219 L 234.640625 199.324219 C 235.21875 199.328125 235.792969 199.355469 236.367188 199.414062 C 236.9375 199.472656 237.507812 199.558594 238.070312 199.671875 C 238.636719 199.785156 239.195312 199.925781 239.746094 200.09375 C 240.296875 200.261719 240.835938 200.457031 241.367188 200.679688 C 241.902344 200.902344 242.421875 201.148438 242.929688 201.421875 C 243.433594 201.691406 243.929688 201.988281 244.40625 202.308594 C 244.886719 202.628906 245.347656 202.972656 245.792969 203.339844 C 246.238281 203.703125 246.664062 204.089844 247.070312 204.5 C 247.476562 204.90625 247.863281 205.332031 248.230469 205.777344 C 248.59375 206.222656 248.9375 206.6875 249.257812 207.164062 C 249.578125 207.644531 249.875 208.136719 250.148438 208.644531 C 250.417969 209.152344 250.664062 209.675781 250.886719 210.207031 C 251.109375 210.738281 251.304688 211.28125 251.472656 211.832031 C 251.640625 212.382812 251.78125 212.941406 251.894531 213.503906 C 252.007812 214.070312 252.09375 214.640625 252.152344 215.214844 C 252.210938 215.785156 252.238281 216.363281 252.242188 216.9375 L 252.242188 234.550781 C 252.238281 235.789062 252.410156 237 252.753906 238.1875 C 253.097656 239.371094 253.605469 240.484375 254.269531 241.527344 C 254.9375 242.566406 255.734375 243.496094 256.667969 244.304688 C 257.597656 245.117188 258.625 245.777344 259.75 246.292969 Z M 259.75 246.292969 " fill-opacity="1" fill-rule="nonzero"/><path fill="#005599" d="M 140.785156 305.003906 L 140.785156 310.875 L 134.917969 310.875 C 133.960938 310.875 133 310.828125 132.042969 310.734375 C 131.089844 310.640625 130.140625 310.5 129.199219 310.3125 C 128.253906 310.125 127.324219 309.890625 126.40625 309.613281 C 125.488281 309.332031 124.582031 309.007812 123.695312 308.640625 C 122.808594 308.273438 121.941406 307.863281 121.09375 307.410156 C 120.246094 306.957031 119.421875 306.460938 118.625 305.929688 C 117.824219 305.394531 117.054688 304.820312 116.3125 304.210938 C 115.570312 303.601562 114.859375 302.957031 114.179688 302.277344 C 113.5 301.597656 112.855469 300.886719 112.246094 300.144531 C 111.636719 299.398438 111.066406 298.628906 110.53125 297.828125 C 110 297.03125 109.503906 296.207031 109.054688 295.359375 C 108.601562 294.511719 108.191406 293.640625 107.820312 292.753906 C 107.453125 291.867188 107.132812 290.960938 106.851562 290.042969 C 106.574219 289.121094 106.339844 288.191406 106.152344 287.246094 C 105.964844 286.304688 105.824219 285.355469 105.730469 284.398438 C 105.636719 283.441406 105.589844 282.480469 105.589844 281.519531 L 105.589844 263.90625 C 105.355469 263.144531 104.0625 262.4375 103.183594 261.910156 C 100.394531 260.394531 97.851562 258.535156 95.558594 256.332031 C 95.285156 256.058594 95.042969 255.761719 94.828125 255.4375 C 94.617188 255.117188 94.4375 254.777344 94.289062 254.417969 C 94.140625 254.0625 94.03125 253.691406 93.957031 253.3125 C 93.878906 252.933594 93.84375 252.550781 93.84375 252.164062 C 93.84375 251.777344 93.878906 251.394531 93.957031 251.015625 C 94.03125 250.636719 94.140625 250.269531 94.289062 249.910156 C 94.4375 249.554688 94.617188 249.214844 94.828125 248.890625 C 95.042969 248.570312 95.285156 248.269531 95.558594 247.996094 C 96.953125 246.648438 98.460938 245.433594 100.074219 244.355469 C 99.886719 244.875 99.769531 245.414062 99.734375 245.964844 C 99.695312 246.519531 99.738281 247.066406 99.859375 247.605469 C 99.976562 248.148438 100.171875 248.660156 100.4375 249.148438 C 100.703125 249.632812 101.03125 250.070312 101.425781 250.460938 C 103.71875 252.664062 106.257812 254.523438 109.050781 256.039062 C 109.929688 256.566406 111.222656 257.273438 111.457031 258.035156 L 111.457031 275.648438 C 111.457031 276.609375 111.503906 277.570312 111.597656 278.527344 C 111.691406 279.484375 111.832031 280.433594 112.019531 281.375 C 112.207031 282.320312 112.441406 283.25 112.71875 284.171875 C 112.996094 285.089844 113.320312 285.996094 113.6875 286.882812 C 114.054688 287.769531 114.464844 288.640625 114.917969 289.488281 C 115.371094 290.335938 115.863281 291.160156 116.398438 291.957031 C 116.933594 292.757812 117.503906 293.527344 118.113281 294.273438 C 118.722656 295.015625 119.367188 295.726562 120.046875 296.40625 C 120.726562 297.085938 121.4375 297.730469 122.179688 298.339844 C 122.921875 298.949219 123.691406 299.523438 124.492188 300.058594 C 125.289062 300.589844 126.113281 301.085938 126.960938 301.539062 C 127.808594 301.992188 128.675781 302.402344 129.5625 302.769531 C 130.449219 303.136719 131.351562 303.460938 132.273438 303.742188 C 133.191406 304.019531 134.121094 304.253906 135.0625 304.441406 C 136.007812 304.628906 136.953125 304.769531 137.910156 304.863281 C 138.867188 304.957031 139.824219 305.003906 140.785156 305.003906 Z M 140.785156 305.003906 " fill-opacity="1" fill-rule="nonzero"/><path fill="#005599" d="M 117.320312 199.324219 C 115.40625 201.859375 113.945312 204.632812 112.941406 207.648438 C 111.9375 210.664062 111.441406 213.761719 111.457031 216.9375 L 111.457031 234.960938 C 110.710938 235.582031 109.910156 236.109375 109.050781 236.546875 C 108.054688 237.136719 106.878906 237.839844 105.589844 238.660156 L 105.589844 222.808594 C 105.59375 220.53125 105.855469 218.285156 106.378906 216.066406 C 106.902344 213.847656 107.675781 211.722656 108.691406 209.683594 C 109.710938 207.648438 110.949219 205.753906 112.40625 204.003906 C 113.863281 202.253906 115.503906 200.695312 117.320312 199.324219 Z M 117.320312 199.324219 " fill-opacity="1" fill-rule="nonzero"/><path fill="#005599" d="M 140.785156 199.324219 L 140.785156 205.195312 L 134.917969 205.195312 C 131.625 205.195312 128.574219 206.054688 125.769531 207.78125 C 126.554688 206.492188 127.492188 205.324219 128.578125 204.277344 C 129.664062 203.230469 130.863281 202.335938 132.179688 201.597656 C 133.492188 200.855469 134.878906 200.292969 136.335938 199.910156 C 137.792969 199.523438 139.277344 199.328125 140.785156 199.324219 Z M 140.785156 199.324219 " fill-opacity="1" fill-rule="nonzero"/><path fill="#cdd1d6" d="M 114.742188 96.933594 C 113.953125 98.21875 113.015625 99.386719 111.929688 100.433594 C 110.847656 101.484375 109.644531 102.375 108.332031 103.117188 C 107.015625 103.855469 105.632812 104.417969 104.171875 104.804688 C 102.714844 105.1875 101.230469 105.382812 99.722656 105.386719 C 81.1875 105.386719 76.257812 93.878906 76.257812 87.773438 L 83.414062 87.773438 C 85.820312 93.410156 92.097656 99.515625 105.589844 99.515625 C 108.882812 99.519531 111.933594 98.65625 114.742188 96.933594 Z M 114.742188 96.933594 " fill-opacity="1" fill-rule="nonzero"/><path fill="#cdd1d6" d="M 111.457031 81.902344 C 111.457031 82.289062 111.417969 82.671875 111.34375 83.046875 C 111.269531 83.425781 111.15625 83.792969 111.007812 84.148438 C 110.863281 84.507812 110.679688 84.84375 110.46875 85.164062 C 110.253906 85.484375 110.011719 85.78125 109.738281 86.054688 C 109.464844 86.328125 109.167969 86.570312 108.847656 86.785156 C 108.527344 87 108.191406 87.179688 107.835938 87.328125 C 107.476562 87.476562 107.113281 87.585938 106.734375 87.660156 C 106.355469 87.738281 105.976562 87.773438 105.589844 87.773438 C 105.589844 87.390625 105.550781 87.007812 105.476562 86.628906 C 105.402344 86.25 105.289062 85.882812 105.144531 85.527344 C 104.996094 85.171875 104.816406 84.832031 104.601562 84.511719 C 104.386719 84.191406 104.144531 83.894531 103.871094 83.621094 C 103.597656 83.351562 103.304688 83.105469 102.984375 82.890625 C 102.664062 82.679688 102.324219 82.496094 101.96875 82.351562 C 101.613281 82.203125 101.246094 82.089844 100.867188 82.015625 C 100.488281 81.941406 100.109375 81.902344 99.722656 81.902344 L 93.859375 81.902344 L 93.859375 81.726562 L 92.097656 81.785156 L 92.039062 81.785156 C 91.132812 81.6875 90.238281 81.523438 89.355469 81.285156 C 88.472656 81.046875 87.613281 80.746094 86.78125 80.375 C 85.945312 80.003906 85.144531 79.574219 84.378906 79.078125 C 83.609375 78.582031 82.886719 78.03125 82.203125 77.425781 C 81.523438 76.816406 80.890625 76.160156 80.3125 75.453125 C 79.734375 74.746094 79.210938 74 78.75 73.214844 C 78.285156 72.425781 77.886719 71.609375 77.550781 70.757812 C 77.214844 69.910156 76.945312 69.039062 76.742188 68.148438 C 76.542969 67.257812 76.410156 66.355469 76.351562 65.445312 C 76.289062 64.535156 76.300781 63.621094 76.382812 62.710938 C 76.460938 61.800781 76.613281 60.902344 76.832031 60.019531 C 77.054688 59.132812 77.339844 58.265625 77.695312 57.425781 C 78.050781 56.582031 78.46875 55.773438 78.949219 54.996094 C 79.429688 54.222656 79.96875 53.484375 80.5625 52.792969 C 81.15625 52.101562 81.800781 51.457031 82.496094 50.867188 C 83.191406 50.273438 83.929688 49.738281 84.707031 49.261719 C 83.894531 50.59375 83.269531 52.011719 82.835938 53.511719 C 82.402344 55.015625 82.171875 56.546875 82.144531 58.109375 C 82.113281 59.671875 82.292969 61.210938 82.675781 62.722656 C 83.054688 64.238281 83.628906 65.679688 84.394531 67.042969 C 85.15625 68.402344 86.085938 69.640625 87.179688 70.757812 C 88.273438 71.871094 89.492188 72.824219 90.839844 73.617188 C 92.1875 74.40625 93.613281 75.003906 95.121094 75.414062 C 96.628906 75.824219 98.164062 76.03125 99.722656 76.03125 L 105.589844 76.03125 C 105.976562 76.03125 106.355469 76.070312 106.734375 76.144531 C 107.113281 76.21875 107.476562 76.332031 107.835938 76.480469 C 108.191406 76.625 108.527344 76.808594 108.847656 77.019531 C 109.167969 77.234375 109.464844 77.480469 109.738281 77.75 C 110.011719 78.023438 110.253906 78.320312 110.46875 78.640625 C 110.679688 78.960938 110.863281 79.300781 111.007812 79.65625 C 111.15625 80.011719 111.269531 80.378906 111.34375 80.757812 C 111.417969 81.136719 111.457031 81.519531 111.457031 81.902344 Z M 111.457031 81.902344 " fill-opacity="1" fill-rule="nonzero"/><path fill="#cdd1d6" d="M 117.320312 64.289062 L 105.589844 64.289062 C 105.53125 63.46875 104.652344 58.417969 93.859375 58.417969 C 93.859375 58.035156 93.894531 57.652344 93.96875 57.273438 C 94.046875 56.894531 94.15625 56.527344 94.304688 56.171875 C 94.453125 55.816406 94.632812 55.476562 94.847656 55.15625 C 95.058594 54.835938 95.304688 54.539062 95.574219 54.265625 C 95.847656 53.996094 96.144531 53.75 96.464844 53.535156 C 96.785156 53.324219 97.121094 53.140625 97.480469 52.996094 C 97.835938 52.847656 98.203125 52.734375 98.578125 52.660156 C 98.957031 52.585938 99.339844 52.546875 99.722656 52.546875 C 110.515625 52.546875 111.398438 57.597656 111.457031 58.417969 L 116.03125 58.417969 C 116.867188 60.285156 117.296875 62.242188 117.320312 64.289062 Z M 117.320312 64.289062 " fill-opacity="1" fill-rule="nonzero"/><path fill="#cdd1d6" d="M 167.535156 96.933594 C 166.746094 98.21875 165.8125 99.386719 164.726562 100.433594 C 163.640625 101.484375 162.441406 102.375 161.125 103.117188 C 159.8125 103.855469 158.425781 104.417969 156.96875 104.804688 C 155.507812 105.1875 154.027344 105.382812 152.519531 105.386719 C 133.980469 105.386719 129.054688 93.878906 129.054688 87.773438 L 136.210938 87.773438 C 138.617188 93.410156 144.890625 99.515625 158.382812 99.515625 C 161.675781 99.519531 164.726562 98.65625 167.535156 96.933594 Z M 167.535156 96.933594 " fill-opacity="1" fill-rule="nonzero"/><path fill="#cdd1d6" d="M 164.25 81.902344 C 164.25 82.289062 164.210938 82.671875 164.136719 83.046875 C 164.0625 83.425781 163.949219 83.792969 163.804688 84.148438 C 163.65625 84.507812 163.476562 84.84375 163.261719 85.164062 C 163.046875 85.484375 162.804688 85.78125 162.53125 86.054688 C 162.257812 86.328125 161.964844 86.570312 161.644531 86.785156 C 161.324219 87 160.984375 87.179688 160.628906 87.328125 C 160.273438 87.476562 159.90625 87.585938 159.527344 87.660156 C 159.152344 87.738281 158.769531 87.773438 158.382812 87.773438 C 158.382812 87.390625 158.347656 87.007812 158.269531 86.628906 C 158.195312 86.25 158.085938 85.882812 157.9375 85.527344 C 157.789062 85.171875 157.609375 84.832031 157.394531 84.511719 C 157.179688 84.191406 156.9375 83.894531 156.664062 83.621094 C 156.394531 83.351562 156.097656 83.105469 155.777344 82.890625 C 155.457031 82.679688 155.117188 82.496094 154.761719 82.351562 C 154.40625 82.203125 154.039062 82.089844 153.664062 82.015625 C 153.285156 81.941406 152.902344 81.902344 152.519531 81.902344 L 146.652344 81.902344 L 146.652344 81.726562 L 144.890625 81.785156 L 144.832031 81.785156 C 143.925781 81.6875 143.03125 81.523438 142.148438 81.285156 C 141.269531 81.046875 140.410156 80.746094 139.574219 80.375 C 138.742188 80.003906 137.941406 79.574219 137.171875 79.078125 C 136.40625 78.582031 135.679688 78.03125 135 77.425781 C 134.316406 76.816406 133.6875 76.160156 133.109375 75.453125 C 132.527344 74.746094 132.007812 74 131.542969 73.214844 C 131.078125 72.425781 130.679688 71.609375 130.34375 70.757812 C 130.007812 69.910156 129.738281 69.039062 129.539062 68.148438 C 129.335938 67.257812 129.207031 66.355469 129.144531 65.445312 C 129.085938 64.535156 129.09375 63.621094 129.175781 62.710938 C 129.257812 61.800781 129.40625 60.902344 129.628906 60.019531 C 129.847656 59.132812 130.136719 58.265625 130.492188 57.425781 C 130.84375 56.582031 131.261719 55.773438 131.742188 54.996094 C 132.222656 54.222656 132.761719 53.484375 133.355469 52.792969 C 133.953125 52.101562 134.597656 51.457031 135.292969 50.867188 C 135.988281 50.273438 136.722656 49.738281 137.5 49.261719 C 136.6875 50.59375 136.066406 52.011719 135.628906 53.511719 C 135.195312 55.015625 134.964844 56.546875 134.9375 58.109375 C 134.910156 59.671875 135.085938 61.210938 135.46875 62.722656 C 135.851562 64.238281 136.421875 65.679688 137.1875 67.042969 C 137.953125 68.402344 138.878906 69.640625 139.972656 70.757812 C 141.066406 71.871094 142.289062 72.824219 143.636719 73.617188 C 144.984375 74.40625 146.410156 75.003906 147.917969 75.414062 C 149.421875 75.824219 150.957031 76.03125 152.519531 76.03125 L 158.382812 76.03125 C 158.769531 76.03125 159.152344 76.070312 159.527344 76.144531 C 159.90625 76.21875 160.273438 76.332031 160.628906 76.480469 C 160.984375 76.625 161.324219 76.808594 161.644531 77.019531 C 161.964844 77.234375 162.257812 77.480469 162.53125 77.75 C 162.804688 78.023438 163.046875 78.320312 163.261719 78.640625 C 163.476562 78.960938 163.65625 79.300781 163.804688 79.65625 C 163.949219 80.011719 164.0625 80.378906 164.136719 80.757812 C 164.210938 81.136719 164.25 81.519531 164.25 81.902344 Z M 164.25 81.902344 " fill-opacity="1" fill-rule="nonzero"/><path fill="#cdd1d6" d="M 170.117188 64.289062 L 158.382812 64.289062 C 158.324219 63.46875 157.445312 58.417969 146.652344 58.417969 C 146.652344 58.035156 146.6875 57.652344 146.765625 57.273438 C 146.839844 56.894531 146.949219 56.527344 147.097656 56.171875 C 147.246094 55.816406 147.425781 55.476562 147.640625 55.15625 C 147.855469 54.835938 148.097656 54.539062 148.371094 54.265625 C 148.640625 53.996094 148.9375 53.75 149.257812 53.535156 C 149.578125 53.324219 149.917969 53.140625 150.273438 52.996094 C 150.628906 52.847656 150.996094 52.734375 151.375 52.660156 C 151.75 52.585938 152.132812 52.546875 152.519531 52.546875 C 163.3125 52.546875 164.191406 57.597656 164.25 58.417969 L 168.824219 58.417969 C 169.660156 60.285156 170.089844 62.242188 170.117188 64.289062 Z M 170.117188 64.289062 " fill-opacity="1" fill-rule="nonzero"/><path fill="#cdd1d6" d="M 64.527344 99.515625 L 64.527344 105.386719 L 58.660156 105.386719 C 57.132812 105.386719 55.613281 105.269531 54.101562 105.03125 C 52.589844 104.792969 51.105469 104.4375 49.652344 103.96875 C 48.195312 103.496094 46.785156 102.917969 45.421875 102.226562 C 44.054688 101.535156 42.753906 100.742188 41.511719 99.847656 C 40.269531 98.953125 39.105469 97.964844 38.019531 96.886719 C 36.933594 95.808594 35.9375 94.65625 35.03125 93.421875 C 34.125 92.1875 33.320312 90.890625 32.617188 89.53125 C 31.914062 88.171875 31.320312 86.765625 30.835938 85.316406 C 30.351562 83.863281 29.984375 82.382812 29.730469 80.871094 C 29.480469 79.363281 29.347656 77.839844 29.332031 76.3125 C 29.316406 74.78125 29.421875 73.257812 29.644531 71.742188 C 29.871094 70.226562 30.210938 68.742188 30.664062 67.277344 C 31.121094 65.816406 31.6875 64.402344 32.367188 63.027344 C 33.042969 61.65625 33.824219 60.34375 34.707031 59.09375 C 35.589844 57.84375 36.5625 56.667969 37.628906 55.570312 C 38.695312 54.472656 39.839844 53.464844 41.0625 52.546875 C 39.148438 55.082031 37.6875 57.855469 36.683594 60.871094 C 35.679688 63.886719 35.183594 66.984375 35.195312 70.160156 C 35.195312 71.121094 35.242188 72.082031 35.339844 73.039062 C 35.433594 73.996094 35.574219 74.945312 35.761719 75.886719 C 35.949219 76.832031 36.179688 77.761719 36.460938 78.683594 C 36.738281 79.601562 37.0625 80.507812 37.429688 81.394531 C 37.796875 82.28125 38.207031 83.152344 38.660156 84 C 39.113281 84.847656 39.605469 85.671875 40.140625 86.46875 C 40.671875 87.269531 41.246094 88.039062 41.855469 88.785156 C 42.464844 89.527344 43.109375 90.238281 43.789062 90.917969 C 44.46875 91.597656 45.179688 92.242188 45.921875 92.851562 C 46.664062 93.464844 47.433594 94.035156 48.230469 94.570312 C 49.03125 95.101562 49.855469 95.597656 50.699219 96.050781 C 51.546875 96.503906 52.414062 96.914062 53.304688 97.28125 C 54.191406 97.648438 55.09375 97.972656 56.011719 98.253906 C 56.933594 98.53125 57.863281 98.765625 58.804688 98.953125 C 59.746094 99.140625 60.695312 99.28125 61.652344 99.375 C 62.609375 99.46875 63.566406 99.515625 64.527344 99.515625 Z M 64.527344 99.515625 " fill-opacity="1" fill-rule="nonzero"/><path fill="#cdd1d6" d="M 64.527344 52.546875 L 64.527344 58.417969 L 58.660156 58.417969 C 55.367188 58.417969 52.316406 59.277344 49.511719 61.003906 C 50.296875 59.714844 51.234375 58.546875 52.320312 57.5 C 53.40625 56.453125 54.605469 55.558594 55.917969 54.820312 C 57.234375 54.078125 58.621094 53.515625 60.078125 53.132812 C 61.535156 52.746094 63.019531 52.550781 64.527344 52.546875 Z M 64.527344 52.546875 " fill-opacity="1" fill-rule="nonzero"/><g clip-path="url(#a6bd965b4a)"><path fill="#000000" d="M 326.78125 71.882812 L 256.386719 1.429688 C 255.839844 0.878906 255.203125 0.453125 254.484375 0.15625 C 253.765625 -0.144531 253.019531 -0.292969 252.242188 -0.292969 L 52.796875 -0.292969 C 52.410156 -0.292969 52.027344 -0.253906 51.652344 -0.179688 C 51.273438 -0.105469 50.90625 0.0078125 50.550781 0.15625 C 50.195312 0.300781 49.855469 0.484375 49.535156 0.695312 C 49.214844 0.910156 48.917969 1.15625 48.648438 1.425781 C 48.375 1.699219 48.132812 1.996094 47.917969 2.316406 C 47.703125 2.636719 47.523438 2.976562 47.375 3.332031 C 47.226562 3.6875 47.117188 4.054688 47.042969 4.433594 C 46.964844 4.8125 46.929688 5.195312 46.929688 5.578125 L 46.929688 17.320312 L 5.867188 17.320312 C 5.480469 17.320312 5.101562 17.359375 4.722656 17.433594 C 4.34375 17.507812 3.976562 17.621094 3.621094 17.769531 C 3.265625 17.914062 2.929688 18.097656 2.609375 18.308594 C 2.289062 18.523438 1.992188 18.769531 1.71875 19.039062 C 1.445312 19.3125 1.203125 19.609375 0.988281 19.929688 C 0.773438 20.25 0.59375 20.589844 0.445312 20.945312 C 0.300781 21.300781 0.1875 21.667969 0.113281 22.046875 C 0.0390625 22.425781 0 22.808594 0 23.191406 L 0 117.128906 C 0 117.515625 0.0390625 117.898438 0.113281 118.273438 C 0.1875 118.652344 0.300781 119.019531 0.445312 119.375 C 0.59375 119.734375 0.773438 120.070312 0.988281 120.390625 C 1.203125 120.710938 1.445312 121.007812 1.71875 121.28125 C 1.992188 121.554688 2.289062 121.796875 2.609375 122.011719 C 2.929688 122.226562 3.265625 122.40625 3.621094 122.554688 C 3.976562 122.703125 4.34375 122.8125 4.722656 122.886719 C 5.101562 122.964844 5.480469 123 5.867188 123 L 217.042969 123 C 217.429688 123 217.8125 122.964844 218.1875 122.886719 C 218.566406 122.8125 218.933594 122.703125 219.289062 122.554688 C 219.644531 122.40625 219.984375 122.226562 220.304688 122.011719 C 220.625 121.796875 220.921875 121.554688 221.191406 121.28125 C 221.464844 121.007812 221.707031 120.710938 221.921875 120.390625 C 222.136719 120.070312 222.316406 119.734375 222.464844 119.375 C 222.609375 119.019531 222.722656 118.652344 222.796875 118.273438 C 222.871094 117.898438 222.910156 117.515625 222.910156 117.128906 L 222.910156 23.191406 C 222.910156 22.808594 222.871094 22.425781 222.796875 22.046875 C 222.722656 21.667969 222.609375 21.300781 222.464844 20.945312 C 222.316406 20.589844 222.136719 20.25 221.921875 19.929688 C 221.707031 19.609375 221.464844 19.3125 221.191406 19.039062 C 220.921875 18.769531 220.625 18.523438 220.304688 18.308594 C 219.984375 18.097656 219.644531 17.914062 219.289062 17.769531 C 218.933594 17.621094 218.566406 17.507812 218.1875 17.433594 C 217.8125 17.359375 217.429688 17.320312 217.042969 17.320312 L 58.660156 17.320312 L 58.660156 11.449219 L 246.375 11.449219 L 246.375 76.03125 C 246.375 76.417969 246.414062 76.800781 246.488281 77.175781 C 246.5625 77.554688 246.671875 77.921875 246.820312 78.277344 C 246.96875 78.636719 247.148438 78.972656 247.363281 79.292969 C 247.578125 79.613281 247.820312 79.910156 248.09375 80.183594 C 248.363281 80.457031 248.660156 80.699219 248.980469 80.914062 C 249.300781 81.128906 249.640625 81.308594 249.996094 81.457031 C 250.351562 81.605469 250.71875 81.714844 251.097656 81.789062 C 251.472656 81.867188 251.855469 81.902344 252.242188 81.902344 L 316.765625 81.902344 L 316.765625 93.644531 L 328.5 93.644531 L 328.5 76.03125 C 328.5 75.253906 328.351562 74.503906 328.050781 73.785156 C 327.753906 73.066406 327.332031 72.429688 326.78125 71.882812 Z M 211.179688 111.257812 L 11.734375 111.257812 L 11.734375 29.0625 L 211.179688 29.0625 Z M 258.105469 19.75 L 308.472656 70.160156 L 258.105469 70.160156 Z M 258.105469 19.75 " fill-opacity="1" fill-rule="nonzero"/></g><path fill="#000000" d="M 46.929688 134.742188 L 58.660156 134.742188 L 58.660156 146.484375 L 46.929688 146.484375 Z M 46.929688 134.742188 " fill-opacity="1" fill-rule="nonzero"/><path fill="#000000" d="M 46.929688 158.226562 L 58.660156 158.226562 L 58.660156 328.488281 L 46.929688 328.488281 Z M 46.929688 158.226562 " fill-opacity="1" fill-rule="nonzero"/><g clip-path="url(#5a7d3a1ab2)"><path fill="#000000" d="M 316.765625 363.714844 L 58.660156 363.714844 L 58.660156 340.230469 L 46.929688 340.230469 L 46.929688 369.585938 C 46.929688 369.972656 46.964844 370.355469 47.042969 370.730469 C 47.117188 371.109375 47.226562 371.476562 47.375 371.832031 C 47.523438 372.191406 47.703125 372.527344 47.917969 372.847656 C 48.132812 373.167969 48.375 373.464844 48.648438 373.738281 C 48.917969 374.011719 49.214844 374.253906 49.535156 374.46875 C 49.855469 374.683594 50.195312 374.863281 50.550781 375.011719 C 50.90625 375.160156 51.273438 375.269531 51.652344 375.34375 C 52.027344 375.421875 52.410156 375.457031 52.796875 375.457031 L 322.632812 375.457031 C 323.019531 375.457031 323.398438 375.421875 323.777344 375.34375 C 324.15625 375.269531 324.523438 375.160156 324.878906 375.011719 C 325.234375 374.863281 325.570312 374.683594 325.890625 374.46875 C 326.210938 374.253906 326.507812 374.011719 326.78125 373.738281 C 327.054688 373.464844 327.296875 373.167969 327.511719 372.847656 C 327.722656 372.527344 327.90625 372.191406 328.050781 371.832031 C 328.199219 371.476562 328.3125 371.109375 328.386719 370.730469 C 328.460938 370.355469 328.5 369.972656 328.5 369.585938 L 328.5 128.871094 L 316.765625 128.871094 Z M 316.765625 363.714844 " fill-opacity="1" fill-rule="nonzero"/></g><g clip-path="url(#a5d2dbf5e4)"><path fill="#000000" d="M 316.765625 105.386719 L 328.5 105.386719 L 328.5 117.128906 L 316.765625 117.128906 Z M 316.765625 105.386719 " fill-opacity="1" fill-rule="nonzero"/></g><path fill="#000000" d="M 101.441406 242.144531 C 101.171875 242.414062 100.925781 242.710938 100.714844 243.03125 C 100.5 243.351562 100.320312 243.691406 100.171875 244.046875 C 100.023438 244.402344 99.914062 244.769531 99.835938 245.148438 C 99.761719 245.527344 99.726562 245.910156 99.726562 246.292969 C 99.726562 246.679688 99.761719 247.0625 99.835938 247.4375 C 99.914062 247.816406 100.023438 248.183594 100.171875 248.539062 C 100.320312 248.894531 100.5 249.234375 100.714844 249.554688 C 100.925781 249.875 101.171875 250.171875 101.441406 250.445312 C 103.726562 252.660156 106.265625 254.519531 109.066406 256.023438 C 109.972656 256.550781 111.222656 257.265625 111.472656 258.035156 L 111.472656 275.648438 C 111.472656 276.609375 111.523438 277.570312 111.617188 278.527344 C 111.710938 279.480469 111.855469 280.429688 112.042969 281.375 C 112.230469 282.316406 112.464844 283.246094 112.742188 284.167969 C 113.023438 285.085938 113.347656 285.988281 113.714844 286.878906 C 114.082031 287.765625 114.492188 288.632812 114.945312 289.480469 C 115.398438 290.328125 115.894531 291.152344 116.425781 291.949219 C 116.960938 292.75 117.53125 293.519531 118.140625 294.261719 C 118.75 295.003906 119.394531 295.714844 120.074219 296.394531 C 120.753906 297.074219 121.464844 297.71875 122.207031 298.332031 C 122.949219 298.941406 123.71875 299.511719 124.515625 300.046875 C 125.316406 300.582031 126.136719 301.074219 126.984375 301.527344 C 127.832031 301.980469 128.699219 302.390625 129.585938 302.761719 C 130.472656 303.128906 131.375 303.453125 132.292969 303.734375 C 133.210938 304.011719 134.140625 304.246094 135.082031 304.433594 C 136.027344 304.625 136.972656 304.765625 137.929688 304.859375 C 138.886719 304.957031 139.84375 305.003906 140.804688 305.003906 L 146.667969 305.003906 L 146.667969 293.261719 L 140.785156 293.261719 C 140.210938 293.261719 139.632812 293.234375 139.0625 293.175781 C 138.488281 293.121094 137.917969 293.035156 137.351562 292.925781 C 136.789062 292.8125 136.230469 292.671875 135.675781 292.503906 C 135.125 292.335938 134.582031 292.140625 134.050781 291.921875 C 133.519531 291.699219 133 291.453125 132.488281 291.183594 C 131.980469 290.910156 131.488281 290.613281 131.007812 290.292969 C 130.53125 289.972656 130.066406 289.628906 129.621094 289.265625 C 129.175781 288.898438 128.75 288.511719 128.34375 288.105469 C 127.933594 287.695312 127.546875 287.269531 127.183594 286.824219 C 126.816406 286.378906 126.472656 285.914062 126.152344 285.433594 C 125.832031 284.953125 125.539062 284.460938 125.265625 283.953125 C 124.992188 283.441406 124.746094 282.921875 124.527344 282.390625 C 124.308594 281.855469 124.113281 281.3125 123.945312 280.761719 C 123.777344 280.210938 123.636719 279.652344 123.527344 279.085938 C 123.414062 278.519531 123.328125 277.949219 123.273438 277.375 C 123.214844 276.800781 123.1875 276.226562 123.1875 275.648438 L 123.1875 258.035156 C 123.191406 256.800781 123.019531 255.585938 122.675781 254.398438 C 122.332031 253.214844 121.824219 252.097656 121.15625 251.058594 C 120.492188 250.015625 119.691406 249.089844 118.757812 248.28125 C 117.824219 247.46875 116.796875 246.808594 115.671875 246.292969 C 116.796875 245.78125 117.824219 245.117188 118.757812 244.308594 C 119.691406 243.496094 120.492188 242.570312 121.15625 241.53125 C 121.824219 240.488281 122.332031 239.375 122.675781 238.1875 C 123.019531 237 123.191406 235.789062 123.1875 234.550781 L 123.1875 216.9375 C 123.1875 216.363281 123.214844 215.785156 123.273438 215.210938 C 123.328125 214.636719 123.414062 214.066406 123.527344 213.503906 C 123.636719 212.9375 123.777344 212.378906 123.945312 211.824219 C 124.113281 211.273438 124.308594 210.730469 124.527344 210.199219 C 124.746094 209.664062 124.992188 209.144531 125.265625 208.636719 C 125.539062 208.125 125.832031 207.632812 126.152344 207.152344 C 126.472656 206.671875 126.816406 206.210938 127.183594 205.765625 C 127.546875 205.320312 127.933594 204.890625 128.34375 204.484375 C 128.75 204.074219 129.175781 203.6875 129.621094 203.324219 C 130.066406 202.957031 130.53125 202.613281 131.007812 202.292969 C 131.488281 201.972656 131.980469 201.675781 132.488281 201.40625 C 133 201.132812 133.519531 200.886719 134.050781 200.664062 C 134.582031 200.445312 135.125 200.25 135.675781 200.082031 C 136.230469 199.914062 136.789062 199.777344 137.351562 199.664062 C 137.917969 199.550781 138.488281 199.464844 139.0625 199.410156 C 139.632812 199.351562 140.210938 199.324219 140.785156 199.324219 L 146.652344 199.324219 L 146.652344 187.582031 L 140.785156 187.582031 C 139.824219 187.582031 138.867188 187.632812 137.910156 187.726562 C 136.957031 187.824219 136.007812 187.964844 135.066406 188.152344 C 134.125 188.339844 133.195312 188.574219 132.277344 188.855469 C 131.355469 189.132812 130.453125 189.457031 129.566406 189.828125 C 128.679688 190.195312 127.8125 190.605469 126.964844 191.058594 C 126.121094 191.511719 125.296875 192.007812 124.5 192.539062 C 123.699219 193.074219 122.929688 193.648438 122.1875 194.257812 C 121.445312 194.867188 120.734375 195.511719 120.054688 196.191406 C 119.378906 196.871094 118.734375 197.582031 118.125 198.324219 C 117.515625 199.066406 116.941406 199.839844 116.410156 200.636719 C 115.875 201.4375 115.382812 202.257812 114.929688 203.105469 C 114.476562 203.953125 114.066406 204.820312 113.699219 205.710938 C 113.328125 206.597656 113.003906 207.5 112.726562 208.421875 C 112.445312 209.339844 112.214844 210.269531 112.023438 211.214844 C 111.835938 212.15625 111.695312 213.105469 111.601562 214.0625 C 111.503906 215.019531 111.457031 215.976562 111.457031 216.9375 L 111.457031 234.984375 C 110.699219 235.589844 109.890625 236.117188 109.03125 236.566406 C 106.246094 238.074219 103.714844 239.933594 101.441406 242.144531 Z M 101.441406 242.144531 " fill-opacity="1" fill-rule="nonzero"/><path fill="#000000" d="M 252.242188 258.035156 L 252.242188 275.648438 C 252.242188 276.226562 252.210938 276.800781 252.15625 277.375 C 252.097656 277.949219 252.015625 278.519531 251.902344 279.085938 C 251.789062 279.652344 251.648438 280.210938 251.484375 280.761719 C 251.316406 281.3125 251.121094 281.855469 250.902344 282.390625 C 250.679688 282.921875 250.433594 283.441406 250.164062 283.953125 C 249.890625 284.460938 249.59375 284.953125 249.273438 285.433594 C 248.953125 285.914062 248.613281 286.378906 248.246094 286.824219 C 247.878906 287.269531 247.492188 287.695312 247.085938 288.105469 C 246.679688 288.511719 246.253906 288.898438 245.808594 289.265625 C 245.359375 289.628906 244.898438 289.972656 244.417969 290.292969 C 243.941406 290.613281 243.445312 290.910156 242.9375 291.183594 C 242.429688 291.453125 241.910156 291.699219 241.378906 291.921875 C 240.84375 292.140625 240.300781 292.335938 239.75 292.503906 C 239.199219 292.671875 238.640625 292.8125 238.074219 292.925781 C 237.511719 293.035156 236.941406 293.121094 236.367188 293.175781 C 235.792969 293.234375 235.21875 293.261719 234.640625 293.261719 L 228.777344 293.261719 L 228.777344 305.003906 L 234.640625 305.003906 C 235.601562 305.003906 236.5625 304.957031 237.515625 304.859375 C 238.472656 304.765625 239.421875 304.625 240.363281 304.433594 C 241.304688 304.246094 242.234375 304.011719 243.152344 303.734375 C 244.070312 303.453125 244.972656 303.128906 245.859375 302.761719 C 246.75 302.390625 247.613281 301.980469 248.460938 301.527344 C 249.308594 301.074219 250.132812 300.582031 250.929688 300.046875 C 251.726562 299.511719 252.496094 298.941406 253.238281 298.332031 C 253.980469 297.71875 254.691406 297.074219 255.371094 296.394531 C 256.050781 295.714844 256.695312 295.003906 257.304688 294.261719 C 257.914062 293.519531 258.484375 292.75 259.019531 291.949219 C 259.550781 291.152344 260.046875 290.328125 260.5 289.480469 C 260.953125 288.632812 261.363281 287.765625 261.730469 286.878906 C 262.097656 285.988281 262.421875 285.085938 262.703125 284.167969 C 262.980469 283.246094 263.214844 282.316406 263.402344 281.375 C 263.589844 280.429688 263.734375 279.480469 263.828125 278.527344 C 263.921875 277.570312 263.972656 276.609375 263.972656 275.648438 L 263.972656 257.601562 C 264.730469 256.996094 265.535156 256.46875 266.394531 256.023438 C 269.195312 254.519531 271.738281 252.660156 274.019531 250.445312 C 274.292969 250.171875 274.535156 249.875 274.75 249.554688 C 274.964844 249.234375 275.144531 248.894531 275.292969 248.539062 C 275.441406 248.183594 275.550781 247.816406 275.625 247.4375 C 275.703125 247.0625 275.738281 246.679688 275.738281 246.292969 C 275.738281 245.910156 275.703125 245.527344 275.625 245.148438 C 275.550781 244.769531 275.441406 244.402344 275.292969 244.046875 C 275.144531 243.691406 274.964844 243.351562 274.75 243.03125 C 274.535156 242.710938 274.292969 242.414062 274.019531 242.144531 C 271.738281 239.929688 269.195312 238.070312 266.394531 236.566406 C 265.492188 236.035156 264.242188 235.320312 263.992188 234.550781 L 263.992188 216.9375 C 263.988281 215.976562 263.941406 215.019531 263.847656 214.0625 C 263.75 213.105469 263.609375 212.15625 263.421875 211.214844 C 263.234375 210.269531 263 209.339844 262.71875 208.421875 C 262.441406 207.5 262.117188 206.597656 261.75 205.710938 C 261.378906 204.820312 260.96875 203.953125 260.515625 203.105469 C 260.0625 202.257812 259.570312 201.4375 259.035156 200.636719 C 258.503906 199.839844 257.929688 199.066406 257.320312 198.324219 C 256.710938 197.582031 256.070312 196.871094 255.390625 196.191406 C 254.710938 195.511719 254 194.867188 253.257812 194.257812 C 252.515625 193.648438 251.746094 193.074219 250.945312 192.539062 C 250.148438 192.007812 249.324219 191.511719 248.480469 191.058594 C 247.632812 190.605469 246.765625 190.195312 245.878906 189.828125 C 244.992188 189.457031 244.089844 189.132812 243.171875 188.855469 C 242.25 188.574219 241.320312 188.339844 240.378906 188.152344 C 239.4375 187.964844 238.488281 187.824219 237.535156 187.726562 C 236.578125 187.632812 235.621094 187.582031 234.660156 187.582031 L 228.777344 187.582031 L 228.777344 199.324219 L 234.640625 199.324219 C 235.21875 199.324219 235.792969 199.351562 236.367188 199.410156 C 236.941406 199.464844 237.511719 199.550781 238.074219 199.664062 C 238.640625 199.777344 239.199219 199.914062 239.75 200.082031 C 240.300781 200.25 240.84375 200.445312 241.378906 200.664062 C 241.910156 200.886719 242.429688 201.132812 242.9375 201.40625 C 243.445312 201.675781 243.941406 201.972656 244.417969 202.292969 C 244.898438 202.613281 245.359375 202.957031 245.808594 203.324219 C 246.253906 203.6875 246.679688 204.074219 247.085938 204.484375 C 247.492188 204.890625 247.878906 205.320312 248.246094 205.765625 C 248.613281 206.210938 248.953125 206.671875 249.273438 207.152344 C 249.59375 207.632812 249.890625 208.125 250.164062 208.636719 C 250.433594 209.144531 250.679688 209.664062 250.902344 210.199219 C 251.121094 210.730469 251.316406 211.273438 251.484375 211.824219 C 251.648438 212.378906 251.789062 212.9375 251.902344 213.503906 C 252.015625 214.066406 252.097656 214.636719 252.15625 215.210938 C 252.210938 215.785156 252.242188 216.363281 252.242188 216.9375 L 252.242188 234.550781 C 252.238281 235.789062 252.40625 237 252.753906 238.1875 C 253.097656 239.375 253.605469 240.488281 254.269531 241.53125 C 254.9375 242.570312 255.738281 243.496094 256.667969 244.308594 C 257.601562 245.117188 258.632812 245.78125 259.753906 246.292969 C 258.632812 246.808594 257.601562 247.46875 256.667969 248.28125 C 255.738281 249.089844 254.9375 250.015625 254.269531 251.058594 C 253.605469 252.097656 253.097656 253.214844 252.753906 254.398438 C 252.40625 255.585938 252.238281 256.800781 252.242188 258.035156 Z M 252.242188 258.035156 " fill-opacity="1" fill-rule="nonzero"/><path fill="#000000" d="M 158.382812 87.773438 C 147.585938 87.773438 146.714844 82.742188 146.652344 81.734375 L 140.785156 81.902344 L 134.917969 81.902344 C 134.917969 87.996094 139.824219 99.515625 158.382812 99.515625 C 158.960938 99.515625 159.535156 99.488281 160.109375 99.429688 C 160.683594 99.375 161.25 99.289062 161.816406 99.179688 C 162.382812 99.066406 162.941406 98.925781 163.492188 98.757812 C 164.042969 98.589844 164.585938 98.394531 165.117188 98.175781 C 165.652344 97.953125 166.171875 97.707031 166.679688 97.4375 C 167.1875 97.164062 167.683594 96.867188 168.160156 96.546875 C 168.640625 96.226562 169.101562 95.882812 169.546875 95.519531 C 169.992188 95.152344 170.421875 94.765625 170.828125 94.359375 C 171.234375 93.949219 171.621094 93.523438 171.988281 93.078125 C 172.351562 92.632812 172.695312 92.167969 173.015625 91.6875 C 173.335938 91.207031 173.632812 90.714844 173.902344 90.207031 C 174.175781 89.695312 174.421875 89.175781 174.640625 88.644531 C 174.863281 88.109375 175.058594 87.566406 175.222656 87.015625 C 175.390625 86.464844 175.53125 85.90625 175.644531 85.339844 C 175.757812 84.773438 175.839844 84.203125 175.898438 83.628906 C 175.953125 83.054688 175.980469 82.480469 175.980469 81.902344 C 175.980469 81.328125 175.953125 80.75 175.898438 80.175781 C 175.839844 79.601562 175.757812 79.03125 175.644531 78.46875 C 175.53125 77.902344 175.390625 77.34375 175.222656 76.789062 C 175.058594 76.238281 174.863281 75.695312 174.640625 75.164062 C 174.421875 74.628906 174.175781 74.109375 173.902344 73.601562 C 173.632812 73.089844 173.335938 72.597656 173.015625 72.117188 C 172.695312 71.636719 172.351562 71.175781 171.988281 70.730469 C 171.621094 70.285156 171.234375 69.855469 170.828125 69.449219 C 170.421875 69.039062 169.992188 68.652344 169.546875 68.289062 C 169.101562 67.921875 168.640625 67.578125 168.160156 67.257812 C 167.683594 66.9375 167.1875 66.640625 166.679688 66.371094 C 166.171875 66.097656 165.652344 65.851562 165.117188 65.628906 C 164.585938 65.410156 164.042969 65.214844 163.492188 65.046875 C 162.941406 64.878906 162.382812 64.742188 161.816406 64.628906 C 161.25 64.515625 160.683594 64.429688 160.109375 64.375 C 159.535156 64.316406 158.960938 64.289062 158.382812 64.289062 L 152.519531 64.289062 C 152.132812 64.289062 151.75 64.253906 151.375 64.175781 C 150.996094 64.101562 150.628906 63.992188 150.273438 63.84375 C 149.917969 63.695312 149.578125 63.515625 149.257812 63.300781 C 148.9375 63.085938 148.640625 62.84375 148.371094 62.570312 C 148.097656 62.296875 147.855469 62 147.640625 61.679688 C 147.425781 61.359375 147.246094 61.023438 147.097656 60.664062 C 146.949219 60.308594 146.839844 59.941406 146.765625 59.5625 C 146.6875 59.1875 146.652344 58.804688 146.652344 58.417969 C 146.652344 58.035156 146.6875 57.652344 146.765625 57.273438 C 146.839844 56.894531 146.949219 56.527344 147.097656 56.171875 C 147.246094 55.816406 147.425781 55.476562 147.640625 55.15625 C 147.855469 54.835938 148.097656 54.539062 148.371094 54.265625 C 148.640625 53.996094 148.9375 53.75 149.257812 53.535156 C 149.578125 53.324219 149.917969 53.140625 150.273438 52.996094 C 150.628906 52.847656 150.996094 52.734375 151.375 52.660156 C 151.75 52.585938 152.132812 52.546875 152.519531 52.546875 C 163.316406 52.546875 164.183594 57.578125 164.25 58.417969 L 175.980469 58.417969 C 175.980469 52.324219 171.078125 40.804688 152.519531 40.804688 C 151.941406 40.804688 151.367188 40.832031 150.792969 40.890625 C 150.21875 40.945312 149.648438 41.03125 149.085938 41.144531 C 148.519531 41.257812 147.960938 41.394531 147.410156 41.5625 C 146.859375 41.730469 146.316406 41.925781 145.785156 42.144531 C 145.25 42.367188 144.730469 42.613281 144.222656 42.886719 C 143.714844 43.15625 143.21875 43.453125 142.742188 43.773438 C 142.261719 44.09375 141.800781 44.4375 141.355469 44.804688 C 140.910156 45.167969 140.480469 45.554688 140.074219 45.964844 C 139.667969 46.371094 139.28125 46.800781 138.914062 47.246094 C 138.546875 47.691406 138.207031 48.152344 137.886719 48.632812 C 137.566406 49.113281 137.269531 49.605469 136.996094 50.117188 C 136.726562 50.625 136.480469 51.144531 136.257812 51.679688 C 136.039062 52.210938 135.84375 52.753906 135.675781 53.304688 C 135.511719 53.859375 135.371094 54.417969 135.257812 54.984375 C 135.144531 55.546875 135.0625 56.117188 135.003906 56.691406 C 134.949219 57.265625 134.917969 57.84375 134.917969 58.417969 C 134.917969 58.996094 134.949219 59.570312 135.003906 60.144531 C 135.0625 60.71875 135.144531 61.289062 135.257812 61.855469 C 135.371094 62.421875 135.511719 62.980469 135.675781 63.53125 C 135.84375 64.082031 136.039062 64.625 136.257812 65.160156 C 136.480469 65.691406 136.726562 66.210938 136.996094 66.722656 C 137.269531 67.230469 137.566406 67.722656 137.886719 68.203125 C 138.207031 68.683594 138.546875 69.148438 138.914062 69.59375 C 139.28125 70.039062 139.667969 70.464844 140.074219 70.875 C 140.480469 71.28125 140.910156 71.667969 141.355469 72.035156 C 141.800781 72.398438 142.261719 72.742188 142.742188 73.0625 C 143.21875 73.382812 143.714844 73.679688 144.222656 73.953125 C 144.730469 74.222656 145.25 74.46875 145.785156 74.691406 C 146.316406 74.910156 146.859375 75.105469 147.410156 75.273438 C 147.960938 75.441406 148.519531 75.582031 149.085938 75.695312 C 149.648438 75.804688 150.21875 75.890625 150.792969 75.945312 C 151.367188 76.003906 151.941406 76.03125 152.519531 76.03125 L 158.382812 76.03125 C 158.769531 76.03125 159.152344 76.070312 159.527344 76.144531 C 159.90625 76.21875 160.273438 76.332031 160.628906 76.480469 C 160.984375 76.625 161.324219 76.808594 161.644531 77.019531 C 161.964844 77.234375 162.257812 77.480469 162.53125 77.75 C 162.804688 78.023438 163.046875 78.320312 163.261719 78.640625 C 163.476562 78.960938 163.65625 79.300781 163.804688 79.65625 C 163.949219 80.011719 164.0625 80.378906 164.136719 80.757812 C 164.210938 81.136719 164.25 81.519531 164.25 81.902344 C 164.25 82.289062 164.210938 82.671875 164.136719 83.046875 C 164.0625 83.425781 163.949219 83.792969 163.804688 84.148438 C 163.65625 84.507812 163.476562 84.84375 163.261719 85.164062 C 163.046875 85.484375 162.804688 85.78125 162.53125 86.054688 C 162.257812 86.328125 161.964844 86.570312 161.644531 86.785156 C 161.324219 87 160.984375 87.179688 160.628906 87.328125 C 160.273438 87.476562 159.90625 87.585938 159.527344 87.660156 C 159.152344 87.738281 158.769531 87.773438 158.382812 87.773438 Z M 158.382812 87.773438 " fill-opacity="1" fill-rule="nonzero"/><path fill="#000000" d="M 105.589844 87.773438 C 94.789062 87.773438 93.921875 82.742188 93.859375 81.734375 L 87.992188 81.902344 L 82.125 81.902344 C 82.125 87.996094 87.03125 99.515625 105.589844 99.515625 C 106.164062 99.515625 106.742188 99.488281 107.3125 99.429688 C 107.886719 99.375 108.457031 99.289062 109.023438 99.179688 C 109.589844 99.066406 110.144531 98.925781 110.699219 98.757812 C 111.25 98.589844 111.792969 98.394531 112.324219 98.175781 C 112.855469 97.953125 113.375 97.707031 113.886719 97.4375 C 114.394531 97.164062 114.886719 96.867188 115.367188 96.546875 C 115.847656 96.226562 116.308594 95.882812 116.753906 95.519531 C 117.199219 95.152344 117.625 94.765625 118.035156 94.359375 C 118.441406 93.949219 118.828125 93.523438 119.191406 93.078125 C 119.558594 92.632812 119.902344 92.167969 120.222656 91.6875 C 120.542969 91.207031 120.839844 90.714844 121.109375 90.207031 C 121.382812 89.695312 121.628906 89.175781 121.847656 88.644531 C 122.070312 88.109375 122.261719 87.566406 122.429688 87.015625 C 122.597656 86.464844 122.738281 85.90625 122.847656 85.339844 C 122.960938 84.773438 123.046875 84.203125 123.101562 83.628906 C 123.160156 83.054688 123.1875 82.480469 123.1875 81.902344 C 123.1875 81.328125 123.160156 80.75 123.101562 80.175781 C 123.046875 79.601562 122.960938 79.03125 122.847656 78.46875 C 122.738281 77.902344 122.597656 77.34375 122.429688 76.789062 C 122.261719 76.238281 122.070312 75.695312 121.847656 75.164062 C 121.628906 74.628906 121.382812 74.109375 121.109375 73.601562 C 120.839844 73.089844 120.542969 72.597656 120.222656 72.117188 C 119.902344 71.636719 119.558594 71.175781 119.191406 70.730469 C 118.828125 70.285156 118.441406 69.855469 118.035156 69.449219 C 117.625 69.039062 117.199219 68.652344 116.753906 68.289062 C 116.308594 67.921875 115.847656 67.578125 115.367188 67.257812 C 114.886719 66.9375 114.394531 66.640625 113.886719 66.371094 C 113.375 66.097656 112.855469 65.851562 112.324219 65.628906 C 111.792969 65.410156 111.25 65.214844 110.699219 65.046875 C 110.144531 64.878906 109.589844 64.742188 109.023438 64.628906 C 108.457031 64.515625 107.886719 64.429688 107.3125 64.375 C 106.742188 64.316406 106.164062 64.289062 105.589844 64.289062 L 99.722656 64.289062 C 99.339844 64.289062 98.957031 64.253906 98.578125 64.175781 C 98.203125 64.101562 97.835938 63.992188 97.480469 63.84375 C 97.121094 63.695312 96.785156 63.515625 96.464844 63.300781 C 96.144531 63.085938 95.847656 62.84375 95.574219 62.570312 C 95.304688 62.296875 95.058594 62 94.847656 61.679688 C 94.632812 61.359375 94.453125 61.023438 94.304688 60.664062 C 94.15625 60.308594 94.046875 59.941406 93.96875 59.5625 C 93.894531 59.1875 93.859375 58.804688 93.859375 58.417969 C 93.859375 58.035156 93.894531 57.652344 93.96875 57.273438 C 94.046875 56.894531 94.15625 56.527344 94.304688 56.171875 C 94.453125 55.816406 94.632812 55.476562 94.847656 55.15625 C 95.058594 54.835938 95.304688 54.539062 95.574219 54.265625 C 95.847656 53.996094 96.144531 53.75 96.464844 53.535156 C 96.785156 53.324219 97.121094 53.140625 97.480469 52.996094 C 97.835938 52.847656 98.203125 52.734375 98.578125 52.660156 C 98.957031 52.585938 99.339844 52.546875 99.722656 52.546875 C 110.523438 52.546875 111.390625 57.578125 111.457031 58.417969 L 123.1875 58.417969 C 123.1875 52.324219 118.285156 40.804688 99.722656 40.804688 C 99.148438 40.804688 98.570312 40.832031 98 40.890625 C 97.425781 40.945312 96.855469 41.03125 96.289062 41.144531 C 95.726562 41.257812 95.167969 41.394531 94.613281 41.5625 C 94.0625 41.730469 93.519531 41.925781 92.988281 42.144531 C 92.457031 42.367188 91.9375 42.613281 91.429688 42.886719 C 90.917969 43.15625 90.425781 43.453125 89.945312 43.773438 C 89.46875 44.09375 89.003906 44.4375 88.558594 44.804688 C 88.113281 45.167969 87.6875 45.554688 87.28125 45.964844 C 86.871094 46.371094 86.484375 46.800781 86.121094 47.246094 C 85.753906 47.691406 85.410156 48.152344 85.089844 48.632812 C 84.769531 49.113281 84.476562 49.605469 84.203125 50.117188 C 83.929688 50.625 83.683594 51.144531 83.464844 51.679688 C 83.246094 52.210938 83.050781 52.753906 82.882812 53.304688 C 82.714844 53.859375 82.574219 54.417969 82.464844 54.984375 C 82.351562 55.546875 82.265625 56.117188 82.210938 56.691406 C 82.152344 57.265625 82.125 57.84375 82.125 58.417969 C 82.125 58.996094 82.152344 59.570312 82.210938 60.144531 C 82.265625 60.71875 82.351562 61.289062 82.464844 61.855469 C 82.574219 62.421875 82.714844 62.980469 82.882812 63.53125 C 83.050781 64.082031 83.246094 64.625 83.464844 65.160156 C 83.683594 65.691406 83.929688 66.210938 84.203125 66.722656 C 84.476562 67.230469 84.769531 67.722656 85.089844 68.203125 C 85.410156 68.683594 85.753906 69.148438 86.121094 69.59375 C 86.484375 70.039062 86.871094 70.464844 87.28125 70.875 C 87.6875 71.28125 88.113281 71.667969 88.558594 72.035156 C 89.003906 72.398438 89.46875 72.742188 89.945312 73.0625 C 90.425781 73.382812 90.917969 73.679688 91.429688 73.953125 C 91.9375 74.222656 92.457031 74.46875 92.988281 74.691406 C 93.519531 74.910156 94.0625 75.105469 94.613281 75.273438 C 95.167969 75.441406 95.726562 75.582031 96.289062 75.695312 C 96.855469 75.804688 97.425781 75.890625 98 75.945312 C 98.570312 76.003906 99.148438 76.03125 99.722656 76.03125 L 105.589844 76.03125 C 105.976562 76.03125 106.355469 76.070312 106.734375 76.144531 C 107.113281 76.21875 107.476562 76.332031 107.835938 76.480469 C 108.191406 76.625 108.527344 76.808594 108.847656 77.019531 C 109.167969 77.234375 109.464844 77.480469 109.738281 77.75 C 110.011719 78.023438 110.253906 78.320312 110.46875 78.640625 C 110.679688 78.960938 110.863281 79.300781 111.007812 79.65625 C 111.15625 80.011719 111.269531 80.378906 111.34375 80.757812 C 111.417969 81.136719 111.457031 81.519531 111.457031 81.902344 C 111.457031 82.289062 111.417969 82.671875 111.34375 83.046875 C 111.269531 83.425781 111.15625 83.792969 111.007812 84.148438 C 110.863281 84.507812 110.679688 84.84375 110.46875 85.164062 C 110.253906 85.484375 110.011719 85.78125 109.738281 86.054688 C 109.464844 86.328125 109.167969 86.570312 108.847656 86.785156 C 108.527344 87 108.191406 87.179688 107.835938 87.328125 C 107.476562 87.476562 107.113281 87.585938 106.734375 87.660156 C 106.355469 87.738281 105.976562 87.773438 105.589844 87.773438 Z M 105.589844 87.773438 " fill-opacity="1" fill-rule="nonzero"/><path fill="#000000" d="M 64.527344 99.515625 L 70.394531 99.515625 L 70.394531 87.773438 L 64.527344 87.773438 C 63.949219 87.773438 63.375 87.746094 62.800781 87.6875 C 62.230469 87.632812 61.660156 87.546875 61.09375 87.4375 C 60.527344 87.324219 59.96875 87.183594 59.417969 87.015625 C 58.867188 86.847656 58.324219 86.652344 57.792969 86.433594 C 57.261719 86.210938 56.738281 85.964844 56.230469 85.695312 C 55.722656 85.421875 55.230469 85.125 54.75 84.804688 C 54.269531 84.484375 53.808594 84.140625 53.363281 83.777344 C 52.917969 83.410156 52.492188 83.023438 52.082031 82.617188 C 51.675781 82.207031 51.289062 81.78125 50.921875 81.335938 C 50.558594 80.890625 50.214844 80.425781 49.894531 79.945312 C 49.574219 79.464844 49.277344 78.972656 49.007812 78.464844 C 48.734375 77.953125 48.488281 77.433594 48.269531 76.902344 C 48.046875 76.367188 47.855469 75.824219 47.6875 75.273438 C 47.519531 74.722656 47.378906 74.164062 47.265625 73.597656 C 47.15625 73.03125 47.070312 72.460938 47.015625 71.886719 C 46.957031 71.3125 46.929688 70.738281 46.929688 70.160156 C 46.929688 69.585938 46.957031 69.007812 47.015625 68.433594 C 47.070312 67.859375 47.15625 67.289062 47.265625 66.726562 C 47.378906 66.160156 47.519531 65.601562 47.6875 65.046875 C 47.855469 64.496094 48.046875 63.953125 48.269531 63.421875 C 48.488281 62.886719 48.734375 62.367188 49.007812 61.859375 C 49.277344 61.347656 49.574219 60.855469 49.894531 60.375 C 50.214844 59.894531 50.558594 59.433594 50.921875 58.988281 C 51.289062 58.542969 51.675781 58.113281 52.082031 57.707031 C 52.492188 57.296875 52.917969 56.910156 53.363281 56.546875 C 53.808594 56.179688 54.269531 55.835938 54.75 55.515625 C 55.230469 55.195312 55.722656 54.898438 56.230469 54.628906 C 56.738281 54.355469 57.261719 54.109375 57.792969 53.886719 C 58.324219 53.667969 58.867188 53.472656 59.417969 53.304688 C 59.96875 53.136719 60.527344 53 61.09375 52.886719 C 61.660156 52.773438 62.230469 52.6875 62.800781 52.632812 C 63.375 52.574219 63.949219 52.546875 64.527344 52.546875 L 70.394531 52.546875 L 70.394531 40.804688 L 64.527344 40.804688 C 63.566406 40.804688 62.609375 40.851562 61.652344 40.945312 C 60.695312 41.042969 59.746094 41.183594 58.804688 41.371094 C 57.863281 41.558594 56.933594 41.789062 56.011719 42.070312 C 55.09375 42.347656 54.191406 42.671875 53.304688 43.039062 C 52.414062 43.40625 51.546875 43.820312 50.699219 44.273438 C 49.855469 44.726562 49.03125 45.21875 48.230469 45.753906 C 47.433594 46.285156 46.664062 46.859375 45.921875 47.46875 C 45.179688 48.078125 44.46875 48.722656 43.789062 49.402344 C 43.109375 50.082031 42.464844 50.792969 41.855469 51.539062 C 41.246094 52.28125 40.671875 53.050781 40.140625 53.851562 C 39.605469 54.652344 39.113281 55.476562 38.660156 56.324219 C 38.207031 57.171875 37.796875 58.039062 37.429688 58.925781 C 37.0625 59.816406 36.738281 60.71875 36.460938 61.640625 C 36.179688 62.558594 35.949219 63.492188 35.761719 64.433594 C 35.574219 65.375 35.433594 66.328125 35.339844 67.285156 C 35.242188 68.242188 35.195312 69.199219 35.195312 70.160156 C 35.195312 71.121094 35.242188 72.082031 35.339844 73.039062 C 35.433594 73.996094 35.574219 74.945312 35.761719 75.886719 C 35.949219 76.832031 36.179688 77.761719 36.460938 78.683594 C 36.738281 79.601562 37.0625 80.507812 37.429688 81.394531 C 37.796875 82.28125 38.207031 83.152344 38.660156 84 C 39.113281 84.847656 39.605469 85.671875 40.140625 86.46875 C 40.671875 87.269531 41.246094 88.039062 41.855469 88.785156 C 42.464844 89.527344 43.109375 90.238281 43.789062 90.917969 C 44.46875 91.597656 45.179688 92.242188 45.921875 92.851562 C 46.664062 93.464844 47.433594 94.035156 48.230469 94.570312 C 49.03125 95.101562 49.855469 95.597656 50.699219 96.050781 C 51.546875 96.503906 52.414062 96.914062 53.304688 97.28125 C 54.191406 97.648438 55.09375 97.972656 56.011719 98.253906 C 56.933594 98.53125 57.863281 98.765625 58.804688 98.953125 C 59.746094 99.140625 60.695312 99.28125 61.652344 99.375 C 62.609375 99.46875 63.566406 99.515625 64.527344 99.515625 Z M 64.527344 99.515625 " fill-opacity="1" fill-rule="nonzero"/></svg>