<svg xmlns="http://www.w3.org/2000/svg" xmlns:xlink="http://www.w3.org/1999/xlink" width="500" zoomAndPan="magnify" viewBox="0 0 375 374.999991" height="500" preserveAspectRatio="xMidYMid meet" version="1.0"><defs><clipPath id="3b4da6c992"><path d="M 85 255 L 293 255 L 293 327.75 L 85 327.75 Z M 85 255 " clip-rule="nonzero"/></clipPath><clipPath id="acf12c75a6"><path d="M 129 280 L 249 280 L 249 327.75 L 129 327.75 Z M 129 280 " clip-rule="nonzero"/></clipPath><clipPath id="ddc2bedea1"><path d="M 216.808594 290.800781 C 217.515625 288.507812 217.632812 284.96875 210.546875 286.570312 C 210.546875 286.570312 191.179688 289.332031 190.253906 311.890625 L 189.8125 355.109375 L 185.160156 355.109375 L 184.71875 311.890625 C 183.796875 289.335938 164.433594 286.570312 164.433594 286.570312 C 157.363281 284.96875 157.457031 288.503906 158.164062 290.792969 C 151.21875 278.984375 132.617188 280.511719 132.617188 280.511719 C 126.15625 282.8125 132.152344 286.953125 132.152344 286.953125 C 142.296875 290.632812 143.222656 301.6875 143.222656 301.6875 L 143.222656 332.90625 L 144.296875 357.042969 C 146.597656 367.792969 152.28125 374.148438 157.855469 377.886719 L 217.230469 377.820312 C 224.414062 372.953125 231.757812 363.730469 231.757812 346.320312 L 231.757812 301.6875 C 231.757812 301.6875 232.679688 290.632812 242.828125 286.953125 C 252.976562 283.273438 248.816406 282.808594 242.363281 280.511719 C 242.363281 280.511719 241.574219 280.453125 240.265625 280.445312 C 235.207031 280.445312 222.332031 281.414062 216.8125 290.800781 M 160.742188 335.292969 L 160.742188 301.230469 C 160.742188 297.902344 160.152344 295.101562 159.148438 292.75 C 165.828125 297.949219 166.273438 310.972656 166.273438 310.972656 L 166.273438 353.492188 C 159.625 348.792969 160.742188 335.285156 160.742188 335.285156 M 208.710938 310.96875 C 208.710938 310.96875 209.15625 297.941406 215.835938 292.742188 C 214.832031 295.097656 214.242188 297.894531 214.242188 301.222656 L 214.242188 335.289062 C 214.242188 335.289062 215.355469 347.84375 208.710938 353.011719 Z M 208.710938 310.96875 " clip-rule="nonzero"/></clipPath></defs><g clip-path="url(#3b4da6c992)"><path fill="#a0dcf2" d="M 292.710938 292.164062 C 292.710938 312.191406 246.25 328.421875 188.9375 328.421875 C 131.625 328.421875 85.167969 312.191406 85.167969 292.164062 C 85.167969 272.140625 131.625 255.902344 188.9375 255.902344 C 246.25 255.902344 292.710938 272.160156 292.710938 292.164062 " fill-opacity="1" fill-rule="nonzero"/></g><g clip-path="url(#acf12c75a6)"><g clip-path="url(#ddc2bedea1)"><path fill="#82bde7" d="M 292.710938 292.164062 C 292.710938 312.191406 246.25 328.421875 188.9375 328.421875 C 131.625 328.421875 85.167969 312.191406 85.167969 292.164062 C 85.167969 272.140625 131.625 255.902344 188.9375 255.902344 C 246.25 255.902344 292.710938 272.160156 292.710938 292.164062 " fill-opacity="1" fill-rule="nonzero"/></g></g><path fill="#a0dcf2" d="M 70.40625 185.554688 L 67.410156 195.972656 C 67.410156 195.972656 66.632812 199.738281 70.1875 200.40625 C 73.898438 200.335938 73.59375 196.867188 73.332031 195.742188 Z M 70.40625 185.554688 " fill-opacity="1" fill-rule="nonzero"/><path fill="#292929" d="M 372.074219 141.863281 L 372.347656 140.507812 C 341.90625 134.429688 310.667969 134.371094 291.746094 135.152344 C 294.851562 123.988281 295.785156 111.136719 295.785156 96.808594 C 295.785156 76.257812 288.050781 59.816406 275.496094 47.304688 C 277.691406 40.234375 280.625 24.53125 272.570312 4.429688 C 272.570312 4.429688 258.34375 -0.0742188 226.238281 21.394531 C 213.648438 18.253906 200.253906 16.703125 186.839844 16.703125 C 172.078125 16.703125 157.164062 18.578125 143.253906 22.386719 C 110.09375 -0.199219 95.460938 4.429688 95.460938 4.429688 C 85.902344 28.300781 91.808594 45.9375 93.605469 50.324219 C 82.375 62.425781 75.515625 77.871094 75.515625 96.804688 C 75.515625 111.101562 77.148438 123.925781 81.132812 135.070312 C 62.070312 134.378906 31.96875 134.644531 2.59375 140.503906 L 2.863281 141.859375 C 32.394531 135.960938 62.683594 135.757812 81.609375 136.472656 C 82.488281 138.777344 83.464844 141 84.558594 143.183594 C 65.824219 143.785156 33.839844 146.164062 3.183594 154.800781 L 3.558594 156.128906 C 34.457031 147.429688 66.722656 145.105469 85.273438 144.542969 C 96.46875 165.367188 118.535156 178.824219 157.792969 183.027344 C 152.21875 186.765625 146.539062 193.117188 144.230469 203.875 C 136.636719 207.496094 112.601562 216.347656 98.179688 191.585938 C 98.179688 191.585938 90.105469 176.851562 74.652344 175.699219 C 74.652344 175.699219 59.667969 175.496094 73.617188 185.023438 C 73.617188 185.023438 83.648438 189.742188 90.566406 207.453125 C 90.566406 207.453125 99.597656 237.695312 143.15625 227.992188 L 143.15625 259.234375 C 143.15625 259.234375 142.238281 270.285156 132.089844 273.964844 C 121.941406 277.644531 126.09375 278.109375 132.550781 280.40625 C 132.550781 280.40625 160.679688 282.710938 160.679688 259.691406 L 160.679688 225.628906 C 160.679688 225.628906 159.566406 212.117188 166.207031 207.421875 L 166.207031 263.425781 C 166.207031 263.425781 165.75 276.777344 158.832031 281.839844 C 151.914062 286.90625 154.222656 290.125 164.367188 287.824219 C 164.367188 287.824219 183.730469 285.0625 184.652344 262.503906 L 185.09375 205.882812 L 189.746094 205.882812 L 190.191406 262.503906 C 191.113281 285.0625 210.480469 287.824219 210.480469 287.824219 C 220.621094 290.125 216.011719 281.839844 216.011719 281.839844 C 209.09375 276.777344 208.632812 263.425781 208.632812 263.425781 L 208.632812 207.957031 C 215.277344 213.101562 214.167969 225.679688 214.167969 225.679688 L 214.167969 259.742188 C 214.167969 282.761719 242.292969 280.457031 242.292969 280.457031 C 248.746094 278.160156 242.757812 274.015625 242.757812 274.015625 C 232.609375 270.3125 231.6875 259.285156 231.6875 259.285156 L 231.6875 214.632812 C 231.6875 197.222656 224.34375 188 217.160156 183.132812 C 259.007812 178.988281 279.117188 165.492188 288.378906 144.519531 C 306.714844 145.023438 339.71875 147.253906 371.289062 156.148438 L 371.664062 154.820312 C 340.273438 145.980469 307.492188 143.695312 288.964844 143.15625 C 289.84375 141.035156 290.609375 138.832031 291.289062 136.570312 C 310.058594 135.746094 341.4375 135.777344 372 141.878906 " fill-opacity="1" fill-rule="nonzero"/><path fill="#f5cdb5" d="M 254.863281 95.824219 C 263.878906 103.980469 269.15625 113.832031 269.15625 124.441406 C 269.15625 173.988281 232.15625 175.332031 186.523438 175.332031 C 140.890625 175.332031 103.882812 168.5 103.882812 124.480469 C 103.882812 113.9375 109.085938 104.148438 117.992188 96.027344 C 132.847656 82.488281 157.992188 89.65625 186.511719 89.65625 C 214.925781 89.65625 239.972656 82.417969 254.847656 95.863281 " fill-opacity="1" fill-rule="nonzero"/><path fill="#ffffff" d="M 159.042969 126.984375 C 159.042969 140.628906 151.34375 151.691406 141.847656 151.691406 C 132.355469 151.691406 124.652344 140.628906 124.652344 126.984375 C 124.652344 113.335938 132.355469 102.28125 141.847656 102.28125 C 151.34375 102.28125 159.042969 113.335938 159.042969 126.984375 " fill-opacity="1" fill-rule="nonzero"/><path fill="#b1645a" d="M 153.523438 127.292969 C 153.523438 136.386719 148.371094 143.761719 142.0625 143.761719 C 135.753906 143.761719 130.601562 136.386719 130.601562 127.292969 C 130.601562 118.195312 135.730469 110.816406 142.0625 110.816406 C 148.394531 110.816406 153.523438 118.191406 153.523438 127.292969 " fill-opacity="1" fill-rule="nonzero"/><path fill="#ffffff" d="M 251.273438 126.984375 C 251.273438 140.628906 243.578125 151.691406 234.078125 151.691406 C 224.578125 151.691406 216.886719 140.628906 216.886719 126.984375 C 216.886719 113.335938 224.585938 102.28125 234.078125 102.28125 C 243.570312 102.28125 251.273438 113.335938 251.273438 126.984375 " fill-opacity="1" fill-rule="nonzero"/><path fill="#b1645a" d="M 245.769531 127.292969 C 245.769531 136.386719 240.617188 143.761719 234.308594 143.761719 C 228 143.761719 222.847656 136.386719 222.847656 127.292969 C 222.847656 118.195312 228 110.816406 234.308594 110.816406 C 240.617188 110.816406 245.769531 118.191406 245.769531 127.292969 M 191.070312 148.902344 C 191.070312 151.273438 189.144531 153.195312 186.769531 153.195312 C 184.394531 153.195312 182.46875 151.273438 182.46875 148.902344 C 182.46875 146.53125 184.390625 144.609375 186.769531 144.609375 C 189.144531 144.609375 191.070312 146.53125 191.070312 148.902344 M 176.753906 159.757812 C 176.691406 159.585938 176.664062 159.40625 176.675781 159.222656 C 176.683594 159.039062 176.730469 158.867188 176.808594 158.699219 C 176.886719 158.535156 176.996094 158.390625 177.132812 158.269531 C 177.265625 158.144531 177.421875 158.054688 177.59375 157.992188 C 177.769531 157.933594 177.945312 157.90625 178.128906 157.917969 C 178.3125 157.925781 178.488281 157.96875 178.652344 158.050781 C 178.820312 158.128906 178.960938 158.238281 179.085938 158.371094 C 179.207031 158.507812 179.300781 158.664062 179.359375 158.835938 C 180.464844 161.953125 183.425781 164.050781 186.734375 164.050781 C 190.039062 164.050781 193 161.953125 194.109375 158.835938 C 194.171875 158.664062 194.261719 158.511719 194.386719 158.375 C 194.507812 158.238281 194.652344 158.128906 194.816406 158.050781 C 194.984375 157.972656 195.15625 157.929688 195.339844 157.917969 C 195.523438 157.910156 195.699219 157.933594 195.875 157.996094 C 196.046875 158.058594 196.199219 158.148438 196.335938 158.269531 C 196.472656 158.394531 196.582031 158.539062 196.660156 158.703125 C 196.738281 158.867188 196.78125 159.042969 196.792969 159.222656 C 196.800781 159.40625 196.777344 159.585938 196.714844 159.757812 C 196.34375 160.78125 195.828125 161.726562 195.164062 162.589844 C 194.5 163.453125 193.722656 164.199219 192.828125 164.824219 C 191.9375 165.449219 190.96875 165.925781 189.929688 166.253906 C 188.890625 166.582031 187.824219 166.746094 186.734375 166.746094 C 185.644531 166.746094 184.578125 166.582031 183.539062 166.253906 C 182.5 165.925781 181.53125 165.449219 180.636719 164.824219 C 179.746094 164.199219 178.96875 163.453125 178.304688 162.589844 C 177.640625 161.726562 177.125 160.78125 176.753906 159.757812 " fill-opacity="1" fill-rule="nonzero"/><path fill="#c5e6da" d="M 81.414062 179.421875 C 81.414062 180.566406 80.070312 181.492188 78.414062 181.492188 C 76.761719 181.492188 75.417969 180.566406 75.417969 179.421875 C 75.417969 178.277344 76.757812 177.347656 78.414062 177.347656 C 80.074219 177.347656 81.414062 178.273438 81.414062 179.421875 M 89.71875 184.019531 C 89.71875 185.167969 88.375 186.09375 86.71875 186.09375 C 85.0625 186.09375 83.722656 185.167969 83.722656 184.019531 C 83.722656 182.871094 85.0625 181.949219 86.71875 181.949219 C 88.375 181.949219 89.71875 182.875 89.71875 184.019531 M 94.792969 189.988281 C 94.792969 191.128906 93.453125 192.058594 91.792969 192.058594 C 90.132812 192.058594 88.796875 191.132812 88.796875 189.988281 C 88.796875 188.84375 90.136719 187.914062 91.792969 187.914062 C 93.449219 187.914062 94.792969 188.839844 94.792969 189.988281 M 99.402344 196.898438 C 99.402344 198.042969 98.058594 198.972656 96.40625 198.972656 C 94.75 198.972656 93.40625 198.046875 93.40625 196.898438 C 93.40625 195.75 94.746094 194.824219 96.40625 194.824219 C 98.066406 194.824219 99.402344 195.75 99.402344 196.898438 M 104.476562 203.367188 C 104.476562 204.507812 103.136719 205.4375 101.476562 205.4375 C 99.820312 205.4375 98.480469 204.507812 98.480469 203.367188 C 98.480469 202.222656 99.824219 201.292969 101.476562 201.292969 C 103.132812 201.292969 104.476562 202.21875 104.476562 203.367188 M 111.394531 208.886719 C 111.394531 210.035156 110.054688 210.960938 108.394531 210.960938 C 106.738281 210.960938 105.402344 210.035156 105.402344 208.886719 C 105.402344 207.738281 106.742188 206.816406 108.394531 206.816406 C 110.050781 206.816406 111.394531 207.742188 111.394531 208.886719 " fill-opacity="1" fill-rule="nonzero"/><path fill="#c5e6da" d="M 121.082031 212.5625 C 121.082031 213.703125 119.742188 214.632812 118.082031 214.632812 C 116.425781 214.632812 115.082031 213.707031 115.082031 212.5625 C 115.082031 211.417969 116.421875 210.488281 118.082031 210.488281 C 119.742188 210.488281 121.082031 211.414062 121.082031 212.5625 " fill-opacity="1" fill-rule="nonzero"/><path fill="#c5e6da" d="M 130.71875 212.5625 C 130.71875 213.703125 129.378906 214.632812 127.722656 214.632812 C 126.066406 214.632812 124.722656 213.707031 124.722656 212.5625 C 124.722656 211.417969 126.0625 210.488281 127.722656 210.488281 C 129.382812 210.488281 130.71875 211.414062 130.71875 212.5625 " fill-opacity="1" fill-rule="nonzero"/><path fill="#c5e6da" d="M 140.503906 210.960938 C 140.503906 212.105469 139.164062 213.035156 137.503906 213.035156 C 135.847656 213.035156 134.507812 212.109375 134.507812 210.960938 C 134.507812 209.8125 135.847656 208.886719 137.503906 208.886719 C 139.164062 208.886719 140.503906 209.8125 140.503906 210.960938 " fill-opacity="1" fill-rule="nonzero"/></svg>