<svg xmlns="http://www.w3.org/2000/svg" xmlns:xlink="http://www.w3.org/1999/xlink" width="500" zoomAndPan="magnify" viewBox="0 0 375 374.999991" height="500" preserveAspectRatio="xMidYMid meet" version="1.0"><defs><clipPath id="c9e0181b3a"><path d="M 264 0 L 337.148438 0 L 337.148438 73 L 264 73 Z M 264 0 " clip-rule="nonzero"/></clipPath><clipPath id="d6441a6e57"><path d="M 59 0 L 337.148438 0 L 337.148438 375 L 59 375 Z M 59 0 " clip-rule="nonzero"/></clipPath><clipPath id="b951e863de"><path d="M 270 72 L 337.148438 72 L 337.148438 85 L 270 85 Z M 270 72 " clip-rule="nonzero"/></clipPath><clipPath id="cfd2c67e6c"><path d="M 10.910156 18 L 229 18 L 229 115 L 10.910156 115 Z M 10.910156 18 " clip-rule="nonzero"/></clipPath></defs><g clip-path="url(#c9e0181b3a)"><path fill="#ffaf36" d="M 264.648438 0.0078125 L 337.148438 72.585938 L 264.648438 72.585938 Z M 264.648438 0.0078125 " fill-opacity="1" fill-rule="nonzero"/></g><g clip-path="url(#d6441a6e57)"><path fill="#ff6d00" d="M 337.148438 72.585938 L 337.148438 374.992188 L 59.230469 374.992188 L 59.230469 0.0078125 L 264.648438 0.0078125 L 264.648438 72.585938 Z M 337.148438 72.585938 " fill-opacity="1" fill-rule="nonzero"/></g><path fill="#f54e00" d="M 71.316406 48.390625 L 71.316406 338.703125 C 71.316406 339.496094 71.355469 340.289062 71.429688 341.074219 C 71.507812 341.863281 71.625 342.648438 71.777344 343.425781 C 71.933594 344.203125 72.125 344.96875 72.355469 345.726562 C 72.585938 346.484375 72.851562 347.230469 73.15625 347.960938 C 73.457031 348.695312 73.796875 349.410156 74.167969 350.109375 C 74.542969 350.808594 74.949219 351.484375 75.386719 352.144531 C 75.828125 352.804688 76.296875 353.441406 76.800781 354.050781 C 77.300781 354.664062 77.832031 355.25 78.394531 355.8125 C 78.953125 356.371094 79.539062 356.902344 80.148438 357.40625 C 80.761719 357.910156 81.398438 358.378906 82.054688 358.820312 C 82.714844 359.261719 83.390625 359.667969 84.089844 360.039062 C 84.789062 360.414062 85.503906 360.753906 86.234375 361.054688 C 86.964844 361.359375 87.707031 361.625 88.464844 361.855469 C 89.222656 362.085938 89.992188 362.277344 90.765625 362.433594 C 91.542969 362.585938 92.324219 362.703125 93.113281 362.78125 C 93.898438 362.859375 94.691406 362.898438 95.480469 362.898438 L 300.898438 362.898438 C 301.691406 362.898438 302.480469 362.859375 303.265625 362.78125 C 304.054688 362.703125 304.835938 362.585938 305.613281 362.433594 C 306.390625 362.277344 307.15625 362.085938 307.914062 361.855469 C 308.671875 361.625 309.414062 361.359375 310.144531 361.054688 C 310.878906 360.753906 311.59375 360.414062 312.289062 360.039062 C 312.988281 359.667969 313.667969 359.261719 314.324219 358.820312 C 314.984375 358.378906 315.617188 357.910156 316.230469 357.40625 C 316.839844 356.902344 317.425781 356.371094 317.988281 355.8125 C 318.546875 355.25 319.078125 354.664062 319.578125 354.050781 C 320.082031 353.441406 320.550781 352.804688 320.992188 352.144531 C 321.429688 351.484375 321.839844 350.808594 322.210938 350.109375 C 322.585938 349.410156 322.921875 348.695312 323.226562 347.960938 C 323.527344 347.230469 323.792969 346.484375 324.023438 345.726562 C 324.253906 344.96875 324.445312 344.203125 324.601562 343.425781 C 324.753906 342.648438 324.871094 341.863281 324.949219 341.074219 C 325.027344 340.289062 325.066406 339.496094 325.066406 338.703125 L 325.066406 325.863281 C 71.316406 310.210938 71.316406 48.390625 71.316406 48.390625 Z M 71.316406 48.390625 " fill-opacity="1" fill-rule="nonzero"/><g clip-path="url(#b951e863de)"><path fill="#f54e00" d="M 270.691406 72.585938 L 337.148438 72.585938 L 337.148438 84.679688 L 270.691406 84.679688 Z M 270.691406 72.585938 " fill-opacity="1" fill-rule="nonzero"/></g><g clip-path="url(#cfd2c67e6c)"><path fill="#f54100" d="M 10.898438 18.152344 L 228.398438 18.152344 L 228.398438 114.921875 L 10.898438 114.921875 Z M 10.898438 18.152344 " fill-opacity="1" fill-rule="nonzero"/></g><path fill="#d63900" d="M 59.230469 114.921875 L 216.316406 114.921875 L 216.316406 133.066406 L 59.230469 133.066406 Z M 59.230469 114.921875 " fill-opacity="1" fill-rule="nonzero"/><path fill="#ffffff" d="M 192.148438 84.679688 L 192.148438 36.296875 L 180.066406 36.296875 L 180.066406 90.730469 C 180.066406 91.125 180.101562 91.519531 180.179688 91.910156 C 180.257812 92.296875 180.371094 92.675781 180.523438 93.042969 C 180.675781 93.410156 180.863281 93.757812 181.082031 94.089844 C 181.304688 94.417969 181.554688 94.726562 181.835938 95.003906 C 182.113281 95.285156 182.421875 95.539062 182.75 95.757812 C 183.078125 95.980469 183.429688 96.164062 183.792969 96.316406 C 184.160156 96.46875 184.539062 96.582031 184.929688 96.660156 C 185.316406 96.738281 185.710938 96.777344 186.105469 96.777344 L 210.273438 96.777344 L 210.273438 84.679688 Z M 192.148438 84.679688 " fill-opacity="1" fill-rule="nonzero"/><path fill="#ffffff" d="M 59.230469 60.488281 L 41.105469 60.488281 L 41.105469 36.296875 L 29.023438 36.296875 L 29.023438 96.777344 L 41.105469 96.777344 L 41.105469 72.585938 L 59.230469 72.585938 L 59.230469 96.777344 L 71.316406 96.777344 L 71.316406 36.296875 L 59.230469 36.296875 Z M 59.230469 60.488281 " fill-opacity="1" fill-rule="nonzero"/><path fill="#ffffff" d="M 77.355469 48.390625 L 89.441406 48.390625 L 89.441406 96.777344 L 101.523438 96.777344 L 101.523438 48.390625 L 113.605469 48.390625 L 113.605469 36.296875 L 77.355469 36.296875 Z M 77.355469 48.390625 " fill-opacity="1" fill-rule="nonzero"/><path fill="#ffffff" d="M 163.148438 36.421875 C 162.464844 36.277344 161.78125 36.253906 161.089844 36.347656 C 160.402344 36.445312 159.746094 36.652344 159.128906 36.976562 C 158.511719 37.296875 157.96875 37.714844 157.496094 38.226562 C 157.023438 38.742188 156.652344 39.320312 156.382812 39.960938 L 143.816406 69.324219 L 131.242188 39.960938 C 130.96875 39.320312 130.59375 38.746094 130.121094 38.234375 C 129.648438 37.722656 129.105469 37.308594 128.488281 36.984375 C 127.871094 36.664062 127.21875 36.453125 126.53125 36.355469 C 125.839844 36.257812 125.15625 36.28125 124.476562 36.421875 C 123.792969 36.5625 123.15625 36.8125 122.558594 37.171875 C 121.964844 37.53125 121.449219 37.984375 121.007812 38.523438 C 120.570312 39.0625 120.230469 39.660156 120 40.316406 C 119.765625 40.972656 119.648438 41.648438 119.648438 42.34375 L 119.648438 96.777344 L 131.730469 96.777344 L 131.730469 71.808594 L 138.261719 87.0625 C 138.496094 87.609375 138.800781 88.105469 139.179688 88.558594 C 139.558594 89.015625 139.996094 89.402344 140.488281 89.730469 C 140.984375 90.054688 141.511719 90.300781 142.078125 90.472656 C 142.644531 90.644531 143.222656 90.726562 143.816406 90.726562 C 144.40625 90.726562 144.984375 90.644531 145.550781 90.472656 C 146.117188 90.300781 146.644531 90.054688 147.140625 89.730469 C 147.632812 89.402344 148.070312 89.015625 148.449219 88.558594 C 148.828125 88.105469 149.132812 87.609375 149.367188 87.0625 L 155.898438 71.808594 L 155.898438 96.777344 L 167.980469 96.777344 L 167.980469 42.34375 C 167.980469 41.648438 167.863281 40.972656 167.628906 40.316406 C 167.394531 39.660156 167.058594 39.0625 166.617188 38.523438 C 166.179688 37.980469 165.660156 37.53125 165.0625 37.171875 C 164.46875 36.8125 163.828125 36.5625 163.148438 36.421875 Z M 163.148438 36.421875 " fill-opacity="1" fill-rule="nonzero"/><path fill="#ffffff" d="M 131.730469 296.367188 L 83.398438 241.933594 L 131.730469 187.5 L 155.898438 187.5 L 107.566406 241.933594 L 155.898438 296.367188 Z M 131.730469 296.367188 " fill-opacity="1" fill-rule="nonzero"/><path fill="#ffffff" d="M 264.648438 296.367188 L 312.980469 241.933594 L 264.648438 187.5 L 240.480469 187.5 L 288.816406 241.933594 L 240.480469 296.367188 Z M 264.648438 296.367188 " fill-opacity="1" fill-rule="nonzero"/><path fill="#ffffff" d="M 174.023438 296.367188 L 204.230469 187.5 L 222.355469 187.5 L 192.148438 296.367188 Z M 174.023438 296.367188 " fill-opacity="1" fill-rule="nonzero"/><path fill="#d63900" d="M 83.398438 241.933594 L 120.988281 199.597656 L 119.648438 199.597656 L 71.316406 254.03125 L 119.648438 308.464844 L 143.816406 308.464844 L 133.074219 296.367188 L 131.730469 296.367188 Z M 83.398438 241.933594 " fill-opacity="1" fill-rule="nonzero"/><path fill="#d63900" d="M 288.816406 241.933594 L 251.222656 199.597656 L 228.398438 199.597656 L 276.730469 254.03125 L 228.398438 308.464844 L 252.566406 308.464844 L 263.308594 296.367188 L 240.480469 296.367188 Z M 288.816406 241.933594 " fill-opacity="1" fill-rule="nonzero"/><path fill="#d63900" d="M 200.871094 199.597656 L 192.148438 199.597656 L 161.941406 308.464844 L 180.066406 308.464844 L 183.425781 296.367188 L 174.023438 296.367188 Z M 200.871094 199.597656 " fill-opacity="1" fill-rule="nonzero"/><path fill="#d63900" d="M 180.066406 90.730469 L 180.066406 42.34375 L 174.023438 42.34375 L 174.023438 96.777344 C 174.023438 97.175781 174.0625 97.566406 174.140625 97.957031 C 174.214844 98.347656 174.332031 98.726562 174.484375 99.09375 C 174.636719 99.457031 174.820312 99.808594 175.042969 100.136719 C 175.261719 100.46875 175.511719 100.773438 175.792969 101.054688 C 176.074219 101.335938 176.378906 101.585938 176.707031 101.804688 C 177.039062 102.027344 177.386719 102.214844 177.753906 102.363281 C 178.121094 102.515625 178.496094 102.632812 178.886719 102.710938 C 179.273438 102.785156 179.667969 102.824219 180.066406 102.824219 L 204.230469 102.824219 L 204.230469 96.777344 L 186.105469 96.777344 C 185.710938 96.777344 185.316406 96.738281 184.929688 96.660156 C 184.539062 96.582031 184.160156 96.46875 183.792969 96.316406 C 183.429688 96.164062 183.078125 95.980469 182.75 95.757812 C 182.421875 95.539062 182.113281 95.285156 181.835938 95.003906 C 181.554688 94.726562 181.304688 94.417969 181.082031 94.089844 C 180.863281 93.757812 180.675781 93.410156 180.523438 93.042969 C 180.371094 92.675781 180.257812 92.296875 180.179688 91.910156 C 180.101562 91.519531 180.066406 91.125 180.066406 90.730469 Z M 180.066406 90.730469 " fill-opacity="1" fill-rule="nonzero"/><path fill="#d63900" d="M 53.191406 42.34375 L 59.230469 42.34375 L 59.230469 60.488281 L 53.191406 60.488281 Z M 53.191406 42.34375 " fill-opacity="1" fill-rule="nonzero"/><path fill="#d63900" d="M 29.023438 42.34375 L 22.980469 42.34375 L 22.980469 102.824219 L 35.066406 102.824219 L 35.066406 96.777344 L 29.023438 96.777344 Z M 29.023438 42.34375 " fill-opacity="1" fill-rule="nonzero"/><path fill="#d63900" d="M 59.230469 72.585938 L 41.105469 72.585938 L 41.105469 78.632812 L 53.191406 78.632812 L 53.191406 102.824219 L 65.273438 102.824219 L 65.273438 96.777344 L 59.230469 96.777344 Z M 59.230469 72.585938 " fill-opacity="1" fill-rule="nonzero"/><path fill="#d63900" d="M 101.523438 48.390625 L 107.566406 48.390625 L 107.566406 54.441406 L 101.523438 54.441406 Z M 101.523438 48.390625 " fill-opacity="1" fill-rule="nonzero"/><path fill="#d63900" d="M 89.441406 48.390625 L 77.355469 48.390625 L 77.355469 42.34375 L 71.316406 42.34375 L 71.316406 54.441406 L 83.398438 54.441406 L 83.398438 102.824219 L 95.480469 102.824219 L 95.480469 96.777344 L 89.441406 96.777344 Z M 89.441406 48.390625 " fill-opacity="1" fill-rule="nonzero"/><path fill="#d63900" d="M 119.648438 42.429688 C 119.242188 42.398438 118.839844 42.410156 118.441406 42.472656 C 117.757812 42.609375 117.121094 42.859375 116.523438 43.21875 C 115.929688 43.582031 115.410156 44.03125 114.96875 44.570312 C 114.53125 45.109375 114.191406 45.707031 113.957031 46.363281 C 113.722656 47.019531 113.605469 47.695312 113.605469 48.390625 L 113.605469 102.824219 L 125.691406 102.824219 L 125.691406 96.777344 L 119.648438 96.777344 Z M 119.648438 42.429688 " fill-opacity="1" fill-rule="nonzero"/><path fill="#d63900" d="M 155.34375 42.402344 C 154.800781 42.453125 154.277344 42.574219 153.769531 42.765625 C 153.261719 42.957031 152.785156 43.210938 152.347656 43.53125 C 151.90625 43.851562 151.515625 44.222656 151.175781 44.648438 C 150.839844 45.070312 150.5625 45.535156 150.347656 46.03125 L 142.085938 65.328125 L 143.816406 69.355469 Z M 155.34375 42.402344 " fill-opacity="1" fill-rule="nonzero"/><path fill="#d63900" d="M 138.261719 87.0625 L 131.730469 71.808594 L 131.730469 91.9375 L 132.222656 93.082031 C 132.453125 93.625 132.761719 94.125 133.140625 94.578125 C 133.519531 95.03125 133.953125 95.421875 134.449219 95.746094 C 134.941406 96.074219 135.472656 96.320312 136.039062 96.492188 C 136.605469 96.660156 137.183594 96.746094 137.773438 96.746094 C 138.363281 96.746094 138.941406 96.660156 139.507812 96.492188 C 140.074219 96.320312 140.605469 96.074219 141.097656 95.746094 C 141.589844 95.421875 142.027344 95.03125 142.40625 94.578125 C 142.785156 94.125 143.09375 93.625 143.324219 93.082031 L 144.382812 90.613281 C 144.1875 90.613281 144.007812 90.699219 143.816406 90.699219 C 143.226562 90.699219 142.648438 90.617188 142.082031 90.449219 C 141.519531 90.28125 140.988281 90.035156 140.496094 89.710938 C 140.003906 89.390625 139.566406 89.003906 139.183594 88.550781 C 138.804688 88.101562 138.496094 87.605469 138.261719 87.0625 Z M 138.261719 87.0625 " fill-opacity="1" fill-rule="nonzero"/><path fill="#d63900" d="M 155.898438 71.808594 L 149.855469 85.921875 L 149.855469 102.824219 L 161.941406 102.824219 L 161.941406 96.777344 L 155.898438 96.777344 Z M 155.898438 71.808594 " fill-opacity="1" fill-rule="nonzero"/></svg>