<svg xmlns="http://www.w3.org/2000/svg" xmlns:xlink="http://www.w3.org/1999/xlink" width="500" zoomAndPan="magnify" viewBox="0 0 375 374.999991" height="500" preserveAspectRatio="xMidYMid meet" version="1.0"><path fill="#ffc44d" d="M 12.210938 -0.871094 C 4.984375 -0.871094 -0.871094 4.984375 -0.871094 12.210938 L -0.871094 361.046875 C -0.871094 368.269531 4.984375 374.128906 12.210938 374.128906 L 361.046875 374.128906 C 368.269531 374.128906 374.128906 368.269531 374.128906 361.046875 L 374.128906 12.210938 C 374.128906 4.984375 368.269531 -0.871094 361.046875 -0.871094 Z M 12.210938 -0.871094 " fill-opacity="1" fill-rule="nonzero"/><path fill="#e5b045" d="M 186.628906 -0.871094 L 186.628906 374.128906 L 12.210938 374.128906 C 4.984375 374.128906 -0.871094 368.269531 -0.871094 361.046875 L -0.871094 12.210938 C -0.871094 4.984375 4.984375 -0.871094 12.210938 -0.871094 Z M 186.628906 -0.871094 " fill-opacity="1" fill-rule="evenodd"/><path fill="#eceff1" d="M 265.117188 199.710938 C 257.890625 199.710938 252.035156 205.566406 252.035156 212.789062 L 252.035156 221.511719 C 252.035156 228.734375 257.890625 234.59375 265.117188 234.59375 L 291.277344 234.59375 C 312.953125 234.59375 330.523438 252.164062 330.523438 273.835938 L 330.523438 282.558594 C 330.523438 304.230469 312.953125 321.800781 291.277344 321.800781 L 238.953125 321.800781 C 231.730469 321.800781 225.871094 315.945312 225.871094 308.722656 C 225.871094 301.496094 231.730469 295.640625 238.953125 295.640625 L 291.277344 295.640625 C 298.503906 295.640625 304.359375 289.78125 304.359375 282.558594 L 304.359375 273.835938 C 304.359375 266.613281 298.503906 260.753906 291.277344 260.753906 L 265.117188 260.753906 C 243.441406 260.753906 225.871094 243.183594 225.871094 221.511719 L 225.871094 212.789062 C 225.871094 191.117188 243.441406 173.546875 265.117188 173.546875 L 317.441406 173.546875 C 324.667969 173.546875 330.523438 179.402344 330.523438 186.628906 C 330.523438 193.851562 324.667969 199.710938 317.441406 199.710938 Z M 265.117188 199.710938 " fill-opacity="1" fill-rule="evenodd"/><path fill="#cfd8dc" d="M 195.347656 173.546875 C 202.574219 173.546875 208.429688 179.402344 208.429688 186.628906 L 208.429688 282.558594 C 208.429688 304.230469 190.859375 321.800781 169.1875 321.800781 L 143.023438 321.800781 C 121.347656 321.800781 103.777344 304.230469 103.777344 282.558594 L 103.777344 273.835938 C 103.777344 266.613281 109.636719 260.753906 116.859375 260.753906 C 124.085938 260.753906 129.941406 266.613281 129.941406 273.835938 L 129.941406 282.558594 C 129.941406 289.78125 135.796875 295.640625 143.023438 295.640625 L 169.1875 295.640625 C 176.410156 295.640625 182.265625 289.78125 182.265625 282.558594 L 182.265625 186.628906 C 182.265625 179.402344 188.125 173.546875 195.347656 173.546875 Z M 195.347656 173.546875 " fill-opacity="1" fill-rule="evenodd"/></svg>