<svg xmlns="http://www.w3.org/2000/svg" xmlns:xlink="http://www.w3.org/1999/xlink" width="302" zoomAndPan="magnify" viewBox="0 0 226.5 226.499992" height="302" preserveAspectRatio="xMidYMid meet" version="1.0"><defs><g/><clipPath id="42f672b26f"><path d="M 47 15 L 57 15 L 57 33 L 47 33 Z M 47 15 " clip-rule="nonzero"/></clipPath><clipPath id="df10084782"><path d="M 15.101562 39.46875 L 68.503906 0.683594 L 85.25 23.742188 L 31.847656 62.527344 Z M 15.101562 39.46875 " clip-rule="nonzero"/></clipPath><clipPath id="014bda3f72"><path d="M 15.101562 39.46875 L 68.503906 0.683594 L 85.25 23.742188 L 31.847656 62.527344 Z M 15.101562 39.46875 " clip-rule="nonzero"/></clipPath><clipPath id="f3b9729715"><path d="M 15.101562 39.46875 L 68.503906 0.683594 L 85.25 23.742188 L 31.847656 62.527344 Z M 15.101562 39.46875 " clip-rule="nonzero"/></clipPath><clipPath id="44d54d6d9b"><path d="M 27 39 L 45 39 L 45 47 L 27 47 Z M 27 39 " clip-rule="nonzero"/></clipPath><clipPath id="270b711a9c"><path d="M 15.101562 39.46875 L 68.503906 0.683594 L 85.25 23.742188 L 31.847656 62.527344 Z M 15.101562 39.46875 " clip-rule="nonzero"/></clipPath><clipPath id="882ef25231"><path d="M 15.101562 39.46875 L 68.503906 0.683594 L 85.25 23.742188 L 31.847656 62.527344 Z M 15.101562 39.46875 " clip-rule="nonzero"/></clipPath><clipPath id="2ece25a513"><path d="M 15.101562 39.46875 L 68.503906 0.683594 L 85.25 23.742188 L 31.847656 62.527344 Z M 15.101562 39.46875 " clip-rule="nonzero"/></clipPath><clipPath id="1060463ee7"><path d="M 34 25 L 50 25 L 50 39 L 34 39 Z M 34 25 " clip-rule="nonzero"/></clipPath><clipPath id="d48bdcd585"><path d="M 15.101562 39.46875 L 68.503906 0.683594 L 85.25 23.742188 L 31.847656 62.527344 Z M 15.101562 39.46875 " clip-rule="nonzero"/></clipPath><clipPath id="b182f7e598"><path d="M 15.101562 39.46875 L 68.503906 0.683594 L 85.25 23.742188 L 31.847656 62.527344 Z M 15.101562 39.46875 " clip-rule="nonzero"/></clipPath><clipPath id="bf13896ca2"><path d="M 15.101562 39.46875 L 68.503906 0.683594 L 85.25 23.742188 L 31.847656 62.527344 Z M 15.101562 39.46875 " clip-rule="nonzero"/></clipPath><clipPath id="c9cf915690"><path d="M 63 15 L 67 15 L 67 32 L 63 32 Z M 63 15 " clip-rule="nonzero"/></clipPath><clipPath id="7ba25e9b9e"><path d="M 15.101562 39.46875 L 68.503906 0.683594 L 85.25 23.742188 L 31.847656 62.527344 Z M 15.101562 39.46875 " clip-rule="nonzero"/></clipPath><clipPath id="abc8aaec2e"><path d="M 15.101562 39.46875 L 68.503906 0.683594 L 85.25 23.742188 L 31.847656 62.527344 Z M 15.101562 39.46875 " clip-rule="nonzero"/></clipPath><clipPath id="ea0a9ec947"><path d="M 15.101562 39.46875 L 68.503906 0.683594 L 85.25 23.742188 L 31.847656 62.527344 Z M 15.101562 39.46875 " clip-rule="nonzero"/></clipPath><clipPath id="bbe05bc1e0"><path d="M 27 53 L 44 53 L 44 58 L 27 58 Z M 27 53 " clip-rule="nonzero"/></clipPath><clipPath id="52f9ba7915"><path d="M 15.101562 39.46875 L 68.503906 0.683594 L 85.25 23.742188 L 31.847656 62.527344 Z M 15.101562 39.46875 " clip-rule="nonzero"/></clipPath><clipPath id="a3d5025d1e"><path d="M 15.101562 39.46875 L 68.503906 0.683594 L 85.25 23.742188 L 31.847656 62.527344 Z M 15.101562 39.46875 " clip-rule="nonzero"/></clipPath><clipPath id="495886f907"><path d="M 15.101562 39.46875 L 68.503906 0.683594 L 85.25 23.742188 L 31.847656 62.527344 Z M 15.101562 39.46875 " clip-rule="nonzero"/></clipPath><clipPath id="6ccdd6808c"><path d="M 73 17 L 82 17 L 82 32 L 73 32 Z M 73 17 " clip-rule="nonzero"/></clipPath><clipPath id="f210ace13d"><path d="M 15.101562 39.46875 L 68.503906 0.683594 L 85.25 23.742188 L 31.847656 62.527344 Z M 15.101562 39.46875 " clip-rule="nonzero"/></clipPath><clipPath id="6aadbe0ee5"><path d="M 15.101562 39.46875 L 68.503906 0.683594 L 85.25 23.742188 L 31.847656 62.527344 Z M 15.101562 39.46875 " clip-rule="nonzero"/></clipPath><clipPath id="b21a3bbba5"><path d="M 15.101562 39.46875 L 68.503906 0.683594 L 85.25 23.742188 L 31.847656 62.527344 Z M 15.101562 39.46875 " clip-rule="nonzero"/></clipPath><clipPath id="af06144ac3"><path d="M 120 84 L 123 84 L 123 87 L 120 87 Z M 120 84 " clip-rule="nonzero"/></clipPath><clipPath id="d67e9235b0"><path d="M 124.28125 62.554688 L 129.007812 116.347656 L 117.800781 117.332031 L 113.074219 63.539062 Z M 124.28125 62.554688 " clip-rule="nonzero"/></clipPath><clipPath id="ace3977134"><path d="M 121 86 L 124 86 L 124 88 L 121 88 Z M 121 86 " clip-rule="nonzero"/></clipPath><clipPath id="00bfaf0380"><path d="M 124.28125 62.554688 L 129.007812 116.347656 L 117.800781 117.332031 L 113.074219 63.539062 Z M 124.28125 62.554688 " clip-rule="nonzero"/></clipPath><clipPath id="d915722228"><path d="M 121 87 L 123 87 L 123 89 L 121 89 Z M 121 87 " clip-rule="nonzero"/></clipPath><clipPath id="4ca8c85ecc"><path d="M 124.28125 62.554688 L 129.007812 116.347656 L 117.800781 117.332031 L 113.074219 63.539062 Z M 124.28125 62.554688 " clip-rule="nonzero"/></clipPath><clipPath id="f7908094d4"><path d="M 121 89 L 124 89 L 124 91 L 121 91 Z M 121 89 " clip-rule="nonzero"/></clipPath><clipPath id="0fd3f696eb"><path d="M 124.28125 62.554688 L 129.007812 116.347656 L 117.800781 117.332031 L 113.074219 63.539062 Z M 124.28125 62.554688 " clip-rule="nonzero"/></clipPath><clipPath id="c94578ff56"><path d="M 121 90 L 124 90 L 124 93 L 121 93 Z M 121 90 " clip-rule="nonzero"/></clipPath><clipPath id="91ffa0d545"><path d="M 124.28125 62.554688 L 129.007812 116.347656 L 117.800781 117.332031 L 113.074219 63.539062 Z M 124.28125 62.554688 " clip-rule="nonzero"/></clipPath><clipPath id="e546259754"><path d="M 121 92 L 124 92 L 124 94 L 121 94 Z M 121 92 " clip-rule="nonzero"/></clipPath><clipPath id="5a06738c29"><path d="M 124.28125 62.554688 L 129.007812 116.347656 L 117.800781 117.332031 L 113.074219 63.539062 Z M 124.28125 62.554688 " clip-rule="nonzero"/></clipPath><clipPath id="8db1b1c2b4"><path d="M 121 93 L 124 93 L 124 95 L 121 95 Z M 121 93 " clip-rule="nonzero"/></clipPath><clipPath id="613095807f"><path d="M 124.28125 62.554688 L 129.007812 116.347656 L 117.800781 117.332031 L 113.074219 63.539062 Z M 124.28125 62.554688 " clip-rule="nonzero"/></clipPath></defs><g fill="#00ffff" fill-opacity="1"><g transform="translate(52.167127, 183.483319)"><g><path d="M 74.546875 -0.28125 L 53.59375 -0.203125 L 49.921875 -24.15625 L 24.4375 -24.0625 L 20.953125 -0.078125 L 1.890625 0 L 22.515625 -132.203125 L 52.890625 -132.3125 Z M 27.015625 -42 L 47.03125 -42.078125 L 36.75 -108.84375 Z M 27.015625 -42 "/></g></g></g><g fill="#00ffff" fill-opacity="1"><g transform="translate(128.211169, 183.204322)"><g><path d="M 2.46875 -132.09375 L 66.625 -131.828125 L 66.546875 -112.953125 L 44.84375 -113.046875 L 44.34375 0.1875 L 23.59375 0.109375 L 24.09375 -113.125 L 2.390625 -113.21875 Z M 2.46875 -132.09375 "/></g></g></g><g fill="#ff00ff" fill-opacity="1"><g transform="translate(30.787524, 173.513847)"><g><path d="M 74.546875 -0.28125 L 53.59375 -0.203125 L 49.921875 -24.15625 L 24.4375 -24.0625 L 20.953125 -0.078125 L 1.890625 0 L 22.515625 -132.203125 L 52.890625 -132.3125 Z M 27.015625 -42 L 47.03125 -42.078125 L 36.75 -108.84375 Z M 27.015625 -42 "/></g></g></g><g fill="#ff00ff" fill-opacity="1"><g transform="translate(106.831569, 173.234851)"><g><path d="M 2.46875 -132.09375 L 66.625 -131.828125 L 66.546875 -112.953125 L 44.84375 -113.046875 L 44.34375 0.1875 L 23.59375 0.109375 L 24.09375 -113.125 L 2.390625 -113.21875 Z M 2.46875 -132.09375 "/></g></g></g><g fill="#ff9f43" fill-opacity="1"><g transform="translate(41.477325, 178.498581)"><g><path d="M 74.546875 -0.28125 L 53.59375 -0.203125 L 49.921875 -24.15625 L 24.4375 -24.0625 L 20.953125 -0.078125 L 1.890625 0 L 22.515625 -132.203125 L 52.890625 -132.3125 Z M 27.015625 -42 L 47.03125 -42.078125 L 36.75 -108.84375 Z M 27.015625 -42 "/></g></g></g><g fill="#ff9f43" fill-opacity="1"><g transform="translate(117.521369, 178.219586)"><g><path d="M 2.46875 -132.09375 L 66.625 -131.828125 L 66.546875 -112.953125 L 44.84375 -113.046875 L 44.34375 0.1875 L 23.59375 0.109375 L 24.09375 -113.125 L 2.390625 -113.21875 Z M 2.46875 -132.09375 "/></g></g></g><g clip-path="url(#42f672b26f)"><g clip-path="url(#df10084782)"><g clip-path="url(#014bda3f72)"><g clip-path="url(#f3b9729715)"><path fill="#a1c264" d="M 54.703125 24.949219 C 54.664062 25.027344 54.621094 25.109375 54.589844 25.132812 C 54.683594 25.261719 54.785156 25.335938 54.878906 25.464844 C 54.949219 25.5625 55.011719 25.714844 55.050781 25.835938 C 55.074219 25.867188 55.066406 25.925781 55.082031 26.011719 C 55.09375 26.101562 55.085938 26.15625 55.132812 26.222656 C 55.226562 26.351562 55.226562 26.550781 55.40625 26.667969 C 55.429688 26.699219 55.421875 26.753906 55.445312 26.789062 C 55.402344 27.066406 55.589844 27.328125 55.625 27.648438 C 55.617188 27.703125 55.671875 27.710938 55.6875 27.800781 C 55.757812 27.898438 55.796875 28.019531 55.800781 28.164062 C 55.800781 28.363281 55.917969 28.527344 56.003906 28.710938 C 56.050781 28.777344 56.039062 28.832031 56.054688 28.921875 C 56.0625 29.0625 56.066406 29.207031 56.195312 29.316406 C 56.21875 29.347656 56.265625 29.414062 56.234375 29.4375 C 56.15625 29.738281 56.402344 30.007812 56.378906 30.320312 C 56.371094 30.375 56.386719 30.464844 56.378906 30.519531 C 56.382812 30.664062 56.421875 30.785156 56.425781 30.929688 C 56.433594 31.074219 56.414062 31.183594 56.421875 31.328125 C 56.414062 31.730469 56.410156 32.128906 56.382812 32.496094 C 56.371094 32.554688 56.363281 32.609375 56.355469 32.664062 C 56.308594 32.601562 56.226562 32.558594 56.226562 32.558594 C 56.042969 32.644531 56.003906 32.523438 55.878906 32.417969 C 55.414062 31.914062 54.980469 31.386719 54.554688 30.800781 C 54.414062 30.605469 54.304688 30.390625 54.199219 30.171875 C 54.148438 30.105469 54.078125 30.007812 54 29.96875 C 53.839844 29.882812 53.792969 29.820312 53.820312 29.652344 C 53.839844 29.539062 53.777344 29.386719 53.683594 29.257812 C 53.597656 29.070312 53.511719 28.886719 53.425781 28.699219 C 53.378906 28.636719 53.332031 28.570312 53.285156 28.507812 C 53.222656 28.351562 52.992188 28.375 52.992188 28.171875 C 52.988281 28.027344 52.925781 27.875 52.917969 27.730469 C 52.929688 27.675781 52.882812 27.609375 52.890625 27.554688 C 52.699219 27.496094 52.636719 27.34375 52.574219 27.1875 C 52.511719 27.035156 52.410156 26.960938 52.414062 26.761719 C 52.414062 26.5625 52.308594 26.34375 52.101562 26.195312 C 51.972656 26.089844 51.902344 25.992188 51.875 25.816406 C 51.804688 25.519531 51.707031 25.246094 51.605469 24.972656 C 51.589844 24.882812 51.542969 24.816406 51.496094 24.753906 C 51.460938 24.632812 51.398438 24.480469 51.359375 24.359375 C 51.296875 24.203125 51.234375 24.050781 51.148438 23.867188 C 51.136719 23.777344 51.066406 23.679688 51.050781 23.59375 C 50.988281 23.4375 50.980469 23.292969 50.832031 23.15625 C 50.609375 22.921875 50.542969 22.621094 50.441406 22.347656 C 50.382812 22.195312 50.382812 21.996094 50.179688 21.847656 C 50.15625 21.816406 50.132812 21.78125 50.140625 21.726562 C 50.121094 21.496094 50.042969 21.253906 49.933594 21.035156 C 49.910156 21.003906 49.917969 20.945312 49.894531 20.914062 C 49.566406 20.460938 49.566406 20.460938 49.453125 19.898438 C 49.4375 19.808594 49.359375 19.769531 49.320312 19.648438 C 49.25 19.550781 49.1875 19.398438 49.117188 19.300781 C 49.09375 19.265625 49.101562 19.210938 49.078125 19.179688 C 48.9375 18.984375 48.886719 18.777344 48.800781 18.589844 C 48.683594 18.226562 48.417969 17.925781 48.207031 17.636719 C 48.109375 17.503906 48.0625 17.441406 48.226562 17.324219 C 48.171875 17.3125 48.113281 17.304688 48.089844 17.273438 C 48.066406 17.242188 47.988281 17.199219 47.996094 17.144531 C 47.992188 17 47.929688 16.84375 47.890625 16.726562 C 47.84375 16.660156 47.917969 16.558594 47.925781 16.5 C 47.933594 16.445312 47.988281 16.453125 48 16.398438 C 47.992188 16.253906 47.988281 16.109375 47.980469 15.964844 C 48 15.855469 48.070312 15.75 48.15625 15.59375 C 48.289062 15.640625 48.488281 15.644531 48.679688 15.703125 C 48.722656 15.625 48.796875 15.523438 48.867188 15.417969 C 49.070312 15.421875 49.292969 15.457031 49.492188 15.460938 L 49.890625 15.667969 C 49.992188 15.742188 50.046875 15.75 50.15625 15.625 C 50.296875 15.820312 50.40625 16.039062 50.652344 16.105469 C 50.675781 16.136719 50.699219 16.171875 50.722656 16.203125 C 50.769531 16.269531 50.785156 16.355469 50.855469 16.453125 C 50.949219 16.582031 51.019531 16.679688 51.027344 16.824219 C 51.015625 16.878906 51.03125 16.96875 51.144531 16.988281 C 51.3125 17.011719 51.316406 17.15625 51.324219 17.300781 C 51.335938 17.589844 51.5 17.816406 51.730469 17.996094 C 51.753906 18.03125 51.832031 18.070312 51.878906 18.136719 C 51.820312 18.328125 51.851562 18.503906 51.96875 18.667969 C 52.117188 19.003906 52.261719 19.34375 52.410156 19.683594 C 52.433594 19.714844 52.449219 19.804688 52.472656 19.835938 C 52.621094 19.972656 52.683594 20.128906 52.714844 20.304688 C 52.78125 20.601562 52.945312 20.828125 53.109375 21.054688 C 53.15625 21.121094 53.132812 21.289062 53.300781 21.316406 C 53.355469 21.324219 53.417969 21.476562 53.40625 21.53125 C 53.316406 21.746094 53.515625 21.949219 53.542969 22.128906 C 53.535156 22.183594 53.605469 22.28125 53.636719 22.257812 C 53.882812 22.324219 53.816406 22.574219 53.933594 22.734375 C 53.980469 22.800781 53.851562 22.894531 53.921875 22.992188 C 54.097656 23.160156 54.148438 23.371094 54.234375 23.554688 C 54.28125 23.621094 54.296875 23.710938 54.3125 23.796875 C 54.335938 23.832031 54.316406 23.941406 54.375 23.953125 C 54.542969 24.324219 54.460938 24.679688 54.703125 24.949219 Z M 54.703125 24.949219 " fill-opacity="1" fill-rule="nonzero"/></g></g></g></g><g clip-path="url(#44d54d6d9b)"><g clip-path="url(#270b711a9c)"><g clip-path="url(#882ef25231)"><g clip-path="url(#2ece25a513)"><path fill="#f28a29" d="M 33.179688 44.496094 C 33.195312 44.382812 33.179688 44.296875 33.222656 44.214844 C 33.046875 44.246094 32.902344 44.25 32.757812 44.257812 C 32.710938 44.191406 32.695312 44.101562 32.648438 44.039062 C 32.457031 43.980469 32.253906 44.175781 32.082031 44.003906 C 32.035156 43.941406 32.019531 43.851562 32.003906 43.761719 C 31.785156 43.871094 31.597656 43.613281 31.367188 43.632812 C 31.101562 43.675781 30.96875 43.425781 30.722656 43.359375 C 30.65625 43.40625 30.570312 43.417969 30.449219 43.457031 C 30.417969 43.28125 30.308594 43.261719 30.140625 43.234375 C 30.003906 43.1875 29.902344 43.113281 29.796875 43.039062 C 29.683594 43.21875 29.550781 42.96875 29.421875 43.0625 C 29.4375 42.953125 29.449219 42.894531 29.433594 42.808594 C 29.1875 42.738281 28.90625 42.695312 28.636719 42.59375 C 28.390625 42.527344 28.398438 42.46875 28.402344 42.269531 C 28.273438 42.164062 28.171875 42.089844 28.066406 42.015625 C 28.042969 41.984375 27.988281 41.976562 27.933594 41.964844 C 27.683594 41.898438 27.726562 41.820312 27.609375 41.65625 C 27.492188 41.496094 27.589844 41.425781 27.582031 41.28125 C 27.625 41.199219 27.640625 41.089844 27.601562 40.96875 C 27.589844 40.878906 27.660156 40.777344 27.679688 40.664062 C 27.695312 40.554688 27.738281 40.472656 27.789062 40.339844 C 27.851562 40.292969 28.003906 40.230469 28.078125 40.125 C 28.152344 40.023438 28.273438 39.984375 28.417969 39.980469 C 28.503906 39.964844 28.601562 39.894531 28.699219 39.824219 C 28.746094 39.890625 28.761719 39.976562 28.785156 40.011719 C 28.992188 39.957031 29.230469 40.082031 29.472656 40.003906 C 29.648438 39.976562 29.777344 40.082031 29.757812 40.195312 C 29.847656 40.179688 29.902344 40.1875 29.992188 40.175781 C 30.046875 40.183594 30.070312 40.214844 30.070312 40.214844 C 30.207031 40.066406 30.359375 40.203125 30.429688 40.300781 C 30.578125 40.441406 30.667969 40.425781 30.820312 40.363281 C 30.992188 40.535156 31.175781 40.652344 31.417969 40.574219 C 31.539062 40.535156 31.617188 40.578125 31.839844 40.8125 C 31.871094 40.789062 31.902344 40.765625 31.992188 40.753906 C 32.023438 40.730469 32.089844 40.679688 32.089844 40.679688 C 32.222656 40.730469 32.328125 40.804688 32.40625 40.847656 C 32.507812 40.921875 32.578125 41.019531 32.660156 41.058594 C 32.761719 41.132812 32.863281 41.207031 33.019531 41.144531 C 33.386719 40.976562 33.46875 41.015625 33.695312 41.398438 C 33.757812 41.351562 33.824219 41.304688 33.914062 41.289062 C 33.96875 41.296875 34.046875 41.339844 34.136719 41.324219 C 34.128906 41.378906 34.117188 41.4375 34.101562 41.546875 C 34.425781 41.65625 34.761719 41.710938 35.179688 41.605469 C 35.195312 41.695312 35.234375 41.816406 35.273438 41.933594 C 35.496094 41.972656 35.71875 42.007812 35.964844 42.074219 C 36.078125 42.09375 36.171875 42.222656 36.273438 42.296875 C 36.417969 42.289062 36.539062 42.253906 36.683594 42.246094 C 36.667969 42.359375 36.648438 42.46875 36.597656 42.605469 C 36.878906 42.449219 37.039062 42.53125 37.214844 42.703125 C 37.238281 42.738281 37.285156 42.800781 37.316406 42.777344 C 37.636719 42.742188 37.914062 42.988281 38.234375 42.953125 C 38.265625 42.929688 38.324219 42.9375 38.347656 42.972656 C 38.449219 43.042969 38.488281 43.164062 38.597656 43.183594 C 38.710938 43.203125 38.832031 43.164062 38.902344 43.261719 C 38.949219 43.324219 38.972656 43.359375 39.019531 43.421875 C 39.363281 43.421875 39.363281 43.421875 39.441406 43.660156 C 39.59375 43.601562 39.769531 43.570312 39.945312 43.542969 C 39.960938 43.628906 39.953125 43.6875 39.945312 43.742188 C 40.054688 43.761719 40.199219 43.753906 40.300781 43.828125 C 40.460938 43.910156 40.652344 43.96875 40.777344 44.078125 C 41.113281 44.328125 41.492188 44.449219 41.894531 44.453125 C 41.886719 44.511719 41.910156 44.542969 41.921875 44.632812 C 42.433594 44.65625 42.816406 44.976562 43.277344 45.132812 C 43.277344 45.132812 43.269531 45.191406 43.269531 45.191406 C 43.179688 45.203125 43.101562 45.164062 43.011719 45.179688 C 43.144531 45.429688 43.488281 45.425781 43.652344 45.652344 C 43.792969 45.847656 44.023438 46.027344 44.253906 46.207031 C 44.132812 46.246094 44.011719 46.285156 43.890625 46.320312 C 43.972656 46.363281 43.996094 46.394531 44.097656 46.46875 C 43.847656 46.601562 43.652344 46.742188 43.414062 46.820312 C 43.140625 46.917969 42.820312 46.953125 42.554688 46.996094 C 42.523438 47.019531 42.476562 46.957031 42.449219 46.921875 C 42.394531 46.914062 42.292969 46.839844 42.226562 46.886719 C 41.769531 47.070312 41.347656 46.832031 40.925781 46.792969 C 40.667969 46.78125 40.460938 46.632812 40.222656 46.710938 C 40.15625 46.757812 40.03125 46.652344 39.984375 46.585938 C 39.890625 46.457031 39.753906 46.40625 39.609375 46.410156 C 39.464844 46.417969 39.289062 46.445312 39.152344 46.394531 C 38.816406 46.34375 38.523438 46.210938 38.164062 46.125 C 38.101562 45.96875 37.925781 46 37.824219 45.925781 C 37.609375 45.832031 37.363281 45.765625 37.136719 45.730469 C 36.949219 45.46875 36.644531 45.59375 36.375 45.492188 C 36.214844 45.410156 36.046875 45.382812 35.855469 45.324219 C 35.800781 45.316406 35.707031 45.1875 35.601562 45.113281 C 35.457031 45.117188 35.257812 45.113281 35.171875 44.929688 C 34.910156 44.972656 34.714844 44.570312 34.398438 44.746094 C 34.183594 44.65625 33.917969 44.699219 33.699219 44.464844 C 33.644531 44.457031 33.429688 44.363281 33.179688 44.496094 Z M 33.179688 44.496094 " fill-opacity="1" fill-rule="nonzero"/></g></g></g></g><g clip-path="url(#1060463ee7)"><g clip-path="url(#d48bdcd585)"><g clip-path="url(#b182f7e598)"><g clip-path="url(#bf13896ca2)"><path fill="#fedc0f" d="M 34.585938 26.980469 C 34.671875 26.820312 34.742188 26.71875 34.792969 26.582031 C 34.929688 26.632812 35.007812 26.675781 35.144531 26.726562 C 35.128906 26.636719 35.113281 26.546875 35.074219 26.429688 C 35.1875 26.445312 35.242188 26.453125 35.300781 26.464844 C 35.292969 26.320312 35.265625 26.144531 35.257812 26 C 35.371094 26.015625 35.503906 26.066406 35.617188 26.085938 C 35.601562 25.996094 35.5625 25.875 35.527344 25.753906 C 35.828125 25.832031 36.164062 25.886719 36.46875 25.960938 C 36.429688 25.839844 36.414062 25.753906 36.398438 25.664062 C 36.503906 25.738281 36.613281 25.757812 36.695312 25.796875 C 36.75 25.808594 36.804688 25.816406 36.941406 25.867188 C 36.933594 25.921875 36.980469 25.988281 36.992188 26.074219 C 37.308594 25.894531 37.417969 26.113281 37.582031 26.339844 C 37.652344 26.4375 37.753906 26.511719 37.835938 26.554688 C 38.265625 26.738281 38.265625 26.738281 38.226562 27.160156 C 38.226562 27.160156 38.25 27.191406 38.273438 27.226562 C 38.339844 27.179688 38.378906 27.097656 38.445312 27.050781 C 38.445312 27.050781 38.476562 27.027344 38.476562 27.027344 C 38.707031 27.207031 38.910156 27.355469 39.109375 27.558594 C 39.15625 27.625 39.195312 27.746094 39.265625 27.84375 C 39.328125 27.796875 39.417969 27.78125 39.449219 27.757812 C 39.472656 27.789062 39.507812 27.765625 39.496094 27.820312 C 39.527344 28 39.652344 28.105469 39.84375 28.164062 C 40.035156 28.222656 40.007812 28.390625 40.105469 28.519531 C 40.449219 28.519531 40.449219 28.519531 40.347656 28.789062 C 40.585938 28.914062 40.328125 28.558594 40.566406 28.679688 C 40.589844 28.714844 40.667969 28.753906 40.660156 28.808594 C 40.632812 28.976562 40.792969 29.0625 40.894531 29.132812 C 41.078125 29.25 41.132812 29.457031 41.289062 29.542969 C 41.394531 29.617188 41.472656 29.65625 41.570312 29.585938 C 41.601562 29.5625 41.65625 29.570312 41.691406 29.546875 C 41.703125 29.636719 41.726562 29.667969 41.71875 29.726562 C 41.761719 29.988281 41.882812 30.152344 42.152344 30.253906 C 42.3125 30.335938 42.492188 30.449219 42.585938 30.578125 C 42.648438 30.734375 42.785156 30.785156 42.945312 30.867188 C 42.933594 30.921875 42.925781 30.976562 42.886719 31.058594 C 43.117188 31.039062 43.074219 31.316406 43.265625 31.375 C 43.363281 31.648438 43.789062 31.6875 43.824219 32.011719 C 43.992188 32.035156 44.007812 32.125 44.066406 32.277344 C 44.105469 32.398438 44.199219 32.527344 44.28125 32.570312 C 44.574219 32.703125 44.679688 33.121094 45.070312 33.183594 C 45.054688 33.296875 44.972656 33.453125 45.195312 33.488281 C 45.417969 33.527344 45.558594 33.71875 45.652344 33.851562 C 45.84375 34.109375 46.039062 34.3125 46.261719 34.546875 C 46.308594 34.613281 46.3125 34.757812 46.425781 34.777344 C 46.359375 34.824219 46.351562 34.878906 46.320312 34.902344 C 46.476562 34.984375 46.636719 35.066406 46.851562 35.160156 C 46.820312 35.183594 46.84375 35.214844 46.835938 35.269531 C 46.984375 35.410156 47.132812 35.546875 47.285156 35.6875 C 47.308594 35.71875 47.332031 35.75 47.324219 35.808594 C 47.296875 35.976562 47.375 36.015625 47.527344 35.953125 C 47.519531 36.011719 47.488281 36.035156 47.445312 36.113281 C 47.605469 36.195312 47.722656 36.359375 47.808594 36.542969 C 47.925781 36.707031 48.078125 36.84375 48.226562 36.984375 C 48.503906 37.226562 48.9375 37.757812 49.128906 38.160156 C 48.949219 38.042969 48.789062 37.960938 48.605469 37.847656 C 48.574219 37.871094 48.574219 37.871094 48.542969 37.894531 C 48.636719 38.023438 48.707031 38.121094 48.878906 38.292969 C 48.632812 38.222656 48.496094 38.171875 48.304688 38.113281 C 47.980469 38.003906 47.703125 37.761719 47.335938 37.730469 C 47.167969 37.703125 47.019531 37.5625 46.890625 37.457031 C 46.789062 37.382812 46.652344 37.335938 46.582031 37.238281 C 46.488281 37.105469 46.398438 37.121094 46.265625 37.070312 C 46.207031 37.0625 46.195312 36.972656 46.148438 36.910156 C 46.125 36.875 46.035156 36.890625 45.980469 36.882812 C 45.875 36.808594 45.902344 36.640625 45.726562 36.671875 C 45.523438 36.324219 45.097656 36.285156 44.832031 35.984375 C 44.632812 35.777344 44.394531 35.65625 44.199219 35.453125 C 44.152344 35.386719 44.039062 35.367188 43.882812 35.285156 C 43.882812 35.285156 43.867188 35.199219 43.867188 35.199219 C 43.714844 35.058594 43.589844 34.953125 43.429688 34.871094 C 43.351562 34.828125 43.238281 34.8125 43.160156 34.769531 C 43.105469 34.5625 42.949219 34.476562 42.714844 34.5 C 42.699219 34.410156 42.675781 34.378906 42.6875 34.320312 C 42.597656 34.335938 42.542969 34.328125 42.511719 34.351562 C 42.460938 34.285156 42.390625 34.1875 42.34375 34.125 C 42.273438 34.027344 42.171875 33.953125 42.101562 33.855469 C 42.03125 33.757812 41.925781 33.683594 41.824219 33.609375 C 41.6875 33.558594 41.570312 33.398438 41.445312 33.292969 C 41.375 33.195312 41.304688 33.097656 41.214844 33.113281 C 41.046875 33.085938 40.921875 32.980469 40.859375 32.824219 C 40.835938 32.792969 40.8125 32.761719 40.757812 32.753906 C 40.53125 32.714844 40.375 32.632812 40.222656 32.496094 C 40.152344 32.398438 39.992188 32.316406 39.921875 32.21875 C 39.898438 32.183594 39.851562 32.121094 39.796875 32.113281 C 39.414062 31.992188 39.171875 31.726562 38.859375 31.503906 C 38.65625 31.355469 38.449219 31.207031 38.277344 31.039062 C 37.976562 30.761719 38.164062 31.019531 37.886719 30.773438 C 37.863281 30.742188 37.839844 30.710938 37.839844 30.710938 C 37.570312 30.609375 37.460938 30.390625 37.328125 30.140625 C 37.28125 30.074219 37.179688 30.003906 37.121094 29.992188 C 36.953125 29.964844 36.828125 29.859375 36.734375 29.730469 C 36.640625 29.601562 36.570312 29.503906 36.367188 29.5 C 36.3125 29.492188 36.242188 29.394531 36.195312 29.328125 C 36.132812 29.175781 36.007812 29.070312 35.839844 29.042969 C 35.703125 28.992188 35.566406 28.941406 35.5625 28.796875 C 35.546875 28.710938 35.347656 28.707031 35.398438 28.570312 C 35.398438 28.570312 35.238281 28.488281 35.183594 28.480469 C 35.128906 28.269531 35.164062 28.046875 34.957031 27.898438 C 34.933594 27.867188 34.886719 27.800781 34.921875 27.777344 C 35.109375 27.492188 34.933594 27.324219 34.90625 27.144531 C 34.867188 27.023438 34.765625 26.953125 34.585938 26.980469 Z M 34.585938 26.980469 " fill-opacity="1" fill-rule="nonzero"/></g></g></g></g><g clip-path="url(#c9cf915690)"><g clip-path="url(#7ba25e9b9e)"><g clip-path="url(#abc8aaec2e)"><g clip-path="url(#ea0a9ec947)"><path fill="#089ed3" d="M 65.597656 31.105469 C 65.429688 31.078125 65.347656 31.035156 65.203125 31.042969 C 65.097656 30.824219 64.996094 30.550781 64.839844 30.265625 C 64.675781 29.839844 64.546875 29.386719 64.386719 28.960938 C 64.363281 28.929688 64.347656 28.839844 64.355469 28.785156 C 64.390625 28.5625 64.339844 28.351562 64.261719 28.109375 C 64.199219 27.957031 64.105469 27.828125 64.1875 27.667969 C 64.230469 27.589844 64.183594 27.523438 64.167969 27.4375 C 64.175781 27.378906 64.128906 27.316406 64.136719 27.257812 C 64.207031 27.011719 64.097656 26.792969 63.980469 26.632812 C 63.886719 26.503906 63.980469 26.433594 63.96875 26.34375 C 63.929688 26.222656 63.777344 26.085938 63.941406 25.96875 C 63.804688 25.917969 63.878906 25.8125 63.863281 25.726562 C 63.847656 25.636719 63.84375 25.492188 63.871094 25.324219 C 63.761719 25.105469 63.75 24.820312 63.769531 24.507812 C 63.609375 24.425781 63.515625 24.292969 63.621094 24.167969 C 63.726562 24.042969 63.714844 23.953125 63.640625 23.855469 C 63.617188 23.824219 63.628906 23.765625 63.605469 23.734375 C 63.742188 23.585938 63.605469 23.535156 63.503906 23.460938 C 63.585938 23.300781 63.722656 23.152344 63.582031 22.957031 C 63.535156 22.894531 63.585938 22.757812 63.605469 22.644531 C 63.652344 22.511719 63.355469 22.578125 63.519531 22.460938 C 63.304688 22.367188 63.441406 22.21875 63.492188 22.082031 C 63.523438 22.058594 63.5 22.027344 63.53125 22.003906 C 63.476562 21.996094 63.453125 21.960938 63.398438 21.953125 C 63.40625 21.898438 63.4375 21.875 63.445312 21.820312 C 63.304688 21.824219 63.351562 21.6875 63.351562 21.6875 C 63.5 21.484375 63.335938 21.257812 63.394531 21.066406 C 63.460938 20.816406 63.375 20.632812 63.324219 20.421875 C 63.292969 20.246094 63.375 20.085938 63.195312 19.972656 C 63.167969 19.941406 63.1875 19.828125 63.195312 19.773438 C 63.328125 19.476562 63.148438 19.164062 63.136719 18.875 C 63.121094 18.785156 63.082031 18.664062 63.09375 18.609375 C 63.152344 18.417969 63.15625 18.21875 63.246094 18.003906 C 63.34375 17.734375 63.316406 17.554688 63.207031 17.335938 C 63.183594 17.304688 63.160156 17.273438 63.167969 17.21875 C 63.378906 16.964844 63.367188 16.875 63.191406 16.703125 C 63.226562 16.480469 63.429688 16.285156 63.234375 16.082031 C 63.304688 15.976562 63.347656 15.898438 63.386719 15.820312 C 63.5 15.835938 63.613281 15.855469 63.734375 15.816406 C 63.773438 15.738281 63.78125 15.679688 63.847656 15.632812 C 63.910156 15.585938 64 15.574219 64.066406 15.527344 C 64.089844 15.558594 64.136719 15.625 64.183594 15.6875 C 64.234375 15.554688 64.304688 15.449219 64.355469 15.316406 C 64.46875 15.332031 64.546875 15.375 64.683594 15.425781 C 64.699219 15.3125 64.707031 15.257812 64.71875 15.199219 C 64.894531 15.171875 64.898438 15.316406 64.9375 15.4375 C 65.113281 15.40625 65.257812 15.402344 65.28125 15.632812 C 65.304688 15.667969 65.351562 15.730469 65.351562 15.730469 C 65.671875 15.695312 65.675781 16.042969 65.855469 16.15625 C 65.914062 16.164062 65.917969 16.308594 65.910156 16.367188 C 65.945312 16.6875 66.046875 16.960938 66.144531 17.234375 C 66.183594 17.355469 66.222656 17.476562 66.171875 17.609375 C 66.0625 17.9375 66.332031 18.238281 66.277344 18.574219 C 66.234375 18.851562 66.359375 19.160156 66.371094 19.449219 C 66.390625 19.679688 66.355469 19.90625 66.375 20.136719 C 66.410156 20.457031 66.28125 20.753906 66.402344 21.058594 C 66.425781 21.089844 66.386719 21.171875 66.375 21.226562 C 66.382812 21.371094 66.324219 21.5625 66.484375 21.644531 C 66.585938 21.71875 66.601562 21.804688 66.519531 21.964844 C 66.425781 22.179688 66.367188 22.371094 66.390625 22.605469 C 66.394531 22.75 66.433594 22.867188 66.472656 22.988281 C 66.507812 23.308594 66.496094 23.566406 66.394531 24.039062 C 66.335938 24.230469 66.386719 24.4375 66.382812 24.636719 C 66.398438 24.726562 66.382812 24.839844 66.363281 24.949219 C 66.601562 25.074219 66.46875 25.367188 66.523438 25.578125 C 66.535156 25.867188 66.402344 26.160156 66.492188 26.488281 C 66.515625 26.523438 66.453125 26.570312 66.445312 26.625 C 66.433594 26.679688 66.402344 26.703125 66.425781 26.738281 C 66.523438 27.210938 66.546875 27.242188 66.480469 27.492188 C 66.347656 27.785156 66.382812 28.105469 66.363281 28.417969 C 66.355469 28.472656 66.355469 28.472656 66.378906 28.503906 C 66.257812 29.089844 66.304688 29.699219 66.015625 30.253906 C 65.828125 30.539062 65.726562 30.808594 65.597656 31.105469 Z M 65.597656 31.105469 " fill-opacity="1" fill-rule="nonzero"/></g></g></g></g><g clip-path="url(#bbe05bc1e0)"><g clip-path="url(#52f9ba7915)"><g clip-path="url(#a3d5025d1e)"><g clip-path="url(#495886f907)"><path fill="#d31416" d="M 43.210938 53.75 C 43.214844 53.894531 43.199219 54.007812 43.171875 54.175781 C 42.953125 54.28125 42.695312 54.472656 42.445312 54.601562 C 42.066406 54.828125 41.617188 54.957031 41.203125 55.207031 C 41.171875 55.230469 41.085938 55.246094 41.027344 55.234375 C 40.773438 55.222656 40.585938 55.308594 40.371094 55.417969 C 40.21875 55.480469 40.109375 55.605469 39.917969 55.546875 C 39.863281 55.539062 39.742188 55.574219 39.65625 55.589844 C 39.597656 55.582031 39.527344 55.683594 39.503906 55.652344 C 39.222656 55.605469 39.0625 55.722656 38.890625 55.898438 C 38.785156 56.023438 38.691406 55.894531 38.625 55.941406 C 38.503906 55.980469 38.421875 56.136719 38.242188 56.023438 C 38.191406 56.160156 38.109375 56.117188 38.023438 56.132812 C 37.902344 56.167969 37.789062 56.152344 37.613281 56.179688 C 37.417969 56.320312 37.097656 56.355469 36.8125 56.367188 C 36.753906 56.558594 36.65625 56.628906 36.472656 56.515625 C 36.371094 56.441406 36.28125 56.457031 36.183594 56.527344 C 36.152344 56.550781 36.085938 56.597656 36.0625 56.5625 C 35.882812 56.449219 35.863281 56.558594 35.8125 56.695312 C 35.644531 56.667969 35.472656 56.496094 35.300781 56.671875 C 35.238281 56.71875 35.09375 56.722656 35.015625 56.683594 C 34.902344 56.664062 34.980469 56.90625 34.851562 56.800781 C 34.761719 57.015625 34.632812 56.910156 34.46875 56.882812 C 34.441406 56.847656 34.410156 56.871094 34.355469 56.863281 C 34.347656 56.917969 34.335938 56.976562 34.335938 56.976562 C 34.28125 56.964844 34.226562 56.957031 34.203125 56.925781 C 34.242188 57.046875 34.074219 57.019531 34.074219 57.019531 C 33.859375 56.925781 33.664062 57.070312 33.464844 57.066406 C 33.242188 57.03125 33.023438 57.136719 32.8125 57.191406 C 32.660156 57.253906 32.46875 57.191406 32.355469 57.375 C 32.324219 57.398438 32.234375 57.414062 32.15625 57.371094 C 31.828125 57.261719 31.5625 57.507812 31.296875 57.550781 C 31.242188 57.542969 31.144531 57.613281 31.0625 57.570312 C 30.871094 57.511719 30.640625 57.53125 30.472656 57.503906 C 30.226562 57.4375 30.015625 57.488281 29.824219 57.628906 C 29.789062 57.652344 29.757812 57.675781 29.726562 57.699219 C 29.464844 57.542969 29.351562 57.527344 29.203125 57.730469 C 29.003906 57.730469 28.777344 57.546875 28.597656 57.777344 C 28.46875 57.671875 28.359375 57.652344 28.277344 57.613281 C 28.261719 57.523438 28.257812 57.378906 28.273438 57.269531 C 28.195312 57.226562 28.109375 57.242188 28.058594 57.175781 C 28.011719 57.113281 27.964844 57.046875 27.953125 56.957031 C 27.984375 56.933594 28.046875 56.886719 28.058594 56.832031 C 27.921875 56.78125 27.785156 56.730469 27.675781 56.714844 C 27.691406 56.601562 27.710938 56.488281 27.761719 56.355469 C 27.671875 56.371094 27.617188 56.359375 27.527344 56.375 C 27.476562 56.164062 27.59375 56.128906 27.707031 56.144531 C 27.675781 55.96875 27.648438 55.792969 27.878906 55.773438 C 27.914062 55.75 27.976562 55.703125 27.953125 55.667969 C 27.886719 55.371094 28.238281 55.3125 28.332031 55.097656 C 28.339844 55.042969 28.460938 55.003906 28.515625 55.015625 C 28.8125 54.945312 29.085938 54.847656 29.367188 54.691406 C 29.464844 54.621094 29.609375 54.617188 29.722656 54.632812 C 30.054688 54.6875 30.300781 54.410156 30.667969 54.441406 C 30.925781 54.453125 31.207031 54.296875 31.503906 54.230469 C 31.710938 54.175781 31.9375 54.214844 32.199219 54.167969 C 32.496094 54.101562 32.824219 54.210938 33.105469 54.054688 C 33.140625 54.03125 33.21875 54.074219 33.304688 54.058594 C 33.425781 54.023438 33.617188 54.082031 33.734375 53.898438 C 33.804688 53.796875 33.894531 53.78125 34.0625 53.808594 C 34.253906 53.867188 34.5 53.933594 34.710938 53.882812 C 34.832031 53.84375 34.949219 53.804688 35.09375 53.800781 C 35.425781 53.710938 35.679688 53.722656 36.160156 53.769531 C 36.359375 53.773438 36.570312 53.722656 36.769531 53.722656 C 36.855469 53.710938 36.96875 53.726562 37.082031 53.746094 C 37.203125 53.507812 37.449219 53.574219 37.683594 53.554688 C 37.980469 53.488281 38.273438 53.621094 38.582031 53.496094 C 38.613281 53.472656 38.691406 53.515625 38.714844 53.546875 C 38.773438 53.558594 38.796875 53.589844 38.828125 53.566406 C 39.253906 53.40625 39.285156 53.382812 39.566406 53.425781 C 39.867188 53.503906 40.164062 53.4375 40.511719 53.433594 C 40.542969 53.410156 40.566406 53.441406 40.597656 53.417969 C 41.191406 53.484375 41.785156 53.351562 42.378906 53.5625 C 42.605469 53.597656 42.90625 53.671875 43.210938 53.75 Z M 43.210938 53.75 " fill-opacity="1" fill-rule="nonzero"/></g></g></g></g><g clip-path="url(#6ccdd6808c)"><g clip-path="url(#f210ace13d)"><g clip-path="url(#6aadbe0ee5)"><g clip-path="url(#b21a3bbba5)"><path fill="#694a98" d="M 73.898438 31.855469 C 73.925781 31.691406 74.007812 31.53125 73.882812 31.425781 C 73.851562 31.449219 73.785156 31.496094 73.753906 31.519531 C 73.753906 31.519531 73.730469 31.484375 73.730469 31.484375 C 73.738281 30.886719 73.859375 30.304688 74.011719 29.695312 C 74.078125 29.449219 74.121094 29.171875 74.222656 28.898438 C 74.332031 28.574219 74.464844 28.277344 74.605469 27.929688 C 74.652344 27.792969 74.703125 27.65625 74.753906 27.523438 C 74.773438 27.410156 74.820312 27.277344 74.839844 27.164062 C 74.960938 26.925781 75.140625 26.695312 75.242188 26.425781 C 75.339844 26.15625 75.386719 25.875 75.453125 25.628906 C 75.472656 25.515625 75.519531 25.382812 75.59375 25.277344 C 75.726562 24.984375 75.914062 24.699219 76.046875 24.40625 C 76.148438 24.132812 76.246094 23.863281 76.347656 23.59375 C 76.40625 23.402344 76.488281 23.242188 76.570312 23.085938 C 76.621094 22.949219 76.75 22.855469 76.71875 22.679688 C 76.71875 22.679688 76.726562 22.621094 76.726562 22.621094 C 77.039062 22.300781 77.121094 21.941406 77.214844 21.523438 C 77.226562 21.46875 77.289062 21.421875 77.355469 21.375 C 77.394531 21.296875 77.523438 21.203125 77.535156 21.144531 C 77.53125 20.800781 77.710938 20.570312 77.890625 20.34375 C 77.996094 20.214844 78.046875 20.082031 78.128906 19.921875 C 78.1875 19.730469 78.269531 19.574219 78.429688 19.453125 C 78.527344 19.382812 78.609375 19.226562 78.601562 19.082031 C 78.640625 18.65625 78.972656 18.367188 79.226562 18.035156 C 79.375 17.828125 79.660156 17.816406 79.765625 17.691406 C 80 17.671875 80.175781 17.640625 80.351562 17.613281 C 80.53125 17.582031 80.601562 17.679688 80.671875 17.777344 C 80.789062 17.941406 80.914062 18.046875 81.113281 18.050781 C 81.152344 18.171875 81.222656 18.269531 81.238281 18.355469 C 81.300781 18.507812 81.339844 18.628906 81.3125 18.796875 C 81.292969 18.910156 81.277344 19.019531 81.316406 19.140625 C 81.3125 19.34375 81.34375 19.519531 81.125 19.628906 C 81.125 19.628906 81.09375 19.652344 81.09375 19.652344 C 81.109375 20.082031 80.722656 20.367188 80.605469 20.75 C 80.535156 20.996094 80.390625 21.199219 80.464844 21.441406 C 80.359375 21.570312 80.277344 21.726562 80.171875 21.855469 C 79.929688 22.128906 79.71875 22.382812 79.6875 22.75 C 79.679688 22.808594 79.605469 22.910156 79.539062 22.957031 C 79.433594 23.082031 79.25 23.167969 79.246094 23.367188 C 78.996094 23.5 79.03125 23.820312 78.804688 23.984375 C 78.644531 24.101562 78.585938 24.292969 78.582031 24.496094 C 78.566406 24.605469 78.515625 24.742188 78.394531 24.78125 C 78.199219 24.921875 78.054688 25.125 77.984375 25.375 C 77.9375 25.507812 77.796875 25.660156 77.746094 25.792969 C 77.605469 26.144531 77.332031 26.445312 77.109375 26.753906 C 77.027344 26.910156 76.945312 27.070312 76.832031 27.253906 C 76.75 27.410156 76.640625 27.539062 76.558594 27.695312 C 76.519531 27.777344 76.453125 27.824219 76.414062 27.902344 C 76.179688 28.46875 75.757812 28.972656 75.527344 29.539062 C 75.382812 29.886719 75.140625 30.164062 74.976562 30.480469 C 74.769531 30.878906 74.382812 31.160156 74.175781 31.558594 C 74.160156 31.667969 74.03125 31.761719 73.898438 31.855469 Z M 73.898438 31.855469 " fill-opacity="1" fill-rule="nonzero"/></g></g></g></g><g clip-path="url(#af06144ac3)"><g clip-path="url(#d67e9235b0)"><g fill="#000000" fill-opacity="1"><g transform="translate(120.972004, 84.879344)"><g><path d="M 0.09375 1.140625 L 0.28125 1.015625 C 0.1875 0.953125 0.117188 0.882812 0.078125 0.8125 C 0.046875 0.738281 0.0234375 0.648438 0.015625 0.546875 C 0.00390625 0.398438 0.0351562 0.285156 0.109375 0.203125 C 0.191406 0.117188 0.3125 0.0664062 0.46875 0.046875 C 0.625 0.0351562 0.738281 0.0820312 0.8125 0.1875 C 0.894531 0.289062 0.953125 0.445312 0.984375 0.65625 L 1.03125 0.90625 L 1.046875 0.90625 C 1.171875 0.894531 1.222656 0.828125 1.203125 0.703125 C 1.203125 0.597656 1.15625 0.460938 1.0625 0.296875 L 1.375 0.125 C 1.488281 0.289062 1.554688 0.503906 1.578125 0.765625 C 1.597656 0.953125 1.5625 1.097656 1.46875 1.203125 C 1.382812 1.316406 1.257812 1.382812 1.09375 1.40625 L 0.125 1.484375 Z M 0.390625 0.71875 C 0.398438 0.78125 0.425781 0.832031 0.46875 0.875 C 0.519531 0.914062 0.578125 0.9375 0.640625 0.9375 L 0.75 0.921875 L 0.734375 0.796875 C 0.703125 0.628906 0.628906 0.550781 0.515625 0.5625 C 0.421875 0.570312 0.378906 0.625 0.390625 0.71875 Z M 0.390625 0.71875 "/></g></g></g></g></g><g clip-path="url(#ace3977134)"><g clip-path="url(#00bfaf0380)"><g fill="#000000" fill-opacity="1"><g transform="translate(121.116463, 86.523109)"><g><path d="M 0.0625 0.6875 L 0.015625 0.171875 L 2.03125 0 L 2.078125 0.515625 Z M 0.0625 0.6875 "/></g></g></g></g></g><g clip-path="url(#d915722228)"><g clip-path="url(#4ca8c85ecc)"><g fill="#000000" fill-opacity="1"><g transform="translate(121.191409, 87.375909)"><g><path d="M 0.046875 0.890625 C 0.0234375 0.640625 0.0703125 0.441406 0.1875 0.296875 C 0.3125 0.148438 0.492188 0.0664062 0.734375 0.046875 C 0.984375 0.0234375 1.179688 0.0703125 1.328125 0.1875 C 1.472656 0.300781 1.554688 0.476562 1.578125 0.71875 C 1.597656 0.9375 1.554688 1.109375 1.453125 1.234375 C 1.347656 1.367188 1.1875 1.441406 0.96875 1.453125 L 0.734375 1.484375 L 0.65625 0.578125 C 0.570312 0.578125 0.503906 0.609375 0.453125 0.671875 C 0.410156 0.734375 0.394531 0.816406 0.40625 0.921875 C 0.414062 1.003906 0.429688 1.082031 0.453125 1.15625 C 0.484375 1.226562 0.523438 1.304688 0.578125 1.390625 L 0.203125 1.4375 C 0.148438 1.351562 0.113281 1.269531 0.09375 1.1875 C 0.0703125 1.101562 0.0546875 1.003906 0.046875 0.890625 Z M 1.234375 0.765625 C 1.222656 0.703125 1.195312 0.648438 1.15625 0.609375 C 1.113281 0.566406 1.054688 0.550781 0.984375 0.5625 L 1.015625 0.984375 C 1.078125 0.972656 1.128906 0.945312 1.171875 0.90625 C 1.210938 0.875 1.234375 0.828125 1.234375 0.765625 Z M 1.234375 0.765625 "/></g></g></g></g></g><g clip-path="url(#f7908094d4)"><g clip-path="url(#0fd3f696eb)"><g fill="#000000" fill-opacity="1"><g transform="translate(121.334735, 89.006792)"><g><path d="M 0.890625 0.59375 C 0.984375 0.65625 1.0625 0.703125 1.125 0.734375 L 1.5625 1.03125 L 1.625 1.59375 L 0.953125 1.125 L 0.15625 1.75 L 0.109375 1.171875 L 0.609375 0.796875 L 0.46875 0.65625 L 0.0625 0.6875 L 0.015625 0.171875 L 2.03125 0 L 2.078125 0.515625 L 1.28125 0.578125 C 1.144531 0.585938 1.015625 0.585938 0.890625 0.578125 Z M 0.890625 0.59375 "/></g></g></g></g></g><g clip-path="url(#c94578ff56)"><g clip-path="url(#91ffa0d545)"><g fill="#000000" fill-opacity="1"><g transform="translate(121.487572, 90.745885)"><g><path d="M 0.5625 1.265625 C 0.40625 1.285156 0.28125 1.242188 0.1875 1.140625 C 0.101562 1.035156 0.0507812 0.882812 0.03125 0.6875 C 0.0195312 0.582031 0.0195312 0.488281 0.03125 0.40625 C 0.0390625 0.320312 0.0546875 0.238281 0.078125 0.15625 L 0.484375 0.109375 C 0.453125 0.203125 0.425781 0.296875 0.40625 0.390625 C 0.394531 0.484375 0.394531 0.566406 0.40625 0.640625 C 0.414062 0.742188 0.445312 0.796875 0.5 0.796875 C 0.519531 0.785156 0.535156 0.765625 0.546875 0.734375 C 0.566406 0.703125 0.601562 0.613281 0.65625 0.46875 C 0.695312 0.320312 0.75 0.21875 0.8125 0.15625 C 0.882812 0.101562 0.972656 0.0703125 1.078125 0.0625 C 1.210938 0.0507812 1.320312 0.09375 1.40625 0.1875 C 1.5 0.289062 1.550781 0.441406 1.5625 0.640625 C 1.570312 0.734375 1.566406 0.820312 1.546875 0.90625 C 1.535156 0.988281 1.515625 1.078125 1.484375 1.171875 L 1.140625 1.0625 C 1.171875 1 1.191406 0.925781 1.203125 0.84375 C 1.222656 0.769531 1.226562 0.710938 1.21875 0.671875 C 1.21875 0.585938 1.195312 0.546875 1.15625 0.546875 C 1.125 0.546875 1.097656 0.554688 1.078125 0.578125 C 1.066406 0.609375 1.039062 0.703125 1 0.859375 C 0.96875 0.960938 0.929688 1.039062 0.890625 1.09375 C 0.859375 1.144531 0.8125 1.1875 0.75 1.21875 C 0.695312 1.25 0.632812 1.265625 0.5625 1.265625 Z M 0.5625 1.265625 "/></g></g></g></g></g><g clip-path="url(#e546259754)"><g clip-path="url(#5a06738c29)"><g fill="#000000" fill-opacity="1"><g transform="translate(121.611199, 92.152618)"><g><path d="M 0.046875 0.890625 C 0.0234375 0.640625 0.0703125 0.441406 0.1875 0.296875 C 0.3125 0.148438 0.492188 0.0664062 0.734375 0.046875 C 0.984375 0.0234375 1.179688 0.0703125 1.328125 0.1875 C 1.472656 0.300781 1.554688 0.476562 1.578125 0.71875 C 1.597656 0.9375 1.554688 1.109375 1.453125 1.234375 C 1.347656 1.367188 1.1875 1.441406 0.96875 1.453125 L 0.734375 1.484375 L 0.65625 0.578125 C 0.570312 0.578125 0.503906 0.609375 0.453125 0.671875 C 0.410156 0.734375 0.394531 0.816406 0.40625 0.921875 C 0.414062 1.003906 0.429688 1.082031 0.453125 1.15625 C 0.484375 1.226562 0.523438 1.304688 0.578125 1.390625 L 0.203125 1.4375 C 0.148438 1.351562 0.113281 1.269531 0.09375 1.1875 C 0.0703125 1.101562 0.0546875 1.003906 0.046875 0.890625 Z M 1.234375 0.765625 C 1.222656 0.703125 1.195312 0.648438 1.15625 0.609375 C 1.113281 0.566406 1.054688 0.550781 0.984375 0.5625 L 1.015625 0.984375 C 1.078125 0.972656 1.128906 0.945312 1.171875 0.90625 C 1.210938 0.875 1.234375 0.828125 1.234375 0.765625 Z M 1.234375 0.765625 "/></g></g></g></g></g><g clip-path="url(#8db1b1c2b4)"><g clip-path="url(#613095807f)"><g fill="#000000" fill-opacity="1"><g transform="translate(121.754525, 93.783501)"><g><path d="M 0.0625 0.6875 L 0.015625 0.171875 L 1.484375 0.046875 L 1.53125 0.5625 Z M 1.84375 0.015625 C 1.925781 0.00390625 1.984375 0.015625 2.015625 0.046875 C 2.054688 0.0859375 2.078125 0.15625 2.078125 0.25 C 2.085938 0.34375 2.078125 0.410156 2.046875 0.453125 C 2.023438 0.503906 1.972656 0.535156 1.890625 0.546875 C 1.742188 0.554688 1.660156 0.472656 1.640625 0.296875 C 1.628906 0.117188 1.695312 0.0234375 1.84375 0.015625 Z M 1.84375 0.015625 "/></g></g></g></g></g></svg>