<svg xmlns="http://www.w3.org/2000/svg" xmlns:xlink="http://www.w3.org/1999/xlink" width="1024" zoomAndPan="magnify" viewBox="0 0 768 767.999994" height="1024" preserveAspectRatio="xMidYMid meet" version="1.0"><defs><g/><clipPath id="3037d1a73e"><path d="M 247 126 L 272 126 L 272 176 L 247 176 Z M 247 126 " clip-rule="nonzero"/></clipPath><clipPath id="945e04bf2a"><path d="M 154.945312 194.296875 L 305.441406 84.996094 L 352.597656 149.925781 L 202.101562 259.230469 Z M 154.945312 194.296875 " clip-rule="nonzero"/></clipPath><clipPath id="158bd725b8"><path d="M 154.945312 194.296875 L 305.441406 84.996094 L 352.597656 149.925781 L 202.101562 259.230469 Z M 154.945312 194.296875 " clip-rule="nonzero"/></clipPath><clipPath id="00470df91f"><path d="M 154.945312 194.296875 L 305.441406 84.996094 L 352.597656 149.925781 L 202.101562 259.230469 Z M 154.945312 194.296875 " clip-rule="nonzero"/></clipPath><clipPath id="873f85ea82"><path d="M 190 195 L 238 195 L 238 216 L 190 216 Z M 190 195 " clip-rule="nonzero"/></clipPath><clipPath id="dbe79ea1a4"><path d="M 154.945312 194.296875 L 305.441406 84.996094 L 352.597656 149.925781 L 202.101562 259.230469 Z M 154.945312 194.296875 " clip-rule="nonzero"/></clipPath><clipPath id="b8bd7ec15f"><path d="M 154.945312 194.296875 L 305.441406 84.996094 L 352.597656 149.925781 L 202.101562 259.230469 Z M 154.945312 194.296875 " clip-rule="nonzero"/></clipPath><clipPath id="2f34ef071e"><path d="M 154.945312 194.296875 L 305.441406 84.996094 L 352.597656 149.925781 L 202.101562 259.230469 Z M 154.945312 194.296875 " clip-rule="nonzero"/></clipPath><clipPath id="9e8cfb3dab"><path d="M 209 155 L 251 155 L 251 191 L 209 191 Z M 209 155 " clip-rule="nonzero"/></clipPath><clipPath id="8c21c5e9aa"><path d="M 154.945312 194.296875 L 305.441406 84.996094 L 352.597656 149.925781 L 202.101562 259.230469 Z M 154.945312 194.296875 " clip-rule="nonzero"/></clipPath><clipPath id="21df4394f5"><path d="M 154.945312 194.296875 L 305.441406 84.996094 L 352.597656 149.925781 L 202.101562 259.230469 Z M 154.945312 194.296875 " clip-rule="nonzero"/></clipPath><clipPath id="8489f88c70"><path d="M 154.945312 194.296875 L 305.441406 84.996094 L 352.597656 149.925781 L 202.101562 259.230469 Z M 154.945312 194.296875 " clip-rule="nonzero"/></clipPath><clipPath id="48af149789"><path d="M 290 125 L 300 125 L 300 171 L 290 171 Z M 290 125 " clip-rule="nonzero"/></clipPath><clipPath id="1bbba7426a"><path d="M 154.945312 194.296875 L 305.441406 84.996094 L 352.597656 149.925781 L 202.101562 259.230469 Z M 154.945312 194.296875 " clip-rule="nonzero"/></clipPath><clipPath id="2f0d1a3543"><path d="M 154.945312 194.296875 L 305.441406 84.996094 L 352.597656 149.925781 L 202.101562 259.230469 Z M 154.945312 194.296875 " clip-rule="nonzero"/></clipPath><clipPath id="0928aaf9ce"><path d="M 154.945312 194.296875 L 305.441406 84.996094 L 352.597656 149.925781 L 202.101562 259.230469 Z M 154.945312 194.296875 " clip-rule="nonzero"/></clipPath><clipPath id="1e6ae0e018"><path d="M 189 233 L 235 233 L 235 246 L 189 246 Z M 189 233 " clip-rule="nonzero"/></clipPath><clipPath id="f437dc63ec"><path d="M 154.945312 194.296875 L 305.441406 84.996094 L 352.597656 149.925781 L 202.101562 259.230469 Z M 154.945312 194.296875 " clip-rule="nonzero"/></clipPath><clipPath id="a3dc3fb560"><path d="M 154.945312 194.296875 L 305.441406 84.996094 L 352.597656 149.925781 L 202.101562 259.230469 Z M 154.945312 194.296875 " clip-rule="nonzero"/></clipPath><clipPath id="4a04ef41d9"><path d="M 154.945312 194.296875 L 305.441406 84.996094 L 352.597656 149.925781 L 202.101562 259.230469 Z M 154.945312 194.296875 " clip-rule="nonzero"/></clipPath><clipPath id="97eeaeb2bc"><path d="M 320 132 L 342 132 L 342 173 L 320 173 Z M 320 132 " clip-rule="nonzero"/></clipPath><clipPath id="8f5d421699"><path d="M 154.945312 194.296875 L 305.441406 84.996094 L 352.597656 149.925781 L 202.101562 259.230469 Z M 154.945312 194.296875 " clip-rule="nonzero"/></clipPath><clipPath id="e3f0a7f816"><path d="M 154.945312 194.296875 L 305.441406 84.996094 L 352.597656 149.925781 L 202.101562 259.230469 Z M 154.945312 194.296875 " clip-rule="nonzero"/></clipPath><clipPath id="4b33378bce"><path d="M 154.945312 194.296875 L 305.441406 84.996094 L 352.597656 149.925781 L 202.101562 259.230469 Z M 154.945312 194.296875 " clip-rule="nonzero"/></clipPath><clipPath id="00c1f56b1e"><path d="M 392 326 L 413 326 L 413 393 L 392 393 Z M 392 326 " clip-rule="nonzero"/></clipPath><clipPath id="d8f5f29306"><path d="M 411.222656 259.273438 L 428.554688 456.515625 L 393.441406 459.601562 L 376.105469 262.359375 Z M 411.222656 259.273438 " clip-rule="nonzero"/></clipPath></defs><g fill="#00ffff" fill-opacity="1"><g transform="translate(244.82296, 497.348059)"><g><path d="M 164.46875 -0.640625 L 118.25 -0.453125 L 110.140625 -53.296875 L 53.921875 -53.078125 L 46.21875 -0.171875 L 4.15625 -0.015625 L 49.671875 -291.671875 L 116.703125 -291.921875 Z M 59.59375 -92.671875 L 103.734375 -92.84375 L 81.109375 -240.140625 Z M 59.59375 -92.671875 "/></g></g></g><g fill="#00ffff" fill-opacity="1"><g transform="translate(412.602891, 496.732511)"><g><path d="M 5.421875 -291.453125 L 147 -290.828125 L 146.828125 -249.1875 L 98.9375 -249.40625 L 97.84375 0.421875 L 52.046875 0.21875 L 53.140625 -249.609375 L 5.25 -249.8125 Z M 5.421875 -291.453125 "/></g></g></g><g fill="#ff00ff" fill-opacity="1"><g transform="translate(197.65199, 475.351899)"><g><path d="M 164.46875 -0.640625 L 118.25 -0.453125 L 110.140625 -53.296875 L 53.921875 -53.078125 L 46.21875 -0.171875 L 4.15625 -0.015625 L 49.671875 -291.671875 L 116.703125 -291.921875 Z M 59.59375 -92.671875 L 103.734375 -92.84375 L 81.109375 -240.140625 Z M 59.59375 -92.671875 "/></g></g></g><g fill="#ff00ff" fill-opacity="1"><g transform="translate(365.431969, 474.736351)"><g><path d="M 5.421875 -291.453125 L 147 -290.828125 L 146.828125 -249.1875 L 98.9375 -249.40625 L 97.84375 0.421875 L 52.046875 0.21875 L 53.140625 -249.609375 L 5.25 -249.8125 Z M 5.421875 -291.453125 "/></g></g></g><g fill="#ff9f43" fill-opacity="1"><g transform="translate(221.237453, 486.349983)"><g><path d="M 164.46875 -0.640625 L 118.25 -0.453125 L 110.140625 -53.296875 L 53.921875 -53.078125 L 46.21875 -0.171875 L 4.15625 -0.015625 L 49.671875 -291.671875 L 116.703125 -291.921875 Z M 59.59375 -92.671875 L 103.734375 -92.84375 L 81.109375 -240.140625 Z M 59.59375 -92.671875 "/></g></g></g><g fill="#ff9f43" fill-opacity="1"><g transform="translate(389.017416, 485.734435)"><g><path d="M 5.421875 -291.453125 L 147 -290.828125 L 146.828125 -249.1875 L 98.9375 -249.40625 L 97.84375 0.421875 L 52.046875 0.21875 L 53.140625 -249.609375 L 5.25 -249.8125 Z M 5.421875 -291.453125 "/></g></g></g><g clip-path="url(#3037d1a73e)"><g clip-path="url(#945e04bf2a)"><g clip-path="url(#158bd725b8)"><g clip-path="url(#00470df91f)"><path fill="#a1c264" d="M 266.539062 153.359375 C 266.421875 153.582031 266.304688 153.808594 266.214844 153.875 C 266.480469 154.238281 266.769531 154.445312 267.035156 154.8125 C 267.234375 155.085938 267.410156 155.515625 267.515625 155.855469 C 267.582031 155.949219 267.558594 156.105469 267.597656 156.355469 C 267.640625 156.601562 267.617188 156.761719 267.746094 156.941406 C 268.011719 157.308594 268.003906 157.871094 268.519531 158.195312 C 268.585938 158.285156 268.558594 158.445312 268.625 158.535156 C 268.5 159.324219 269.03125 160.054688 269.132812 160.957031 C 269.105469 161.113281 269.265625 161.140625 269.304688 161.386719 C 269.503906 161.660156 269.613281 162 269.628906 162.40625 C 269.621094 162.972656 269.953125 163.429688 270.191406 163.949219 C 270.324219 164.132812 270.300781 164.289062 270.339844 164.539062 C 270.359375 164.945312 270.375 165.351562 270.730469 165.652344 C 270.796875 165.742188 270.929688 165.925781 270.839844 165.992188 C 270.621094 166.84375 271.308594 167.597656 271.253906 168.476562 C 271.226562 168.636719 271.269531 168.882812 271.242188 169.042969 C 271.261719 169.449219 271.367188 169.789062 271.386719 170.195312 C 271.402344 170.601562 271.351562 170.914062 271.367188 171.320312 C 271.351562 172.449219 271.335938 173.574219 271.253906 174.613281 C 271.226562 174.769531 271.203125 174.925781 271.175781 175.085938 C 271.042969 174.902344 270.820312 174.785156 270.820312 174.785156 C 270.300781 175.023438 270.191406 174.683594 269.835938 174.386719 C 268.527344 172.96875 267.308594 171.480469 266.113281 169.839844 C 265.71875 169.292969 265.410156 168.679688 265.105469 168.0625 C 264.972656 167.882812 264.773438 167.609375 264.546875 167.492188 C 264.101562 167.257812 263.96875 167.074219 264.042969 166.605469 C 264.09375 166.289062 263.917969 165.859375 263.652344 165.492188 C 263.414062 164.96875 263.171875 164.449219 262.933594 163.925781 C 262.800781 163.742188 262.667969 163.558594 262.535156 163.378906 C 262.363281 162.945312 261.707031 163.003906 261.714844 162.4375 C 261.699219 162.035156 261.523438 161.601562 261.507812 161.195312 C 261.53125 161.039062 261.398438 160.855469 261.425781 160.699219 C 260.886719 160.53125 260.710938 160.101562 260.539062 159.667969 C 260.363281 159.238281 260.074219 159.03125 260.082031 158.464844 C 260.089844 157.902344 259.785156 157.289062 259.203125 156.875 C 258.847656 156.574219 258.648438 156.300781 258.566406 155.804688 C 258.375 154.964844 258.09375 154.195312 257.8125 153.425781 C 257.769531 153.175781 257.640625 152.992188 257.507812 152.808594 C 257.398438 152.46875 257.222656 152.039062 257.117188 151.699219 C 256.941406 151.265625 256.769531 150.835938 256.527344 150.3125 C 256.488281 150.066406 256.289062 149.792969 256.246094 149.542969 C 256.074219 149.109375 256.054688 148.703125 255.632812 148.316406 C 255.011719 147.652344 254.820312 146.8125 254.539062 146.042969 C 254.367188 145.609375 254.375 145.046875 253.792969 144.632812 C 253.726562 144.539062 253.660156 144.449219 253.6875 144.292969 C 253.628906 143.636719 253.414062 142.957031 253.105469 142.34375 C 253.039062 142.25 253.066406 142.09375 253 142.003906 C 252.070312 140.726562 252.070312 140.726562 251.757812 139.140625 C 251.714844 138.894531 251.492188 138.777344 251.382812 138.4375 C 251.183594 138.164062 251.011719 137.730469 250.8125 137.457031 C 250.746094 137.367188 250.769531 137.207031 250.703125 137.117188 C 250.304688 136.570312 250.15625 135.980469 249.917969 135.457031 C 249.59375 134.4375 248.839844 133.59375 248.242188 132.769531 C 247.976562 132.40625 247.84375 132.222656 248.300781 131.890625 C 248.144531 131.867188 247.984375 131.84375 247.921875 131.75 C 247.855469 131.660156 247.628906 131.542969 247.65625 131.386719 C 247.636719 130.980469 247.464844 130.546875 247.355469 130.207031 C 247.222656 130.027344 247.429688 129.734375 247.457031 129.578125 C 247.480469 129.421875 247.636719 129.445312 247.664062 129.289062 C 247.648438 128.882812 247.628906 128.476562 247.613281 128.070312 C 247.664062 127.753906 247.871094 127.464844 248.101562 127.019531 C 248.484375 127.160156 249.046875 127.167969 249.585938 127.335938 C 249.703125 127.109375 249.910156 126.820312 250.117188 126.53125 C 250.679688 126.539062 251.308594 126.640625 251.871094 126.648438 L 252.992188 127.230469 C 253.28125 127.4375 253.4375 127.464844 253.738281 127.109375 C 254.136719 127.65625 254.441406 128.269531 255.136719 128.460938 C 255.203125 128.550781 255.269531 128.644531 255.335938 128.734375 C 255.46875 128.917969 255.511719 129.164062 255.710938 129.441406 C 255.972656 129.804688 256.171875 130.078125 256.191406 130.484375 C 256.164062 130.640625 256.207031 130.890625 256.519531 130.941406 C 256.992188 131.015625 257.011719 131.421875 257.027344 131.828125 C 257.058594 132.640625 257.523438 133.28125 258.171875 133.785156 C 258.238281 133.878906 258.460938 133.992188 258.59375 134.175781 C 258.425781 134.714844 258.511719 135.210938 258.839844 135.667969 C 259.253906 136.621094 259.667969 137.578125 260.085938 138.53125 C 260.148438 138.621094 260.191406 138.871094 260.257812 138.960938 C 260.679688 139.351562 260.855469 139.78125 260.9375 140.28125 C 261.128906 141.117188 261.59375 141.757812 262.054688 142.394531 C 262.1875 142.578125 262.113281 143.050781 262.585938 143.125 C 262.742188 143.152344 262.917969 143.582031 262.894531 143.738281 C 262.636719 144.34375 263.191406 144.917969 263.273438 145.414062 C 263.25 145.570312 263.449219 145.847656 263.539062 145.78125 C 264.234375 145.972656 264.042969 146.667969 264.375 147.125 C 264.507812 147.304688 264.144531 147.570312 264.34375 147.84375 C 264.832031 148.324219 264.980469 148.914062 265.222656 149.4375 C 265.355469 149.621094 265.394531 149.867188 265.4375 150.117188 C 265.503906 150.207031 265.453125 150.523438 265.609375 150.546875 C 266.089844 151.59375 265.851562 152.605469 266.539062 153.359375 Z M 266.539062 153.359375 " fill-opacity="1" fill-rule="nonzero"/></g></g></g></g><g clip-path="url(#873f85ea82)"><g clip-path="url(#dbe79ea1a4)"><g clip-path="url(#b8bd7ec15f)"><g clip-path="url(#2f34ef071e)"><path fill="#f28a29" d="M 205.871094 208.433594 C 205.921875 208.121094 205.878906 207.871094 205.996094 207.648438 C 205.496094 207.730469 205.089844 207.746094 204.683594 207.761719 C 204.554688 207.578125 204.511719 207.332031 204.378906 207.148438 C 203.839844 206.980469 203.269531 207.535156 202.78125 207.054688 C 202.648438 206.871094 202.605469 206.625 202.5625 206.375 C 201.949219 206.679688 201.421875 205.953125 200.765625 206.007812 C 200.019531 206.132812 199.648438 205.425781 198.953125 205.234375 C 198.769531 205.367188 198.519531 205.410156 198.179688 205.515625 C 198.097656 205.019531 197.78125 204.96875 197.3125 204.894531 C 196.929688 204.753906 196.640625 204.542969 196.347656 204.335938 C 196.027344 204.851562 195.652344 204.144531 195.289062 204.410156 C 195.339844 204.09375 195.363281 203.9375 195.320312 203.6875 C 194.625 203.496094 193.839844 203.371094 193.078125 203.089844 C 192.378906 202.898438 192.40625 202.742188 192.414062 202.175781 C 192.058594 201.878906 191.765625 201.671875 191.476562 201.460938 C 191.410156 201.371094 191.253906 201.347656 191.097656 201.320312 C 190.398438 201.128906 190.515625 200.90625 190.183594 200.449219 C 189.851562 199.992188 190.125 199.792969 190.109375 199.386719 C 190.226562 199.164062 190.277344 198.851562 190.167969 198.511719 C 190.125 198.261719 190.332031 197.972656 190.382812 197.65625 C 190.433594 197.339844 190.550781 197.117188 190.691406 196.738281 C 190.871094 196.605469 191.304688 196.429688 191.511719 196.140625 C 191.71875 195.851562 192.058594 195.742188 192.464844 195.726562 C 192.710938 195.6875 192.984375 195.488281 193.257812 195.289062 C 193.390625 195.472656 193.433594 195.71875 193.5 195.8125 C 194.085938 195.664062 194.757812 196.011719 195.4375 195.796875 C 195.9375 195.714844 196.292969 196.015625 196.242188 196.328125 C 196.492188 196.289062 196.648438 196.3125 196.898438 196.273438 C 197.054688 196.296875 197.121094 196.386719 197.121094 196.386719 C 197.511719 195.964844 197.933594 196.355469 198.132812 196.628906 C 198.554688 197.019531 198.800781 196.980469 199.234375 196.804688 C 199.722656 197.285156 200.234375 197.609375 200.914062 197.394531 C 201.253906 197.289062 201.480469 197.40625 202.101562 198.070312 C 202.191406 198.003906 202.28125 197.9375 202.53125 197.894531 C 202.621094 197.828125 202.804688 197.695312 202.804688 197.695312 C 203.1875 197.839844 203.476562 198.046875 203.699219 198.160156 C 203.988281 198.371094 204.1875 198.644531 204.414062 198.757812 C 204.703125 198.96875 204.992188 199.175781 205.421875 199 C 206.46875 198.523438 206.691406 198.636719 207.328125 199.707031 C 207.511719 199.574219 207.695312 199.445312 207.941406 199.402344 C 208.101562 199.425781 208.324219 199.542969 208.570312 199.503906 C 208.546875 199.660156 208.523438 199.816406 208.472656 200.132812 C 209.390625 200.441406 210.335938 200.589844 211.515625 200.292969 C 211.554688 200.542969 211.664062 200.882812 211.769531 201.222656 C 212.402344 201.324219 213.03125 201.421875 213.726562 201.613281 C 214.042969 201.664062 214.304688 202.03125 214.597656 202.238281 C 215.003906 202.222656 215.34375 202.113281 215.75 202.097656 C 215.699219 202.414062 215.648438 202.726562 215.507812 203.109375 C 216.304688 202.671875 216.75 202.902344 217.238281 203.382812 C 217.304688 203.476562 217.4375 203.660156 217.53125 203.59375 C 218.433594 203.492188 219.210938 204.183594 220.113281 204.085938 C 220.207031 204.019531 220.363281 204.042969 220.429688 204.132812 C 220.71875 204.34375 220.828125 204.683594 221.140625 204.730469 C 221.457031 204.78125 221.796875 204.675781 221.996094 204.949219 C 222.128906 205.132812 222.195312 205.222656 222.328125 205.40625 C 223.296875 205.398438 223.296875 205.398438 223.511719 206.078125 C 223.941406 205.90625 224.441406 205.824219 224.9375 205.738281 C 224.980469 205.988281 224.953125 206.144531 224.929688 206.304688 C 225.242188 206.355469 225.648438 206.335938 225.941406 206.546875 C 226.386719 206.777344 226.925781 206.945312 227.28125 207.242188 C 228.21875 207.957031 229.296875 208.289062 230.421875 208.308594 C 230.398438 208.464844 230.464844 208.558594 230.503906 208.804688 C 231.949219 208.875 233.015625 209.769531 234.316406 210.21875 C 234.316406 210.21875 234.292969 210.378906 234.292969 210.378906 C 234.042969 210.417969 233.820312 210.300781 233.570312 210.34375 C 233.945312 211.046875 234.914062 211.042969 235.378906 211.679688 C 235.777344 212.226562 236.421875 212.734375 237.070312 213.242188 C 236.730469 213.347656 236.390625 213.457031 236.050781 213.5625 C 236.273438 213.679688 236.339844 213.769531 236.628906 213.976562 C 235.925781 214.351562 235.378906 214.746094 234.699219 214.960938 C 233.925781 215.242188 233.023438 215.339844 232.277344 215.464844 C 232.1875 215.53125 232.054688 215.347656 231.988281 215.257812 C 231.832031 215.230469 231.542969 215.023438 231.359375 215.15625 C 230.066406 215.675781 228.882812 215.003906 227.6875 214.894531 C 226.96875 214.859375 226.386719 214.445312 225.707031 214.660156 C 225.523438 214.792969 225.167969 214.496094 225.035156 214.3125 C 224.769531 213.945312 224.390625 213.804688 223.984375 213.820312 C 223.578125 213.835938 223.082031 213.917969 222.699219 213.777344 C 221.753906 213.628906 220.925781 213.253906 219.914062 213.011719 C 219.742188 212.582031 219.246094 212.664062 218.953125 212.457031 C 218.347656 212.199219 217.652344 212.007812 217.023438 211.90625 C 216.492188 211.175781 215.632812 211.523438 214.871094 211.238281 C 214.421875 211.007812 213.949219 210.933594 213.410156 210.765625 C 213.253906 210.742188 212.988281 210.375 212.699219 210.167969 C 212.292969 210.183594 211.730469 210.175781 211.488281 209.652344 C 210.742188 209.777344 210.195312 208.640625 209.308594 209.144531 C 208.703125 208.886719 207.957031 209.011719 207.335938 208.347656 C 207.179688 208.320312 206.574219 208.0625 205.871094 208.433594 Z M 205.871094 208.433594 " fill-opacity="1" fill-rule="nonzero"/></g></g></g></g><g clip-path="url(#9e8cfb3dab)"><g clip-path="url(#8c21c5e9aa)"><g clip-path="url(#21df4394f5)"><g clip-path="url(#8489f88c70)"><path fill="#fedc0f" d="M 209.867188 159.109375 C 210.097656 158.660156 210.304688 158.371094 210.449219 157.992188 C 210.828125 158.132812 211.050781 158.25 211.433594 158.390625 C 211.390625 158.140625 211.351562 157.890625 211.242188 157.550781 C 211.558594 157.601562 211.714844 157.628906 211.871094 157.652344 C 211.855469 157.246094 211.773438 156.75 211.757812 156.34375 C 212.070312 156.394531 212.453125 156.535156 212.769531 156.585938 C 212.726562 156.335938 212.617188 155.996094 212.511719 155.65625 C 213.363281 155.871094 214.308594 156.023438 215.164062 156.238281 C 215.054688 155.898438 215.011719 155.652344 214.972656 155.402344 C 215.261719 155.609375 215.578125 155.660156 215.800781 155.777344 C 215.957031 155.800781 216.117188 155.824219 216.496094 155.96875 C 216.472656 156.125 216.605469 156.308594 216.644531 156.554688 C 217.53125 156.050781 217.839844 156.664062 218.304688 157.304688 C 218.5 157.578125 218.792969 157.785156 219.015625 157.902344 C 220.226562 158.417969 220.226562 158.417969 220.117188 159.609375 C 220.117188 159.609375 220.183594 159.703125 220.25 159.792969 C 220.433594 159.660156 220.546875 159.4375 220.730469 159.304688 C 220.730469 159.304688 220.820312 159.238281 220.820312 159.238281 C 221.46875 159.746094 222.046875 160.160156 222.601562 160.734375 C 222.734375 160.914062 222.84375 161.253906 223.042969 161.53125 C 223.226562 161.398438 223.472656 161.355469 223.566406 161.289062 C 223.628906 161.382812 223.722656 161.316406 223.695312 161.472656 C 223.78125 161.96875 224.136719 162.269531 224.675781 162.433594 C 225.214844 162.601562 225.140625 163.074219 225.402344 163.4375 C 226.375 163.433594 226.375 163.433594 226.089844 164.195312 C 226.761719 164.542969 226.035156 163.539062 226.703125 163.886719 C 226.769531 163.980469 226.996094 164.097656 226.96875 164.253906 C 226.894531 164.726562 227.34375 164.957031 227.632812 165.164062 C 228.148438 165.488281 228.296875 166.078125 228.742188 166.3125 C 229.035156 166.519531 229.257812 166.636719 229.53125 166.4375 C 229.621094 166.371094 229.777344 166.394531 229.871094 166.328125 C 229.910156 166.578125 229.976562 166.667969 229.953125 166.828125 C 230.078125 167.574219 230.410156 168.027344 231.171875 168.3125 C 231.617188 168.542969 232.132812 168.867188 232.398438 169.234375 C 232.570312 169.664062 232.953125 169.804688 233.398438 170.039062 C 233.375 170.195312 233.351562 170.355469 233.234375 170.578125 C 233.890625 170.519531 233.765625 171.308594 234.304688 171.472656 C 234.585938 172.246094 235.777344 172.355469 235.878906 173.257812 C 236.351562 173.332031 236.390625 173.582031 236.566406 174.015625 C 236.671875 174.355469 236.9375 174.71875 237.160156 174.835938 C 237.992188 175.210938 238.289062 176.386719 239.390625 176.5625 C 239.339844 176.878906 239.109375 177.324219 239.738281 177.425781 C 240.367188 177.523438 240.765625 178.074219 241.03125 178.4375 C 241.5625 179.167969 242.117188 179.742188 242.738281 180.40625 C 242.871094 180.585938 242.886719 180.992188 243.203125 181.042969 C 243.019531 181.175781 242.996094 181.332031 242.902344 181.398438 C 243.351562 181.632812 243.796875 181.863281 244.402344 182.121094 C 244.3125 182.1875 244.378906 182.28125 244.355469 182.4375 C 244.777344 182.828125 245.199219 183.21875 245.621094 183.609375 C 245.6875 183.699219 245.753906 183.789062 245.730469 183.949219 C 245.65625 184.421875 245.878906 184.535156 246.308594 184.363281 C 246.285156 184.519531 246.195312 184.585938 246.078125 184.808594 C 246.523438 185.042969 246.855469 185.5 247.097656 186.023438 C 247.429688 186.476562 247.851562 186.867188 248.273438 187.257812 C 249.050781 187.949219 250.269531 189.433594 250.816406 190.570312 C 250.304688 190.246094 249.855469 190.011719 249.34375 189.6875 C 249.25 189.753906 249.25 189.753906 249.160156 189.820312 C 249.425781 190.1875 249.625 190.460938 250.113281 190.941406 C 249.417969 190.75 249.035156 190.609375 248.496094 190.441406 C 247.578125 190.132812 246.796875 189.445312 245.761719 189.359375 C 245.289062 189.285156 244.867188 188.894531 244.511719 188.597656 C 244.222656 188.390625 243.839844 188.246094 243.640625 187.972656 C 243.375 187.609375 243.128906 187.648438 242.746094 187.507812 C 242.589844 187.484375 242.546875 187.234375 242.414062 187.050781 C 242.347656 186.960938 242.101562 187.003906 241.941406 186.976562 C 241.652344 186.769531 241.726562 186.296875 241.230469 186.378906 C 240.65625 185.398438 239.464844 185.292969 238.710938 184.445312 C 238.15625 183.871094 237.484375 183.523438 236.929688 182.949219 C 236.796875 182.769531 236.480469 182.71875 236.035156 182.484375 C 236.035156 182.484375 235.992188 182.234375 235.992188 182.234375 C 235.570312 181.847656 235.214844 181.546875 234.765625 181.316406 C 234.542969 181.199219 234.226562 181.148438 234.003906 181.03125 C 233.855469 180.441406 233.40625 180.210938 232.753906 180.269531 C 232.710938 180.019531 232.644531 179.925781 232.671875 179.769531 C 232.421875 179.8125 232.265625 179.785156 232.171875 179.851562 C 232.039062 179.667969 231.839844 179.394531 231.710938 179.214844 C 231.511719 178.941406 231.21875 178.730469 231.019531 178.457031 C 230.824219 178.183594 230.53125 177.976562 230.242188 177.769531 C 229.859375 177.628906 229.53125 177.171875 229.171875 176.871094 C 228.976562 176.597656 228.777344 176.324219 228.527344 176.367188 C 228.054688 176.292969 227.699219 175.992188 227.523438 175.5625 C 227.457031 175.46875 227.390625 175.378906 227.234375 175.351562 C 226.605469 175.253906 226.15625 175.019531 225.734375 174.628906 C 225.535156 174.355469 225.089844 174.125 224.890625 173.851562 C 224.824219 173.757812 224.691406 173.578125 224.535156 173.550781 C 223.457031 173.21875 222.769531 172.464844 221.898438 171.839844 C 221.316406 171.425781 220.738281 171.011719 220.25 170.527344 C 219.402344 169.75 219.933594 170.476562 219.15625 169.789062 C 219.089844 169.699219 219.023438 169.605469 219.023438 169.605469 C 218.261719 169.324219 217.953125 168.710938 217.582031 168.003906 C 217.449219 167.824219 217.160156 167.613281 217 167.589844 C 216.527344 167.515625 216.171875 167.214844 215.90625 166.851562 C 215.640625 166.484375 215.445312 166.210938 214.878906 166.203125 C 214.722656 166.179688 214.523438 165.902344 214.390625 165.722656 C 214.21875 165.289062 213.859375 164.992188 213.386719 164.917969 C 213.007812 164.773438 212.625 164.632812 212.609375 164.226562 C 212.566406 163.976562 212.003906 163.96875 212.144531 163.589844 C 212.144531 163.589844 211.699219 163.355469 211.539062 163.332031 C 211.390625 162.742188 211.492188 162.113281 210.910156 161.695312 C 210.84375 161.605469 210.710938 161.421875 210.804688 161.355469 C 211.332031 160.554688 210.84375 160.070312 210.761719 159.574219 C 210.65625 159.234375 210.363281 159.027344 209.867188 159.109375 Z M 209.867188 159.109375 " fill-opacity="1" fill-rule="nonzero"/></g></g></g></g><g clip-path="url(#48af149789)"><g clip-path="url(#1bbba7426a)"><g clip-path="url(#2f0d1a3543)"><g clip-path="url(#0928aaf9ce)"><path fill="#089ed3" d="M 297.214844 170.671875 C 296.742188 170.597656 296.515625 170.480469 296.113281 170.5 C 295.804688 169.882812 295.523438 169.113281 295.085938 168.316406 C 294.628906 167.113281 294.265625 165.84375 293.808594 164.644531 C 293.742188 164.550781 293.699219 164.304688 293.726562 164.144531 C 293.824219 163.515625 293.675781 162.925781 293.460938 162.246094 C 293.285156 161.816406 293.019531 161.449219 293.253906 161.003906 C 293.371094 160.78125 293.238281 160.597656 293.195312 160.347656 C 293.21875 160.191406 293.085938 160.007812 293.113281 159.851562 C 293.304688 159.15625 292.996094 158.539062 292.664062 158.085938 C 292.398438 157.71875 292.671875 157.519531 292.632812 157.273438 C 292.523438 156.933594 292.101562 156.542969 292.558594 156.210938 C 292.175781 156.070312 292.382812 155.78125 292.34375 155.53125 C 292.300781 155.28125 292.285156 154.875 292.359375 154.402344 C 292.050781 153.789062 292.019531 152.976562 292.078125 152.097656 C 291.628906 151.867188 291.363281 151.5 291.664062 151.144531 C 291.960938 150.789062 291.917969 150.539062 291.722656 150.265625 C 291.65625 150.175781 291.679688 150.015625 291.613281 149.925781 C 292.003906 149.503906 291.621094 149.363281 291.332031 149.15625 C 291.5625 148.707031 291.953125 148.285156 291.554688 147.738281 C 291.421875 147.554688 291.5625 147.175781 291.613281 146.859375 C 291.753906 146.476562 290.917969 146.667969 291.375 146.335938 C 290.769531 146.078125 291.15625 145.65625 291.296875 145.273438 C 291.390625 145.210938 291.324219 145.117188 291.414062 145.050781 C 291.257812 145.027344 291.191406 144.933594 291.035156 144.910156 C 291.058594 144.753906 291.148438 144.6875 291.175781 144.527344 C 290.769531 144.546875 290.910156 144.164062 290.910156 144.164062 C 291.324219 143.585938 290.859375 142.945312 291.023438 142.40625 C 291.214844 141.710938 290.976562 141.1875 290.828125 140.597656 C 290.742188 140.101562 290.976562 139.65625 290.460938 139.332031 C 290.394531 139.238281 290.445312 138.925781 290.46875 138.765625 C 290.84375 137.9375 290.335938 137.050781 290.304688 136.238281 C 290.261719 135.988281 290.15625 135.648438 290.179688 135.492188 C 290.347656 134.953125 290.355469 134.390625 290.613281 133.785156 C 290.894531 133.023438 290.808594 132.523438 290.503906 131.910156 C 290.4375 131.820312 290.371094 131.730469 290.394531 131.570312 C 290.992188 130.859375 290.953125 130.609375 290.460938 130.128906 C 290.5625 129.5 291.132812 128.945312 290.578125 128.371094 C 290.785156 128.082031 290.902344 127.859375 291.019531 127.632812 C 291.332031 127.683594 291.648438 127.734375 291.988281 127.628906 C 292.101562 127.402344 292.128906 127.246094 292.3125 127.113281 C 292.492188 126.980469 292.742188 126.941406 292.921875 126.808594 C 292.988281 126.898438 293.121094 127.082031 293.253906 127.265625 C 293.394531 126.882812 293.601562 126.59375 293.746094 126.210938 C 294.058594 126.261719 294.28125 126.378906 294.664062 126.519531 C 294.714844 126.207031 294.738281 126.046875 294.761719 125.890625 C 295.261719 125.808594 295.277344 126.214844 295.386719 126.554688 C 295.882812 126.472656 296.289062 126.457031 296.347656 127.109375 C 296.414062 127.203125 296.542969 127.382812 296.542969 127.382812 C 297.449219 127.285156 297.457031 128.257812 297.96875 128.578125 C 298.128906 128.605469 298.144531 129.011719 298.121094 129.167969 C 298.21875 130.074219 298.5 130.84375 298.78125 131.613281 C 298.890625 131.953125 298.996094 132.296875 298.855469 132.675781 C 298.550781 133.597656 299.304688 134.441406 299.15625 135.386719 C 299.03125 136.175781 299.378906 137.035156 299.410156 137.847656 C 299.46875 138.503906 299.371094 139.132812 299.429688 139.789062 C 299.527344 140.691406 299.15625 141.523438 299.503906 142.382812 C 299.570312 142.476562 299.453125 142.699219 299.425781 142.855469 C 299.445312 143.261719 299.277344 143.800781 299.726562 144.035156 C 300.015625 144.242188 300.058594 144.492188 299.824219 144.9375 C 299.570312 145.542969 299.402344 146.082031 299.460938 146.734375 C 299.476562 147.140625 299.585938 147.480469 299.691406 147.820312 C 299.792969 148.726562 299.757812 149.445312 299.46875 150.773438 C 299.304688 151.3125 299.453125 151.902344 299.445312 152.464844 C 299.484375 152.710938 299.433594 153.027344 299.386719 153.34375 C 300.058594 153.691406 299.683594 154.519531 299.832031 155.109375 C 299.867188 155.921875 299.492188 156.75 299.75 157.679688 C 299.816406 157.769531 299.632812 157.902344 299.609375 158.058594 C 299.585938 158.21875 299.492188 158.285156 299.558594 158.375 C 299.832031 159.710938 299.898438 159.800781 299.707031 160.496094 C 299.335938 161.324219 299.433594 162.230469 299.375 163.109375 C 299.351562 163.265625 299.351562 163.265625 299.417969 163.355469 C 299.078125 164.996094 299.210938 166.714844 298.398438 168.28125 C 297.867188 169.082031 297.585938 169.84375 297.214844 170.671875 Z M 297.214844 170.671875 " fill-opacity="1" fill-rule="nonzero"/></g></g></g></g><g clip-path="url(#1e6ae0e018)"><g clip-path="url(#f437dc63ec)"><g clip-path="url(#a3dc3fb560)"><g clip-path="url(#4a04ef41d9)"><path fill="#d31416" d="M 234.117188 234.484375 C 234.132812 234.890625 234.085938 235.203125 234.007812 235.675781 C 233.394531 235.984375 232.667969 236.511719 231.960938 236.882812 C 230.894531 237.523438 229.625 237.882812 228.464844 238.585938 C 228.375 238.652344 228.125 238.695312 227.96875 238.671875 C 227.246094 238.636719 226.726562 238.875 226.113281 239.183594 C 225.679688 239.355469 225.382812 239.710938 224.84375 239.546875 C 224.6875 239.519531 224.347656 239.628906 224.097656 239.667969 C 223.941406 239.644531 223.734375 239.933594 223.667969 239.84375 C 222.878906 239.714844 222.425781 240.046875 221.945312 240.535156 C 221.644531 240.890625 221.378906 240.527344 221.199219 240.660156 C 220.859375 240.765625 220.625 241.214844 220.113281 240.890625 C 219.972656 241.269531 219.75 241.15625 219.5 241.195312 C 219.160156 241.304688 218.84375 241.253906 218.347656 241.335938 C 217.800781 241.734375 216.898438 241.832031 216.085938 241.863281 C 215.917969 242.402344 215.644531 242.601562 215.132812 242.277344 C 214.84375 242.070312 214.59375 242.109375 214.320312 242.308594 C 214.230469 242.375 214.046875 242.507812 213.980469 242.417969 C 213.46875 242.09375 213.417969 242.40625 213.277344 242.789062 C 212.804688 242.714844 212.316406 242.230469 211.835938 242.71875 C 211.652344 242.851562 211.246094 242.867188 211.023438 242.753906 C 210.707031 242.703125 210.921875 243.382812 210.566406 243.082031 C 210.308594 243.6875 209.953125 243.390625 209.480469 243.3125 C 209.414062 243.222656 209.324219 243.289062 209.167969 243.265625 C 209.140625 243.421875 209.117188 243.578125 209.117188 243.578125 C 208.960938 243.554688 208.800781 243.527344 208.734375 243.4375 C 208.84375 243.777344 208.371094 243.703125 208.371094 243.703125 C 207.765625 243.445312 207.21875 243.84375 206.65625 243.832031 C 206.027344 243.734375 205.414062 244.039062 204.824219 244.1875 C 204.394531 244.359375 203.855469 244.195312 203.53125 244.707031 C 203.441406 244.773438 203.191406 244.816406 202.96875 244.699219 C 202.046875 244.390625 201.292969 245.078125 200.546875 245.203125 C 200.390625 245.175781 200.117188 245.375 199.894531 245.257812 C 199.355469 245.09375 198.699219 245.148438 198.226562 245.074219 C 197.53125 244.882812 196.945312 245.03125 196.398438 245.429688 C 196.304688 245.496094 196.214844 245.5625 196.125 245.628906 C 195.386719 245.1875 195.070312 245.136719 194.65625 245.714844 C 194.09375 245.707031 193.445312 245.199219 192.941406 245.847656 C 192.585938 245.546875 192.269531 245.496094 192.046875 245.382812 C 192.003906 245.132812 191.988281 244.726562 192.039062 244.410156 C 191.816406 244.296875 191.566406 244.335938 191.433594 244.152344 C 191.300781 243.972656 191.167969 243.789062 191.125 243.539062 C 191.21875 243.472656 191.398438 243.339844 191.425781 243.183594 C 191.042969 243.042969 190.664062 242.902344 190.347656 242.851562 C 190.398438 242.535156 190.449219 242.222656 190.589844 241.839844 C 190.339844 241.882812 190.183594 241.855469 189.933594 241.898438 C 189.785156 241.308594 190.125 241.203125 190.4375 241.25 C 190.355469 240.753906 190.273438 240.257812 190.929688 240.199219 C 191.019531 240.132812 191.203125 240 191.136719 239.910156 C 190.945312 239.070312 191.9375 238.90625 192.195312 238.300781 C 192.222656 238.144531 192.5625 238.039062 192.71875 238.0625 C 193.554688 237.875 194.324219 237.59375 195.121094 237.152344 C 195.394531 236.957031 195.800781 236.9375 196.117188 236.988281 C 197.058594 237.140625 197.746094 236.359375 198.785156 236.445312 C 199.503906 236.480469 200.300781 236.042969 201.136719 235.851562 C 201.726562 235.703125 202.355469 235.804688 203.101562 235.679688 C 203.9375 235.492188 204.859375 235.796875 205.652344 235.359375 C 205.746094 235.292969 205.96875 235.410156 206.21875 235.367188 C 206.554688 235.261719 207.09375 235.429688 207.417969 234.914062 C 207.625 234.625 207.875 234.582031 208.347656 234.660156 C 208.886719 234.824219 209.582031 235.015625 210.167969 234.867188 C 210.507812 234.761719 210.847656 234.652344 211.253906 234.636719 C 212.183594 234.382812 212.902344 234.414062 214.253906 234.550781 C 214.816406 234.558594 215.40625 234.410156 215.96875 234.417969 C 216.21875 234.378906 216.535156 234.429688 216.847656 234.476562 C 217.195312 233.808594 217.890625 234 218.546875 233.941406 C 219.382812 233.753906 220.210938 234.125 221.074219 233.777344 C 221.164062 233.710938 221.390625 233.828125 221.457031 233.921875 C 221.613281 233.945312 221.679688 234.035156 221.769531 233.96875 C 222.972656 233.515625 223.0625 233.449219 223.851562 233.574219 C 224.703125 233.792969 225.539062 233.601562 226.511719 233.59375 C 226.601562 233.527344 226.667969 233.621094 226.757812 233.554688 C 228.425781 233.738281 230.097656 233.359375 231.78125 233.949219 C 232.410156 234.050781 233.265625 234.265625 234.117188 234.484375 Z M 234.117188 234.484375 " fill-opacity="1" fill-rule="nonzero"/></g></g></g></g><g clip-path="url(#97eeaeb2bc)"><g clip-path="url(#8f5d421699)"><g clip-path="url(#e3f0a7f816)"><g clip-path="url(#4b33378bce)"><path fill="#694a98" d="M 320.605469 172.785156 C 320.679688 172.3125 320.914062 171.863281 320.554688 171.566406 C 320.464844 171.628906 320.28125 171.761719 320.191406 171.828125 C 320.191406 171.828125 320.125 171.738281 320.125 171.738281 C 320.152344 170.046875 320.492188 168.40625 320.921875 166.699219 C 321.113281 166.003906 321.234375 165.214844 321.519531 164.453125 C 321.824219 163.535156 322.199219 162.703125 322.59375 161.71875 C 322.734375 161.339844 322.878906 160.957031 323.019531 160.574219 C 323.066406 160.261719 323.207031 159.878906 323.257812 159.566406 C 323.605469 158.894531 324.113281 158.246094 324.394531 157.484375 C 324.675781 156.722656 324.800781 155.9375 324.992188 155.238281 C 325.039062 154.925781 325.179688 154.542969 325.386719 154.253906 C 325.761719 153.425781 326.292969 152.621094 326.664062 151.792969 C 326.945312 151.03125 327.226562 150.269531 327.511719 149.507812 C 327.675781 148.96875 327.90625 148.519531 328.140625 148.074219 C 328.28125 147.691406 328.644531 147.425781 328.5625 146.929688 C 328.5625 146.929688 328.585938 146.773438 328.585938 146.773438 C 329.457031 145.859375 329.699219 144.851562 329.964844 143.683594 C 329.988281 143.523438 330.171875 143.390625 330.351562 143.257812 C 330.46875 143.035156 330.832031 142.769531 330.859375 142.613281 C 330.851562 141.644531 331.355469 140.996094 331.859375 140.351562 C 332.160156 139.996094 332.300781 139.613281 332.53125 139.167969 C 332.699219 138.628906 332.929688 138.179688 333.386719 137.851562 C 333.660156 137.652344 333.890625 137.203125 333.875 136.796875 C 333.984375 135.605469 334.917969 134.785156 335.632812 133.847656 C 336.046875 133.269531 336.859375 133.238281 337.15625 132.882812 C 337.8125 132.824219 338.308594 132.742188 338.804688 132.660156 C 339.300781 132.578125 339.5 132.851562 339.699219 133.125 C 340.03125 133.582031 340.386719 133.878906 340.953125 133.890625 C 341.058594 134.230469 341.257812 134.503906 341.300781 134.75 C 341.472656 135.183594 341.582031 135.523438 341.507812 135.996094 C 341.457031 136.308594 341.40625 136.625 341.515625 136.964844 C 341.507812 137.527344 341.589844 138.027344 340.976562 138.332031 C 340.976562 138.332031 340.886719 138.398438 340.886719 138.398438 C 340.933594 139.617188 339.839844 140.410156 339.507812 141.488281 C 339.320312 142.183594 338.902344 142.765625 339.121094 143.445312 C 338.820312 143.800781 338.589844 144.246094 338.289062 144.605469 C 337.601562 145.382812 337.007812 146.09375 336.921875 147.128906 C 336.898438 147.289062 336.691406 147.578125 336.507812 147.710938 C 336.210938 148.066406 335.6875 148.304688 335.679688 148.871094 C 334.976562 149.242188 335.074219 150.144531 334.4375 150.609375 C 333.980469 150.941406 333.816406 151.480469 333.808594 152.042969 C 333.757812 152.355469 333.617188 152.738281 333.277344 152.847656 C 332.730469 153.242188 332.316406 153.824219 332.125 154.519531 C 331.984375 154.898438 331.59375 155.324219 331.453125 155.703125 C 331.054688 156.691406 330.277344 157.535156 329.65625 158.402344 C 329.421875 158.851562 329.191406 159.296875 328.867188 159.8125 C 328.636719 160.257812 328.339844 160.617188 328.105469 161.0625 C 327.988281 161.285156 327.808594 161.417969 327.691406 161.640625 C 327.035156 163.234375 325.84375 164.65625 325.1875 166.25 C 324.789062 167.234375 324.101562 168.011719 323.640625 168.90625 C 323.058594 170.027344 321.964844 170.820312 321.386719 171.9375 C 321.335938 172.253906 320.96875 172.519531 320.605469 172.785156 Z M 320.605469 172.785156 " fill-opacity="1" fill-rule="nonzero"/></g></g></g></g><g clip-path="url(#00c1f56b1e)"><g clip-path="url(#d8f5f29306)"><g fill="#000000" fill-opacity="1"><g transform="translate(393.064961, 326.818848)"><g><path d="M 0.671875 7.65625 L 1.921875 6.875 L 1.921875 6.8125 C 1.304688 6.394531 0.875 5.957031 0.625 5.5 C 0.375 5.039062 0.21875 4.429688 0.15625 3.671875 C 0.0703125 2.734375 0.285156 1.972656 0.796875 1.390625 C 1.316406 0.816406 2.082031 0.484375 3.09375 0.390625 C 4.144531 0.296875 4.957031 0.585938 5.53125 1.265625 C 6.113281 1.953125 6.5 3 6.6875 4.40625 L 6.890625 6.03125 L 7.03125 6.03125 C 7.84375 5.957031 8.210938 5.523438 8.140625 4.734375 C 8.078125 4.003906 7.753906 3.097656 7.171875 2.015625 L 9.34375 0.84375 C 10.050781 1.9375 10.484375 3.367188 10.640625 5.140625 C 10.753906 6.410156 10.519531 7.421875 9.9375 8.171875 C 9.363281 8.929688 8.507812 9.359375 7.375 9.453125 L 0.875 10.03125 Z M 2.6875 4.921875 C 2.71875 5.328125 2.878906 5.664062 3.171875 5.9375 C 3.460938 6.207031 3.816406 6.320312 4.234375 6.28125 L 5.015625 6.21875 L 4.90625 5.453125 C 4.757812 4.328125 4.296875 3.796875 3.515625 3.859375 C 2.898438 3.910156 2.625 4.265625 2.6875 4.921875 Z M 2.6875 4.921875 "/></g></g><g transform="translate(394.046767, 337.990633)"><g><path d="M 0.40625 4.609375 L 0.109375 1.1875 L 13.734375 -0.015625 L 14.03125 3.40625 Z M 0.40625 4.609375 "/></g></g><g transform="translate(394.556137, 343.786653)"><g><path d="M 0.359375 6 C 0.210938 4.332031 0.535156 3.003906 1.328125 2.015625 C 2.117188 1.023438 3.328125 0.460938 4.953125 0.328125 C 6.628906 0.171875 7.957031 0.476562 8.9375 1.25 C 9.914062 2.019531 10.472656 3.191406 10.609375 4.765625 C 10.734375 6.253906 10.4375 7.4375 9.71875 8.3125 C 9.007812 9.195312 7.925781 9.707031 6.46875 9.84375 L 4.9375 9.96875 L 4.40625 3.859375 C 3.851562 3.929688 3.429688 4.171875 3.140625 4.578125 C 2.859375 4.992188 2.75 5.523438 2.8125 6.171875 C 2.863281 6.773438 2.96875 7.320312 3.125 7.8125 C 3.28125 8.3125 3.523438 8.847656 3.859375 9.421875 L 1.390625 9.640625 C 1.078125 9.117188 0.84375 8.578125 0.6875 8.015625 C 0.53125 7.453125 0.421875 6.78125 0.359375 6 Z M 8.265625 5.09375 C 8.234375 4.6875 8.078125 4.359375 7.796875 4.109375 C 7.523438 3.867188 7.113281 3.742188 6.5625 3.734375 L 6.828125 6.671875 C 7.304688 6.617188 7.675781 6.445312 7.9375 6.15625 C 8.195312 5.875 8.304688 5.519531 8.265625 5.09375 Z M 8.265625 5.09375 "/></g></g><g transform="translate(395.530248, 354.870884)"><g><path d="M 5.96875 4.015625 C 6.664062 4.367188 7.207031 4.675781 7.59375 4.9375 L 10.609375 6.90625 L 10.9375 10.71875 L 6.421875 7.65625 L 1.03125 11.8125 L 0.6875 7.90625 L 4.046875 5.421875 L 3.109375 4.390625 L 0.40625 4.625 L 0.109375 1.1875 L 13.734375 -0.015625 L 14.03125 3.421875 L 8.671875 3.90625 C 7.753906 3.976562 6.851562 3.992188 5.96875 3.953125 Z M 5.96875 4.015625 "/></g></g><g transform="translate(396.568993, 366.690562)"><g><path d="M 3.828125 8.578125 C 2.765625 8.671875 1.929688 8.378906 1.328125 7.703125 C 0.722656 7.023438 0.359375 6.007812 0.234375 4.65625 C 0.171875 3.914062 0.15625 3.273438 0.1875 2.734375 C 0.21875 2.191406 0.3125 1.625 0.46875 1.03125 L 3.203125 0.78125 C 3.015625 1.332031 2.875 1.929688 2.78125 2.578125 C 2.6875 3.222656 2.660156 3.796875 2.703125 4.296875 C 2.773438 5.046875 2.976562 5.40625 3.3125 5.375 C 3.488281 5.363281 3.632812 5.242188 3.75 5.015625 C 3.863281 4.796875 4.082031 4.164062 4.40625 3.125 C 4.695312 2.1875 5.0625 1.515625 5.5 1.109375 C 5.945312 0.710938 6.535156 0.484375 7.265625 0.421875 C 8.191406 0.335938 8.941406 0.625 9.515625 1.28125 C 10.097656 1.945312 10.445312 2.9375 10.5625 4.25 C 10.613281 4.894531 10.59375 5.507812 10.5 6.09375 C 10.40625 6.6875 10.25 7.304688 10.03125 7.953125 L 7.734375 7.203125 C 7.898438 6.742188 8.03125 6.253906 8.125 5.734375 C 8.226562 5.210938 8.265625 4.789062 8.234375 4.46875 C 8.179688 3.90625 8.019531 3.640625 7.75 3.671875 C 7.570312 3.679688 7.429688 3.785156 7.328125 3.984375 C 7.222656 4.191406 7.03125 4.773438 6.75 5.734375 C 6.53125 6.460938 6.296875 7.007812 6.046875 7.375 C 5.804688 7.738281 5.507812 8.015625 5.15625 8.203125 C 4.800781 8.398438 4.359375 8.523438 3.828125 8.578125 Z M 3.828125 8.578125 "/></g></g><g transform="translate(397.409222, 376.251369)"><g><path d="M 0.359375 6 C 0.210938 4.332031 0.535156 3.003906 1.328125 2.015625 C 2.117188 1.023438 3.328125 0.460938 4.953125 0.328125 C 6.628906 0.171875 7.957031 0.476562 8.9375 1.25 C 9.914062 2.019531 10.472656 3.191406 10.609375 4.765625 C 10.734375 6.253906 10.4375 7.4375 9.71875 8.3125 C 9.007812 9.195312 7.925781 9.707031 6.46875 9.84375 L 4.9375 9.96875 L 4.40625 3.859375 C 3.851562 3.929688 3.429688 4.171875 3.140625 4.578125 C 2.859375 4.992188 2.75 5.523438 2.8125 6.171875 C 2.863281 6.773438 2.96875 7.320312 3.125 7.8125 C 3.28125 8.3125 3.523438 8.847656 3.859375 9.421875 L 1.390625 9.640625 C 1.078125 9.117188 0.84375 8.578125 0.6875 8.015625 C 0.53125 7.453125 0.421875 6.78125 0.359375 6 Z M 8.265625 5.09375 C 8.234375 4.6875 8.078125 4.359375 7.796875 4.109375 C 7.523438 3.867188 7.113281 3.742188 6.5625 3.734375 L 6.828125 6.671875 C 7.304688 6.617188 7.675781 6.445312 7.9375 6.15625 C 8.195312 5.875 8.304688 5.519531 8.265625 5.09375 Z M 8.265625 5.09375 "/></g></g><g transform="translate(398.383334, 387.3356)"><g><path d="M 0.40625 4.625 L 0.109375 1.203125 L 10.03125 0.328125 L 10.328125 3.75 Z M 12.484375 0.015625 C 12.992188 -0.0234375 13.390625 0.0859375 13.671875 0.359375 C 13.953125 0.628906 14.117188 1.078125 14.171875 1.703125 C 14.234375 2.335938 14.144531 2.8125 13.90625 3.125 C 13.675781 3.4375 13.3125 3.613281 12.8125 3.65625 C 11.800781 3.75 11.238281 3.1875 11.125 1.96875 C 11.019531 0.757812 11.472656 0.109375 12.484375 0.015625 Z M 12.484375 0.015625 "/></g></g></g></g></g></svg>