<svg xmlns="http://www.w3.org/2000/svg" xmlns:xlink="http://www.w3.org/1999/xlink" width="40" zoomAndPan="magnify" viewBox="0 0 30 30.000001" height="40" preserveAspectRatio="xMidYMid meet" version="1.0"><defs><clipPath id="ea6a8fed0c"><path d="M 5.683594 0 L 24.554688 0 L 24.554688 29.027344 L 5.683594 29.027344 Z M 5.683594 0 " clip-rule="nonzero"/></clipPath></defs><g clip-path="url(#ea6a8fed0c)"><path fill="#000000" d="M 14.148438 16.84375 L 15.09375 16.84375 C 15.410156 16.84375 15.605469 16.5 15.4375 16.230469 L 15.21875 15.886719 C 14.28125 14.40625 13.976562 12.613281 14.414062 10.925781 C 15.699219 5.960938 19.574219 2.023438 24.535156 0.597656 C 23.140625 0.199219 21.664062 -0.00390625 20.132812 0.0234375 C 12.136719 0.175781 5.703125 6.683594 5.734375 14.582031 C 5.765625 22.566406 12.328125 29.027344 20.421875 29.027344 C 21.851562 29.027344 23.230469 28.828125 24.535156 28.453125 C 19.15625 26.90625 15.050781 22.402344 14.148438 16.84375 Z M 8.851562 10.660156 C 8.851562 10.421875 9.050781 10.226562 9.292969 10.226562 C 9.535156 10.226562 9.734375 10.421875 9.734375 10.660156 C 9.734375 11.382812 10.328125 11.96875 11.054688 11.96875 C 11.785156 11.96875 12.378906 11.382812 12.378906 10.660156 C 12.378906 10.421875 12.574219 10.226562 12.820312 10.226562 C 13.0625 10.226562 13.257812 10.421875 13.257812 10.660156 C 13.257812 11.863281 12.269531 12.835938 11.054688 12.835938 C 9.839844 12.835938 8.851562 11.863281 8.851562 10.660156 Z M 12.820312 20.703125 C 12.007812 20.703125 11.351562 20.054688 11.351562 19.253906 C 11.351562 18.453125 14.289062 18.453125 14.289062 19.253906 C 14.289062 20.054688 13.628906 20.703125 12.820312 20.703125 Z M 12.820312 20.703125 " fill-opacity="1" fill-rule="nonzero"/></g></svg>