<svg xmlns="http://www.w3.org/2000/svg" xmlns:xlink="http://www.w3.org/1999/xlink" width="500" zoomAndPan="magnify" viewBox="0 0 375 374.999991" height="500" preserveAspectRatio="xMidYMid meet" version="1.0"><defs><clipPath id="88acc10f99"><path d="M 0 7 L 374.957031 7 L 374.957031 341 L 0 341 Z M 0 7 " clip-rule="nonzero"/></clipPath></defs><g clip-path="url(#88acc10f99)"><path fill="#00d8ff" d="M 308.148438 115.761719 C 304.15625 114.394531 300.136719 113.128906 296.082031 111.964844 C 296.761719 109.183594 297.390625 106.4375 297.945312 103.738281 C 307.078125 59.4375 301.109375 23.742188 280.714844 11.992188 C 261.160156 0.726562 229.179688 12.472656 196.882812 40.558594 C 193.699219 43.332031 190.585938 46.1875 187.546875 49.117188 C 185.511719 47.167969 183.445312 45.257812 181.339844 43.386719 C 147.488281 13.355469 113.558594 0.695312 93.1875 12.480469 C 73.648438 23.78125 67.863281 57.335938 76.089844 99.324219 C 76.90625 103.484375 77.828125 107.621094 78.859375 111.730469 C 74.054688 113.09375 69.421875 114.546875 64.988281 116.089844 C 25.300781 129.917969 -0.0429688 151.585938 -0.0429688 174.058594 C -0.0429688 197.273438 27.164062 220.554688 68.5 234.671875 C 71.851562 235.8125 75.230469 236.867188 78.632812 237.839844 C 77.527344 242.269531 76.546875 246.726562 75.691406 251.210938 C 67.851562 292.46875 73.972656 325.230469 93.457031 336.457031 C 113.582031 348.054688 147.355469 336.136719 180.246094 307.410156 C 182.910156 305.074219 185.519531 302.671875 188.066406 300.207031 C 191.355469 303.378906 194.734375 306.457031 198.199219 309.445312 C 230.058594 336.835938 261.519531 347.898438 280.984375 336.636719 C 301.089844 325.007812 307.625 289.8125 299.140625 246.996094 C 298.472656 243.640625 297.722656 240.304688 296.894531 236.984375 C 299.265625 236.28125 301.59375 235.558594 303.863281 234.808594 C 346.835938 220.582031 374.792969 197.582031 374.792969 174.058594 C 374.792969 151.503906 348.632812 129.691406 308.148438 115.761719 Z M 298.828125 219.621094 C 296.777344 220.296875 294.675781 220.953125 292.53125 221.589844 C 287.789062 206.582031 281.386719 190.625 273.550781 174.136719 C 281.027344 158.042969 287.183594 142.289062 291.792969 127.378906 C 295.628906 128.488281 299.347656 129.660156 302.9375 130.890625 C 337.625 142.824219 358.78125 160.464844 358.78125 174.058594 C 358.78125 188.539062 335.929688 207.335938 298.828125 219.621094 Z M 283.433594 250.101562 C 287.183594 269.035156 287.71875 286.152344 285.234375 299.535156 C 283.003906 311.5625 278.511719 319.578125 272.960938 322.789062 C 261.148438 329.621094 235.886719 320.742188 208.644531 297.3125 C 205.421875 294.539062 202.277344 291.675781 199.21875 288.726562 C 209.78125 277.183594 220.335938 263.765625 230.636719 248.863281 C 248.757812 247.253906 265.878906 244.628906 281.402344 241.042969 C 282.152344 244.046875 282.828125 247.066406 283.433594 250.101562 Z M 127.746094 321.609375 C 116.207031 325.679688 107.011719 325.796875 101.457031 322.597656 C 89.632812 315.78125 84.71875 289.476562 91.421875 254.195312 C 92.21875 250.023438 93.132812 245.878906 94.160156 241.757812 C 109.511719 245.152344 126.507812 247.59375 144.671875 249.066406 C 155.042969 263.648438 165.902344 277.050781 176.847656 288.789062 C 174.523438 291.039062 172.140625 293.230469 169.707031 295.359375 C 155.164062 308.0625 140.589844 317.078125 127.746094 321.609375 Z M 73.679688 219.53125 C 55.402344 213.289062 40.308594 205.175781 29.960938 196.320312 C 20.664062 188.367188 15.96875 180.46875 15.96875 174.058594 C 15.96875 160.421875 36.320312 143.023438 70.257812 131.199219 C 74.375 129.765625 78.6875 128.414062 83.160156 127.144531 C 87.851562 142.390625 94.003906 158.328125 101.429688 174.449219 C 93.90625 190.804688 87.667969 207 82.929688 222.425781 C 79.824219 221.539062 76.738281 220.570312 73.679688 219.53125 Z M 91.804688 96.25 C 84.757812 60.277344 89.4375 33.140625 101.210938 26.332031 C 113.75 19.074219 141.480469 29.417969 170.707031 55.351562 C 172.613281 57.046875 174.488281 58.773438 176.332031 60.539062 C 165.441406 72.222656 154.679688 85.527344 144.398438 100.023438 C 126.769531 101.65625 109.894531 104.277344 94.378906 107.792969 C 93.425781 103.96875 92.566406 100.121094 91.804688 96.25 Z M 253.492188 136.144531 C 249.828125 129.820312 246.027344 123.574219 242.09375 117.414062 C 254.050781 118.925781 265.511719 120.929688 276.269531 123.382812 C 273.042969 133.730469 269.015625 144.546875 264.273438 155.636719 C 260.8125 149.070312 257.214844 142.570312 253.492188 136.144531 Z M 187.554688 71.972656 C 194.941406 79.96875 202.339844 88.894531 209.613281 98.582031 C 194.855469 97.882812 180.070312 97.882812 165.3125 98.570312 C 172.59375 88.976562 180.054688 80.0625 187.554688 71.972656 Z M 121.195312 136.257812 C 117.519531 142.628906 113.988281 149.085938 110.613281 155.625 C 105.953125 144.574219 101.960938 133.707031 98.703125 123.214844 C 109.398438 120.824219 120.804688 118.867188 132.6875 117.382812 C 128.710938 123.582031 124.878906 129.875 121.195312 136.253906 Z M 133.027344 231.871094 C 120.75 230.503906 109.175781 228.648438 98.484375 226.324219 C 101.792969 215.640625 105.871094 204.542969 110.632812 193.257812 C 114.023438 199.800781 117.566406 206.261719 121.257812 212.636719 C 125.058594 219.191406 128.988281 225.613281 133.027344 231.871094 Z M 187.996094 277.273438 C 180.40625 269.089844 172.835938 260.039062 165.445312 250.304688 C 172.621094 250.585938 179.9375 250.726562 187.375 250.726562 C 195.015625 250.726562 202.566406 250.554688 210 250.226562 C 202.703125 260.136719 195.332031 269.203125 187.996094 277.273438 Z M 264.425781 192.679688 C 269.4375 204.09375 273.660156 215.132812 277.011719 225.628906 C 266.144531 228.109375 254.410156 230.105469 242.046875 231.585938 C 246.007812 225.308594 249.84375 218.957031 253.554688 212.527344 C 257.324219 205.992188 260.949219 199.375 264.425781 192.679688 Z M 239.683594 204.53125 C 234.007812 214.390625 228.007812 224.058594 221.703125 233.523438 C 210.277344 234.332031 198.828125 234.734375 187.375 234.726562 C 175.710938 234.726562 164.363281 234.367188 153.4375 233.65625 C 146.964844 224.214844 140.855469 214.527344 135.117188 204.621094 C 129.40625 194.765625 124.070312 184.699219 119.125 174.441406 C 124.058594 164.179688 129.378906 154.109375 135.070312 144.246094 L 135.066406 144.25 C 140.757812 134.386719 146.820312 124.742188 153.242188 115.335938 C 164.390625 114.492188 175.820312 114.054688 187.375 114.054688 C 198.980469 114.054688 210.425781 114.5 221.570312 115.347656 C 227.929688 124.738281 233.953125 134.347656 239.632812 144.164062 C 245.34375 154.003906 250.730469 164.023438 255.789062 174.214844 C 250.785156 184.507812 245.410156 194.621094 239.683594 204.53125 Z M 272.714844 25.851562 C 285.269531 33.085938 290.148438 62.257812 282.261719 100.507812 C 281.757812 102.949219 281.195312 105.4375 280.578125 107.957031 C 265.027344 104.371094 248.140625 101.703125 230.460938 100.042969 C 220.160156 85.386719 209.488281 72.0625 198.773438 60.527344 C 201.582031 57.824219 204.457031 55.191406 207.394531 52.628906 C 235.070312 28.5625 260.933594 19.0625 272.714844 25.851562 Z M 187.375 140.613281 C 205.859375 140.613281 220.847656 155.589844 220.847656 174.058594 C 220.847656 192.53125 205.859375 207.507812 187.375 207.507812 C 168.890625 207.507812 153.902344 192.53125 153.902344 174.058594 C 153.902344 155.589844 168.890625 140.613281 187.375 140.613281 Z M 187.375 140.613281 " fill-opacity="1" fill-rule="nonzero"/></g></svg>