<svg xmlns="http://www.w3.org/2000/svg" xmlns:xlink="http://www.w3.org/1999/xlink" width="40" zoomAndPan="magnify" viewBox="0 0 30 30.000001" height="40" preserveAspectRatio="xMidYMid meet" version="1.0"><defs><clipPath id="8736a4f61c"><path d="M 14 0.277344 L 16 0.277344 L 16 3 L 14 3 Z M 14 0.277344 " clip-rule="nonzero"/></clipPath><clipPath id="948c6dae96"><path d="M 14 26 L 16 26 L 16 28.582031 L 14 28.582031 Z M 14 26 " clip-rule="nonzero"/></clipPath><clipPath id="6c33453aa1"><path d="M 0.761719 13 L 4 13 L 4 16 L 0.761719 16 Z M 0.761719 13 " clip-rule="nonzero"/></clipPath><clipPath id="b05b3d312c"><path d="M 26 13 L 29.066406 13 L 29.066406 16 L 26 16 Z M 26 13 " clip-rule="nonzero"/></clipPath></defs><path fill="#ffce00" d="M 21.832031 14.425781 C 21.832031 14.882812 21.789062 15.332031 21.699219 15.777344 C 21.609375 16.222656 21.480469 16.65625 21.304688 17.074219 C 21.132812 17.496094 20.917969 17.894531 20.664062 18.273438 C 20.414062 18.648438 20.125 19 19.804688 19.320312 C 19.484375 19.640625 19.132812 19.929688 18.753906 20.179688 C 18.378906 20.433594 17.980469 20.648438 17.558594 20.820312 C 17.140625 20.996094 16.707031 21.125 16.261719 21.214844 C 15.816406 21.304688 15.363281 21.347656 14.910156 21.347656 C 14.457031 21.347656 14.007812 21.304688 13.558594 21.214844 C 13.113281 21.125 12.683594 20.996094 12.261719 20.820312 C 11.84375 20.648438 11.441406 20.433594 11.066406 20.179688 C 10.6875 19.929688 10.339844 19.640625 10.015625 19.320312 C 9.695312 19 9.410156 18.648438 9.15625 18.273438 C 8.902344 17.894531 8.691406 17.496094 8.515625 17.074219 C 8.34375 16.65625 8.210938 16.222656 8.121094 15.777344 C 8.035156 15.332031 7.988281 14.882812 7.988281 14.425781 C 7.988281 13.972656 8.035156 13.523438 8.121094 13.078125 C 8.210938 12.628906 8.34375 12.199219 8.515625 11.777344 C 8.691406 11.359375 8.902344 10.960938 9.15625 10.582031 C 9.410156 10.203125 9.695312 9.855469 10.015625 9.53125 C 10.339844 9.210938 10.6875 8.925781 11.066406 8.671875 C 11.441406 8.417969 11.84375 8.207031 12.261719 8.03125 C 12.683594 7.859375 13.113281 7.726562 13.558594 7.636719 C 14.007812 7.550781 14.457031 7.503906 14.910156 7.503906 C 15.363281 7.503906 15.816406 7.550781 16.261719 7.636719 C 16.707031 7.726562 17.140625 7.859375 17.558594 8.03125 C 17.980469 8.207031 18.378906 8.417969 18.753906 8.671875 C 19.132812 8.925781 19.484375 9.210938 19.804688 9.53125 C 20.125 9.855469 20.414062 10.203125 20.664062 10.582031 C 20.917969 10.960938 21.132812 11.359375 21.304688 11.777344 C 21.480469 12.199219 21.609375 12.628906 21.699219 13.078125 C 21.789062 13.523438 21.832031 13.972656 21.832031 14.425781 Z M 21.832031 14.425781 " fill-opacity="1" fill-rule="nonzero"/><path fill="#ffce00" d="M 15.566406 2.144531 L 14.257812 3.183594 L 14.257812 4.636719 L 15.566406 3.59375 Z M 15.566406 2.144531 " fill-opacity="1" fill-rule="nonzero"/><g clip-path="url(#8736a4f61c)"><path fill="#ffce00" d="M 15.566406 1.328125 C 15.566406 0.746094 15.277344 0.277344 14.917969 0.277344 L 14.902344 0.277344 C 14.546875 0.277344 14.257812 0.75 14.257812 1.328125 L 14.257812 2.792969 L 15.566406 1.753906 Z M 15.566406 1.328125 " fill-opacity="1" fill-rule="nonzero"/></g><path fill="#ffce00" d="M 15.566406 3.992188 L 14.257812 5.03125 L 14.257812 6.660156 L 15.566406 6.660156 Z M 15.566406 3.992188 " fill-opacity="1" fill-rule="nonzero"/><path fill="#ffce00" d="M 14.257812 26.714844 L 15.566406 25.675781 L 15.566406 24.222656 L 14.257812 25.261719 Z M 14.257812 26.714844 " fill-opacity="1" fill-rule="nonzero"/><g clip-path="url(#948c6dae96)"><path fill="#ffce00" d="M 14.257812 27.53125 C 14.257812 28.113281 14.546875 28.582031 14.902344 28.582031 L 14.917969 28.582031 C 15.277344 28.582031 15.566406 28.109375 15.566406 27.53125 L 15.566406 26.070312 L 14.257812 27.109375 Z M 14.257812 27.53125 " fill-opacity="1" fill-rule="nonzero"/></g><path fill="#ffce00" d="M 14.257812 24.871094 L 15.566406 23.832031 L 15.566406 22.199219 L 14.257812 22.199219 Z M 14.257812 24.871094 " fill-opacity="1" fill-rule="nonzero"/><path fill="#ffce00" d="M 9.453125 6.273438 L 10.0625 4.722656 L 9.335938 3.464844 L 8.722656 5.015625 Z M 9.453125 6.273438 " fill-opacity="1" fill-rule="nonzero"/><path fill="#ffce00" d="M 8.527344 4.675781 L 9.136719 3.125 L 8.925781 2.757812 C 8.636719 2.253906 8.148438 1.988281 7.835938 2.167969 L 7.824219 2.175781 C 7.515625 2.355469 7.496094 2.90625 7.789062 3.414062 Z M 8.527344 4.675781 " fill-opacity="1" fill-rule="nonzero"/><path fill="#ffce00" d="M 10.460938 8.023438 L 11.59375 7.371094 L 10.261719 5.0625 L 9.644531 6.613281 Z M 10.460938 8.023438 " fill-opacity="1" fill-rule="nonzero"/><path fill="#ffce00" d="M 20.375 22.585938 L 19.761719 24.136719 L 20.492188 25.394531 L 21.101562 23.84375 Z M 20.375 22.585938 " fill-opacity="1" fill-rule="nonzero"/><path fill="#ffce00" d="M 21.300781 24.183594 L 20.691406 25.734375 L 20.902344 26.101562 C 21.191406 26.609375 21.675781 26.871094 21.992188 26.691406 L 22.003906 26.683594 C 22.3125 26.503906 22.332031 25.953125 22.035156 25.445312 Z M 21.300781 24.183594 " fill-opacity="1" fill-rule="nonzero"/><path fill="#ffce00" d="M 19.363281 20.828125 L 18.234375 21.484375 L 19.566406 23.796875 L 20.175781 22.238281 Z M 19.363281 20.828125 " fill-opacity="1" fill-rule="nonzero"/><path fill="#ffce00" d="M 6.105469 10.097656 L 5.859375 8.449219 L 4.597656 7.71875 L 4.847656 9.371094 Z M 6.105469 10.097656 " fill-opacity="1" fill-rule="nonzero"/><path fill="#ffce00" d="M 3.238281 8.441406 L 4.5 9.171875 L 4.25 7.519531 L 3.882812 7.308594 C 3.378906 7.019531 2.824219 7.03125 2.644531 7.339844 L 2.640625 7.351562 C 2.472656 7.667969 2.734375 8.152344 3.238281 8.441406 Z M 3.238281 8.441406 " fill-opacity="1" fill-rule="nonzero"/><path fill="#ffce00" d="M 7.855469 11.109375 L 8.507812 9.976562 L 6.199219 8.640625 L 6.445312 10.296875 Z M 7.855469 11.109375 " fill-opacity="1" fill-rule="nonzero"/><path fill="#ffce00" d="M 23.71875 18.757812 L 23.96875 20.410156 L 25.226562 21.136719 L 24.980469 19.488281 Z M 23.71875 18.757812 " fill-opacity="1" fill-rule="nonzero"/><path fill="#ffce00" d="M 26.585938 20.410156 L 25.320312 19.679688 L 25.570312 21.335938 L 25.9375 21.546875 C 26.445312 21.835938 26.996094 21.824219 27.175781 21.515625 L 27.179688 21.5 C 27.355469 21.195312 27.089844 20.707031 26.585938 20.410156 Z M 26.585938 20.410156 " fill-opacity="1" fill-rule="nonzero"/><path fill="#ffce00" d="M 21.964844 17.75 L 21.3125 18.878906 L 23.628906 20.210938 L 23.378906 18.5625 Z M 21.964844 17.75 " fill-opacity="1" fill-rule="nonzero"/><path fill="#ffce00" d="M 2.628906 13.773438 L 3.667969 15.082031 L 5.121094 15.082031 L 4.078125 13.773438 Z M 2.628906 13.773438 " fill-opacity="1" fill-rule="nonzero"/><g clip-path="url(#6c33453aa1)"><path fill="#ffce00" d="M 2.234375 13.773438 L 1.8125 13.773438 C 1.230469 13.773438 0.761719 14.0625 0.761719 14.421875 L 0.761719 14.433594 C 0.761719 14.792969 1.234375 15.082031 1.8125 15.082031 L 3.273438 15.082031 Z M 2.234375 13.773438 " fill-opacity="1" fill-rule="nonzero"/></g><path fill="#ffce00" d="M 7.144531 15.082031 L 7.144531 13.773438 L 4.472656 13.773438 L 5.511719 15.082031 Z M 7.144531 15.082031 " fill-opacity="1" fill-rule="nonzero"/><path fill="#ffce00" d="M 27.199219 15.082031 L 26.160156 13.773438 L 24.707031 13.773438 L 25.746094 15.082031 Z M 27.199219 15.082031 " fill-opacity="1" fill-rule="nonzero"/><g clip-path="url(#b05b3d312c)"><path fill="#ffce00" d="M 28.015625 13.773438 L 26.550781 13.773438 L 27.589844 15.082031 L 28.015625 15.082031 C 28.597656 15.082031 29.066406 14.792969 29.066406 14.433594 L 29.066406 14.421875 C 29.066406 14.066406 28.597656 13.773438 28.015625 13.773438 Z M 28.015625 13.773438 " fill-opacity="1" fill-rule="nonzero"/></g><path fill="#ffce00" d="M 22.683594 13.773438 L 22.683594 15.082031 L 25.351562 15.082031 L 24.3125 13.773438 Z M 22.683594 13.773438 " fill-opacity="1" fill-rule="nonzero"/><path fill="#ffce00" d="M 3.949219 20.007812 L 5.5 20.617188 L 6.757812 19.890625 L 5.207031 19.28125 Z M 3.949219 20.007812 " fill-opacity="1" fill-rule="nonzero"/><path fill="#ffce00" d="M 3.238281 20.410156 C 2.730469 20.699219 2.464844 21.1875 2.644531 21.5 L 2.652344 21.515625 C 2.832031 21.824219 3.382812 21.839844 3.890625 21.546875 L 5.15625 20.816406 L 3.601562 20.207031 Z M 3.238281 20.410156 " fill-opacity="1" fill-rule="nonzero"/><path fill="#ffce00" d="M 7.855469 17.75 L 5.546875 19.082031 L 7.097656 19.691406 L 8.507812 18.878906 Z M 7.855469 17.75 " fill-opacity="1" fill-rule="nonzero"/><path fill="#ffce00" d="M 25.878906 8.851562 L 24.328125 8.238281 L 23.070312 8.96875 L 24.621094 9.578125 Z M 25.878906 8.851562 " fill-opacity="1" fill-rule="nonzero"/><path fill="#ffce00" d="M 26.585938 8.441406 C 27.089844 8.152344 27.355469 7.667969 27.175781 7.351562 L 27.167969 7.339844 C 26.988281 7.03125 26.4375 7.011719 25.929688 7.308594 L 24.667969 8.039062 L 26.21875 8.648438 Z M 26.585938 8.441406 " fill-opacity="1" fill-rule="nonzero"/><path fill="#ffce00" d="M 21.964844 11.109375 L 24.28125 9.777344 L 22.722656 9.160156 L 21.3125 9.976562 Z M 21.964844 11.109375 " fill-opacity="1" fill-rule="nonzero"/><path fill="#ffce00" d="M 8.203125 24.742188 L 9.855469 24.496094 L 10.582031 23.238281 L 8.933594 23.484375 Z M 8.203125 24.742188 " fill-opacity="1" fill-rule="nonzero"/><path fill="#ffce00" d="M 7.796875 25.445312 C 7.507812 25.953125 7.519531 26.503906 7.828125 26.683594 L 7.84375 26.691406 C 8.148438 26.871094 8.636719 26.609375 8.933594 26.101562 L 9.664062 24.835938 L 8.007812 25.085938 Z M 7.796875 25.445312 " fill-opacity="1" fill-rule="nonzero"/><path fill="#ffce00" d="M 9.125 23.144531 L 10.78125 22.894531 L 11.59375 21.484375 L 10.460938 20.828125 Z M 9.125 23.144531 " fill-opacity="1" fill-rule="nonzero"/><path fill="#ffce00" d="M 21.621094 4.117188 L 19.972656 4.363281 L 19.242188 5.621094 L 20.894531 5.375 Z M 21.621094 4.117188 " fill-opacity="1" fill-rule="nonzero"/><path fill="#ffce00" d="M 22.03125 3.40625 C 22.320312 2.898438 22.304688 2.347656 22 2.167969 L 21.984375 2.164062 C 21.675781 1.984375 21.191406 2.246094 20.894531 2.753906 L 20.164062 4.023438 L 21.820312 3.773438 Z M 22.03125 3.40625 " fill-opacity="1" fill-rule="nonzero"/><path fill="#ffce00" d="M 20.695312 5.714844 L 19.046875 5.960938 L 18.234375 7.371094 L 19.363281 8.023438 Z M 20.695312 5.714844 " fill-opacity="1" fill-rule="nonzero"/></svg>