<svg xmlns="http://www.w3.org/2000/svg" xmlns:xlink="http://www.w3.org/1999/xlink" width="500" zoomAndPan="magnify" viewBox="0 0 375 374.999991" height="500" preserveAspectRatio="xMidYMid meet" version="1.0"><defs><clipPath id="25fd8a0646"><path d="M 206 349 L 213 349 L 213 374.992188 L 206 374.992188 Z M 206 349 " clip-rule="nonzero"/></clipPath><clipPath id="a95b02ba87"><path d="M 316 309 L 328.296875 309 L 328.296875 332 L 316 332 Z M 316 309 " clip-rule="nonzero"/></clipPath><clipPath id="82a3b6d519"><path d="M 47.046875 262 L 58 262 L 58 282 L 47.046875 282 Z M 47.046875 262 " clip-rule="nonzero"/></clipPath></defs><path fill="#ed2224" d="M 254.085938 50.667969 C 210.832031 29.144531 157.328125 29.714844 114.078125 52.15625 C 98.847656 60.0625 84.292969 71.214844 77.277344 87.015625 C 67.949219 108.011719 74.246094 133.644531 88.792969 151.0625 C 103.34375 168.480469 124.816406 178.605469 146.703125 184.199219 C 174.84375 191.386719 205.519531 191.632812 232.351562 179.945312 C 259.1875 168.261719 281.355469 143.410156 285.492188 114.199219 C 289.628906 84.992188 272.757812 53.007812 254.085938 50.667969 Z M 254.085938 50.667969 " fill-opacity="1" fill-rule="nonzero"/><path fill="#010101" d="M 135.292969 181.414062 C 115.148438 174.671875 99.410156 164.601562 88.367188 151.40625 C 72.621094 132.574219 67.960938 106.605469 76.75 86.761719 C 82.835938 73.054688 95.300781 61.234375 113.804688 51.628906 C 157.121094 29.144531 210.929688 28.570312 254.253906 50.089844 C 260.777344 50.949219 267.464844 55.460938 273.085938 62.808594 C 283.464844 76.371094 288.566406 96.535156 286.054688 114.230469 C 282.113281 142.003906 261.128906 167.988281 232.585938 180.417969 C 201.179688 194.089844 168.472656 190.289062 146.570312 184.695312 C 142.664062 183.71875 138.902344 182.625 135.292969 181.414062 Z M 235.195312 43.464844 C 196.027344 30.355469 151.324219 33.46875 114.324219 52.691406 C 96.035156 62.164062 83.765625 73.804688 77.785156 87.273438 C 69.160156 106.703125 73.757812 132.203125 89.230469 150.710938 C 102.089844 166.089844 121.472656 177.171875 146.84375 183.65625 C 168.578125 189.207031 201.015625 192.980469 232.128906 179.441406 C 260.316406 167.160156 281.050781 141.5 284.933594 114.128906 C 287.398438 96.738281 282.394531 76.890625 272.195312 63.539062 C 266.71875 56.394531 260.234375 52.023438 254.015625 51.238281 L 253.917969 51.238281 L 253.832031 51.195312 C 247.796875 48.183594 241.578125 45.605469 235.179688 43.464844 Z M 235.195312 43.464844 " fill-opacity="1" fill-rule="nonzero"/><path fill="#bc2026" d="M 264.351562 70.820312 C 246.136719 53.15625 219.503906 46.429688 194.179688 47.816406 C 168.851562 49.199219 144.402344 57.863281 120.828125 67.566406 C 105.941406 73.6875 90.203125 81.15625 82.257812 95.328125 C 75.742188 106.964844 75.765625 121.542969 80.359375 133.972656 C 84.953125 146.402344 93.691406 156.84375 103.679688 165.382812 C 107.914062 168.988281 112.371094 172.289062 117.058594 175.28125 C 121.746094 178.273438 126.617188 180.929688 131.675781 183.25 C 136.730469 185.570312 141.921875 187.53125 147.246094 189.136719 C 152.574219 190.738281 157.984375 191.96875 163.484375 192.828125 C 195.9375 197.820312 231.464844 188.148438 254.09375 163.707031 C 276.71875 139.269531 289.085938 94.851562 264.351562 70.820312 Z M 264.351562 70.820312 " fill-opacity="1" fill-rule="nonzero"/><path fill="#010101" d="M 143.46875 188.539062 C 136.113281 186.074219 129.066406 182.925781 122.320312 179.101562 C 115.574219 175.277344 109.253906 170.84375 103.363281 165.800781 C 91.917969 156.023438 84.015625 145.375 79.875 134.183594 C 74.90625 120.734375 75.652344 106.113281 81.816406 95.074219 C 89.898438 80.640625 106.109375 73.046875 120.65625 67.058594 C 143.601562 57.609375 168.40625 48.652344 194.179688 47.253906 C 222.277344 45.722656 248 54.160156 264.757812 70.441406 C 276.140625 81.5 280.714844 98.089844 277.535156 117.199219 C 274.769531 133.980469 266.15625 151.519531 254.507812 164.109375 C 232.875 187.484375 197.964844 198.707031 163.40625 193.375 C 156.621094 192.332031 149.976562 190.71875 143.46875 188.539062 Z M 233.878906 53.394531 C 227.488281 51.316406 220.957031 49.855469 214.289062 49.011719 C 207.617188 48.164062 200.929688 47.949219 194.21875 48.363281 C 168.640625 49.769531 143.9375 58.65625 121.050781 68.070312 C 106.679688 74.003906 90.671875 81.5 82.765625 95.609375 C 76.742188 106.359375 76.046875 120.628906 80.902344 133.777344 C 84.972656 144.808594 92.769531 155.292969 104.0625 164.945312 C 108.265625 168.542969 112.703125 171.835938 117.363281 174.816406 C 122.027344 177.800781 126.875 180.445312 131.90625 182.753906 C 136.9375 185.066406 142.105469 187.015625 147.410156 188.609375 C 152.714844 190.203125 158.101562 191.417969 163.574219 192.265625 C 197.765625 197.535156 232.296875 186.445312 253.675781 163.34375 C 265.1875 150.90625 273.6875 133.585938 276.414062 117.019531 C 279.503906 98.277344 275.078125 82.019531 263.957031 71.226562 C 255.824219 63.335938 245.535156 57.316406 233.878906 53.394531 Z M 233.878906 53.394531 " fill-opacity="1" fill-rule="nonzero"/><path fill="#010101" d="M 211.0625 98.179688 C 195.816406 95.9375 180.25 94.40625 164.996094 96.9375 C 149.742188 99.464844 134.671875 106.472656 124.949219 118.71875 C 115.226562 130.964844 111.890625 148.933594 119.109375 162.648438 C 128.332031 180.214844 150.332031 185.785156 169.96875 187.5625 C 188.101562 189.214844 207.257812 188.96875 223.515625 180.535156 C 239.773438 172.105469 252.164062 153.308594 248.140625 135.34375 C 244.117188 117.375 226.195312 106.632812 211.0625 98.179688 Z M 211.0625 98.179688 " fill-opacity="1" fill-rule="nonzero"/><path fill="#bc2026" d="M 144.929688 183.292969 C 132.167969 179.019531 123.457031 172.265625 118.546875 162.914062 C 111.636719 149.761719 114.066406 131.445312 124.441406 118.367188 C 133.457031 107.019531 147.800781 99.207031 164.839844 96.382812 C 180.453125 93.789062 196.296875 95.445312 211.085938 97.617188 L 211.191406 97.617188 L 211.28125 97.675781 C 228.011719 107 244.679688 117.582031 248.625 135.1875 C 252.910156 154.308594 238.988281 173.066406 223.714844 181 C 206.273438 190.058594 185.769531 189.558594 169.851562 188.113281 C 160.300781 187.253906 151.992188 185.648438 144.929688 183.292969 Z M 210.816406 98.722656 C 196.148438 96.570312 180.445312 94.933594 165.023438 97.492188 C 148.265625 100.300781 134.164062 107.941406 125.328125 119.070312 C 115.246094 131.808594 112.871094 149.65625 119.601562 162.386719 C 127.039062 176.546875 143.523438 184.597656 170.011719 186.980469 C 185.769531 188.386719 206.066406 188.914062 223.25 179.996094 C 238.148438 172.265625 251.742188 154 247.578125 135.425781 C 243.707031 118.324219 227.320312 107.910156 210.84375 98.722656 Z M 210.816406 98.722656 " fill-opacity="1" fill-rule="nonzero"/><path fill="#495055" d="M 135.628906 43.824219 C 139.605469 22.710938 159.324219 5.613281 180.5 4.910156 C 201.679688 4.210938 222.082031 20.019531 226.933594 40.84375 C 196.042969 35.046875 163.644531 37.175781 135.628906 43.824219 Z M 135.628906 43.824219 " fill-opacity="1" fill-rule="nonzero"/><path fill="#010101" d="M 134.910156 44.570312 L 135.074219 43.71875 C 139.097656 22.34375 159.042969 5.074219 180.480469 4.371094 C 201.917969 3.667969 222.574219 19.667969 227.492188 40.746094 L 227.6875 41.589844 L 226.835938 41.449219 C 198.554688 36.128906 166.210938 37.183594 135.761719 44.40625 Z M 195.480469 7.722656 C 190.625 6.078125 185.636719 5.328125 180.515625 5.472656 C 159.875 6.175781 140.652344 22.574219 136.355469 43.058594 C 166.402344 36.03125 198.222656 35.011719 226.183594 40.136719 C 222.320312 24.964844 210.085938 12.640625 195.480469 7.722656 Z M 195.480469 7.722656 " fill-opacity="1" fill-rule="nonzero"/><path fill="#010101" d="M 236.488281 117.460938 L 236.039062 116.421875 C 243.652344 113.160156 250.753906 109.023438 257.34375 104.007812 C 263.933594 98.992188 269.8125 93.25 274.980469 86.785156 L 275.867188 87.484375 C 270.640625 94.027344 264.695312 99.832031 258.035156 104.90625 C 251.371094 109.976562 244.1875 114.164062 236.488281 117.460938 Z M 236.488281 117.460938 " fill-opacity="1" fill-rule="nonzero"/><path fill="#010101" d="M 207.699219 101.558594 L 206.785156 101.074219 L 207.871094 98.484375 L 208.320312 98.664062 C 210.46875 95.15625 212.332031 91.5 213.898438 87.695312 C 215.46875 83.894531 216.730469 79.988281 217.679688 75.988281 C 218.628906 71.984375 219.257812 67.929688 219.5625 63.828125 C 219.871094 59.726562 219.851562 55.625 219.503906 51.523438 L 220.539062 51.441406 C 220.910156 55.828125 220.910156 60.214844 220.542969 64.601562 C 220.175781 68.988281 219.445312 73.316406 218.351562 77.582031 C 217.257812 81.847656 215.820312 85.992188 214.03125 90.015625 C 212.242188 94.039062 210.132812 97.886719 207.699219 101.558594 Z M 207.699219 101.558594 " fill-opacity="1" fill-rule="nonzero"/><path fill="#010101" d="M 181.957031 97.792969 C 181.441406 89.847656 180.003906 82.070312 177.648438 74.460938 C 175.289062 66.851562 172.078125 59.625 168.007812 52.777344 L 168.976562 52.191406 C 173.085938 59.121094 176.328125 66.429688 178.707031 74.125 C 181.085938 81.816406 182.53125 89.679688 183.046875 97.714844 Z M 181.957031 97.792969 " fill-opacity="1" fill-rule="nonzero"/><path fill="#010101" d="M 150.796875 104.59375 C 145.761719 98.519531 141.542969 91.921875 138.144531 84.804688 C 134.742188 77.683594 132.261719 70.261719 130.699219 62.527344 L 131.800781 62.308594 C 133.347656 69.949219 135.800781 77.285156 139.164062 84.320312 C 142.527344 91.355469 146.695312 97.875 151.671875 103.878906 Z M 150.796875 104.59375 " fill-opacity="1" fill-rule="nonzero"/><path fill="#010101" d="M 128.339844 115.101562 C 124.410156 113.589844 120.652344 111.734375 117.0625 109.527344 C 113.476562 107.324219 110.121094 104.8125 107 101.988281 C 103.878906 99.164062 101.042969 96.078125 98.492188 92.730469 C 95.941406 89.386719 93.71875 85.832031 91.828125 82.074219 L 92.839844 81.578125 C 94.699219 85.269531 96.882812 88.761719 99.390625 92.050781 C 101.894531 95.339844 104.683594 98.375 107.75 101.152344 C 110.820312 103.925781 114.113281 106.398438 117.640625 108.566406 C 121.164062 110.734375 124.859375 112.558594 128.71875 114.046875 Z M 128.339844 115.101562 " fill-opacity="1" fill-rule="nonzero"/><path fill="#010101" d="M 104.035156 129.425781 C 98.578125 127.605469 93.4375 125.128906 88.617188 121.996094 C 83.796875 118.863281 79.445312 115.175781 75.566406 110.933594 L 76.40625 110.175781 C 79.265625 113.300781 82.394531 116.128906 85.796875 118.660156 C 89.199219 121.1875 92.808594 123.371094 96.628906 125.207031 C 100.449219 127.042969 104.410156 128.5 108.511719 129.582031 C 112.613281 130.660156 116.777344 131.339844 121.007812 131.617188 L 120.9375 132.75 C 115.15625 132.382812 109.523438 131.277344 104.035156 129.425781 Z M 104.035156 129.425781 " fill-opacity="1" fill-rule="nonzero"/><path fill="#010101" d="M 93.9375 156.339844 C 93 156.027344 92.085938 155.65625 91.199219 155.222656 L 91.699219 154.210938 C 92.671875 154.664062 93.667969 155.050781 94.695312 155.371094 C 95.71875 155.6875 96.761719 155.9375 97.816406 156.117188 C 98.875 156.292969 99.941406 156.398438 101.015625 156.433594 C 102.085938 156.464844 103.15625 156.425781 104.222656 156.3125 C 105.292969 156.203125 106.347656 156.019531 107.386719 155.761719 C 108.429688 155.507812 109.449219 155.183594 110.449219 154.789062 C 111.445312 154.394531 112.414062 153.933594 113.347656 153.410156 C 114.285156 152.882812 115.179688 152.296875 116.035156 151.652344 L 116.738281 152.542969 C 115.132812 153.753906 113.40625 154.757812 111.554688 155.550781 C 109.707031 156.34375 107.789062 156.90625 105.804688 157.238281 C 103.820312 157.566406 101.824219 157.65625 99.816406 157.503906 C 97.808594 157.351562 95.851562 156.964844 93.9375 156.339844 Z M 93.9375 156.339844 " fill-opacity="1" fill-rule="nonzero"/><path fill="#010101" d="M 246.550781 144.871094 L 246.84375 143.78125 C 250.707031 144.8125 254.632812 145.289062 258.628906 145.210938 C 262.625 145.136719 266.53125 144.511719 270.351562 143.339844 L 270.6875 144.421875 C 266.765625 145.625 262.753906 146.265625 258.652344 146.34375 C 254.546875 146.417969 250.515625 145.929688 246.550781 144.871094 Z M 246.550781 144.871094 " fill-opacity="1" fill-rule="nonzero"/><path fill="#414e86" d="M 237.132812 169.785156 L 237.328125 168.671875 L 247.953125 170.511719 L 247.761719 171.625 Z M 237.132812 169.785156 " fill-opacity="1" fill-rule="nonzero"/><path fill="#414e86" d="M 123.457031 181.746094 C 124.855469 173.339844 127.699219 165.453125 131.984375 158.085938 L 132.964844 158.65625 C 128.746094 165.910156 125.949219 173.675781 124.578125 181.949219 Z M 123.457031 181.746094 " fill-opacity="1" fill-rule="nonzero"/><path fill="#414e86" d="M 107.855469 219.671875 L 113.476562 206.34375 L 114.519531 206.785156 L 108.898438 220.109375 Z M 107.855469 219.671875 " fill-opacity="1" fill-rule="nonzero"/><path fill="#414e86" d="M 89.613281 280.84375 L 94.722656 267.351562 L 95.78125 267.75 L 90.671875 281.242188 Z M 89.613281 280.84375 " fill-opacity="1" fill-rule="nonzero"/><path fill="#414e86" d="M 73.375 329.199219 L 79.199219 311.851562 L 80.273438 312.210938 L 74.449219 329.558594 Z M 73.375 329.199219 " fill-opacity="1" fill-rule="nonzero"/><path fill="#414e86" d="M 156.527344 146.65625 L 157.484375 133.523438 L 158.613281 133.605469 L 157.65625 146.738281 Z M 156.527344 146.65625 " fill-opacity="1" fill-rule="nonzero"/><path fill="#414e86" d="M 148.140625 209.304688 L 150.484375 195.46875 L 151.597656 195.65625 L 149.257812 209.492188 Z M 148.140625 209.304688 " fill-opacity="1" fill-rule="nonzero"/><path fill="#414e86" d="M 138.511719 275.746094 L 140.933594 251.40625 L 142.058594 251.519531 L 139.640625 275.855469 Z M 138.511719 275.746094 " fill-opacity="1" fill-rule="nonzero"/><path fill="#414e86" d="M 125.394531 341.558594 L 128.078125 313.199219 L 129.203125 313.308594 L 126.519531 341.664062 Z M 125.394531 341.558594 " fill-opacity="1" fill-rule="nonzero"/><path fill="#414e86" d="M 184.371094 126.230469 L 185.460938 125.925781 L 191.199219 146.554688 L 190.105469 146.859375 Z M 184.371094 126.230469 " fill-opacity="1" fill-rule="nonzero"/><path fill="#414e86" d="M 193.371094 191.3125 L 194.488281 191.109375 L 197.316406 206.679688 L 196.199219 206.882812 Z M 193.371094 191.3125 " fill-opacity="1" fill-rule="nonzero"/><path fill="#414e86" d="M 195.648438 273.4375 L 196.757812 273.203125 L 204.257812 309.066406 L 203.152344 309.296875 Z M 195.648438 273.4375 " fill-opacity="1" fill-rule="nonzero"/><g clip-path="url(#25fd8a0646)"><path fill="#414e86" d="M 206.78125 350.179688 L 207.898438 349.984375 L 212.214844 374.824219 L 211.097656 375.015625 Z M 206.78125 350.179688 " fill-opacity="1" fill-rule="nonzero"/></g><path fill="#414e86" d="M 207.53125 123.617188 L 208.589844 123.207031 L 216.902344 144.707031 L 215.847656 145.113281 Z M 207.53125 123.617188 " fill-opacity="1" fill-rule="nonzero"/><path fill="#414e86" d="M 225.761719 182.292969 L 226.855469 182.003906 L 232.410156 203.164062 L 231.316406 203.449219 Z M 225.761719 182.292969 " fill-opacity="1" fill-rule="nonzero"/><path fill="#414e86" d="M 242.785156 244.761719 L 243.855469 244.390625 L 250.292969 262.917969 L 249.222656 263.289062 Z M 242.785156 244.761719 " fill-opacity="1" fill-rule="nonzero"/><path fill="#414e86" d="M 261.074219 317.425781 L 262.171875 317.148438 L 272.078125 356.144531 L 270.980469 356.421875 Z M 261.074219 317.425781 " fill-opacity="1" fill-rule="nonzero"/><path fill="#414e86" d="M 257.996094 175.957031 L 239.203125 142.371094 C 237.191406 137.128906 234.488281 132.269531 231.09375 127.796875 L 232.015625 127.144531 C 235.453125 131.671875 238.1875 136.59375 240.226562 141.898438 L 259.015625 175.414062 Z M 257.996094 175.957031 " fill-opacity="1" fill-rule="nonzero"/><path fill="#414e86" d="M 254.5625 196.15625 L 255.566406 195.628906 L 267.496094 218.339844 L 266.496094 218.863281 Z M 254.5625 196.15625 " fill-opacity="1" fill-rule="nonzero"/><path fill="#414e86" d="M 282.414062 244.800781 L 283.398438 244.238281 L 295.003906 264.5 L 294.023438 265.0625 Z M 282.414062 244.800781 " fill-opacity="1" fill-rule="nonzero"/><g clip-path="url(#a95b02ba87)"><path fill="#414e86" d="M 316.464844 309.890625 L 317.476562 309.378906 L 328.210938 330.523438 L 327.199219 331.035156 Z M 316.464844 309.890625 " fill-opacity="1" fill-rule="nonzero"/></g><path fill="#414e86" d="M 197.445312 155.578125 L 198.546875 155.304688 L 214.058594 217.679688 L 212.960938 217.953125 Z M 197.445312 155.578125 " fill-opacity="1" fill-rule="nonzero"/><path fill="#414e86" d="M 168.15625 156.289062 L 169.289062 156.28125 L 169.792969 234.351562 L 168.660156 234.359375 Z M 168.15625 156.289062 " fill-opacity="1" fill-rule="nonzero"/><path fill="#414e86" d="M 105.925781 175.246094 L 104.90625 174.753906 C 108.953125 166.320312 113.683594 158.285156 119.09375 150.652344 C 124.503906 143.019531 130.523438 135.894531 137.140625 129.277344 L 137.9375 130.074219 C 131.363281 136.644531 125.390625 143.722656 120.015625 151.308594 C 114.644531 158.890625 109.945312 166.871094 105.925781 175.246094 Z M 105.925781 175.246094 " fill-opacity="1" fill-rule="nonzero"/><path fill="#414e86" d="M 72.171875 228.066406 L 86.3125 206.480469 L 87.261719 207.101562 L 73.117188 228.683594 Z M 72.171875 228.066406 " fill-opacity="1" fill-rule="nonzero"/><g clip-path="url(#82a3b6d519)"><path fill="#414e86" d="M 47.140625 280.566406 L 56.773438 262.152344 L 57.777344 262.675781 L 48.144531 281.089844 Z M 47.140625 280.566406 " fill-opacity="1" fill-rule="nonzero"/></g><path fill="#414e86" d="M 121.085938 36.445312 C 121.808594 32.917969 122.875 29.496094 124.277344 26.179688 C 125.683594 22.863281 127.402344 19.714844 129.4375 16.742188 C 131.46875 13.769531 133.777344 11.023438 136.355469 8.507812 C 138.9375 5.992188 141.742188 3.757812 144.769531 1.800781 L 145.375 2.753906 C 142.410156 4.667969 139.664062 6.859375 137.140625 9.320312 C 134.613281 11.78125 132.355469 14.46875 130.363281 17.378906 C 128.375 20.289062 126.691406 23.367188 125.316406 26.613281 C 123.941406 29.859375 122.898438 33.210938 122.191406 36.664062 Z M 121.085938 36.445312 " fill-opacity="1" fill-rule="nonzero"/><path fill="#414e86" d="M 111.082031 18.738281 L 123.65625 -0.0117188 L 124.597656 0.621094 L 112.019531 19.371094 Z M 111.082031 18.738281 " fill-opacity="1" fill-rule="nonzero"/><path fill="#414e86" d="M 290.71875 69.925781 C 286.496094 50.253906 269.125 33.894531 249.425781 31.0625 L 249.582031 29.945312 C 269.738281 32.839844 287.503906 49.558594 291.792969 69.6875 Z M 290.71875 69.925781 " fill-opacity="1" fill-rule="nonzero"/><path fill="#414e86" d="M 292.5 45.664062 C 290.808594 36.53125 283.027344 28.800781 273.988281 27.332031 L 274.171875 26.214844 C 283.667969 27.789062 291.84375 35.882812 293.609375 45.460938 Z M 292.5 45.664062 " fill-opacity="1" fill-rule="nonzero"/></svg>